<svg enable-background="new 0 0 110 100" height="100" viewBox="0 0 110 100" width="110" xmlns="http://www.w3.org/2000/svg" xmlns:xlink="http://www.w3.org/1999/xlink"><linearGradient id="a" gradientUnits="userSpaceOnUse" x1="21.6002" x2="85.4507" y1="24.0237" y2="87.8743"><stop offset="0" stop-color="#109bfb"/><stop offset="1" stop-color="#1d3ec0"/></linearGradient><path d="m23 60.1c-3.1 0-5.6 2.5-5.6 5.6s2.5 5.6 5.6 5.6 5.6-2.5 5.6-5.6-2.5-5.6-5.6-5.6zm0 9c-1.9 0-3.4-1.5-3.4-3.4s1.5-3.4 3.4-3.4 3.4 1.5 3.4 3.4-1.5 3.4-3.4 3.4zm59.1-9c-3.1 0-5.6 2.5-5.6 5.6s2.5 5.6 5.6 5.6 5.6-2.5 5.6-5.6-2.5-5.6-5.6-5.6zm0 9c-1.9 0-3.4-1.5-3.4-3.4s1.5-3.4 3.4-3.4 3.4 1.5 3.4 3.4-1.5 3.4-3.4 3.4zm-29.9-21.1h5.2v2.3h-5.2zm55.1 4.5c0-.1 0-.1 0 0-.2-3.6-3.2-8.4-8.1-10.3-.8-.3-1.6-.5-2.4-.7-.1 0-.1 0-.2 0h-13.5c-2.2-2.9-13.8-17.5-23.7-18.8h-.1-25.1c-3.4 0-6 1.1-8 3.5-2.7 3.3-9.2 10.4-12.4 12.8-1.8 1.4-6.4 2-8.1 2.1-1.7 0-3 1.4-3 3.1v2.8 5.8 11.9c0 1.7 1.4 3.1 3.1 3.1h6.2c.9 5.3 5.6 9.4 11.2 9.4s10.3-4.1 11.2-9.4h36.5c.9 5.3 5.6 9.4 11.2 9.4s10.3-4.1 11.2-9.4h10.9c1.7 0 3.1-1.4 3.1-3.1v-11.8c0-.2 0-.3 0-.4zm-2.4-.8h-.1c-.1 0-.3.1-.4.1s-.1 0-.2 0c-.2 0-.4 0-.6 0-2.7 0-5-2.2-5-5 0-.2 0-.5.1-.7 0-.1 0-.1 0-.2 0-.2.1-.4.1-.5s0-.1.1-.2c.1-.2.2-.4.3-.6 3.1 1.6 5.2 4.6 5.7 7.1zm-99.3-8.4s.1 0 0 0c.8-.1 6.8-.6 9.4-2.5 3.5-2.6 10.3-10.1 12.8-13.1 1-1.2 2.7-2.7 6.3-2.7h25.1c9.8 1.3 22.4 18.2 22.5 18.3.2.3.5.5.9.5h14c.2 0 .4.1.5.1-.1.2-.2.5-.3.7-.1.3-.2.6-.2 1v.3c-.1.3-.1.7-.1 1.1 0 4 3.2 7.2 7.2 7.2h.8.2c.2 0 .3 0 .5-.1v6.7h-12.7c-.1-.1-.1-.3-.2-.4-.1-.2-.2-.3-.3-.5-.1-.1-.2-.3-.3-.4-.1-.2-.2-.3-.3-.5-.1-.1-.2-.3-.3-.4-.1-.2-.3-.3-.4-.4s-.2-.2-.3-.4c-.1-.1-.3-.3-.4-.4s-.2-.2-.4-.3-.3-.2-.5-.4c-.1-.1-.3-.2-.4-.3-.2-.1-.3-.2-.5-.3-.1-.1-.3-.2-.4-.2-.2-.1-.4-.2-.6-.3-.1-.1-.3-.1-.4-.2-.2-.1-.4-.1-.6-.2-.1-.1-.3-.1-.4-.2-.2-.1-.4-.1-.7-.2-.1 0-.3-.1-.4-.1-.2 0-.5-.1-.7-.1-.1 0-.3 0-.4-.1-.4 0-.8-.1-1.2-.1s-.8 0-1.2.1c-.1 0-.3 0-.4.1-.2 0-.5.1-.7.1-.1 0-.3.1-.4.1-.2.2-.4.2-.6.2s-.3.1-.5.2-.4.1-.6.2-.3.1-.4.2c-.2.1-.4.2-.5.3s-.3.2-.4.3c-.2.1-.3.2-.5.3-.1.1-.3.2-.4.3-.2.1-.3.2-.5.3-.1.1-.3.2-.4.3s-.3.3-.4.4-.2.2-.3.4c-.1.1-.3.3-.4.4s-.2.3-.3.4c-.1.2-.2.3-.3.5-.1.1-.2.3-.3.4-.1.2-.2.3-.3.5-.1.1-.1.3-.2.4h-23.8v-16.3h22.3c2 0 3.4-.7 3.9-1.9.5-1.3-.2-2.8-2-4.5l-.3-.3c-4.8-4.3-9.3-8.4-13.1-9.1-.1 0-.1 0-.2 0h-24.7c-2.2 0-3 .7-3.5 1.4-.9 1-4.1 4.8-7.6 8.4-1.1 1.1-2 2.8-1.4 4.3.5 1.2 1.8 1.8 3.9 1.8h20v16.4h-12.7c-.1-.1-.1-.3-.2-.4-.1-.2-.2-.3-.3-.5-.1-.1-.2-.3-.3-.4-.1-.2-.2-.3-.3-.5-.1-.1-.2-.3-.3-.4s-.3-.3-.4-.4-.2-.3-.3-.4-.3-.3-.4-.4-.2-.2-.4-.3-.3-.3-.5-.5c-.1-.1-.3-.2-.4-.3-.2-.1-.3-.2-.5-.3-.1-.1-.3-.2-.4-.3-.2-.1-.4-.2-.6-.3-.1-.1-.3-.1-.4-.2-.2-.1-.4-.1-.6-.2-.1-.1-.3-.1-.4-.2-.2-.1-.4-.1-.7-.2-.1 0-.3-.1-.4-.1-.2 0-.5-.1-.7-.1-.1 0-.3 0-.4-.1-.4 0-.8-.1-1.2-.1s-.8 0-1.2.1c-.1 0-.3 0-.4.1-.2 0-.5.1-.7.1-.1 0-.3.1-.4.1-.2.2-.4.2-.7.3-.1 0-.3.1-.4.2-.2.1-.4.1-.6.2-.1.1-.3.1-.4.2-.2.1-.4.2-.6.3-.1.1-.3.2-.4.3-.2.1-.3.2-.5.3-.1.1-.3.2-.4.3-.2.1-.3.2-.5.4-.1.1-.2.2-.4.3-.1.1-.3.3-.4.4s-.2.2-.3.4c-.1.1-.3.3-.4.4s-.2.3-.3.4c-.1.2-.2.3-.3.5-.1.1-.2.3-.3.4-.1.2-.2.3-.3.5-.1.1-.1.3-.2.4h-8.1v-7h4.1c.6 0 1.1-.5 1.1-1.1v-5.9c0-.6-.5-1.1-1.1-1.1h-4.1v-1.7c-.1-.6.2-.9.7-.9zm65.3 20.5c0 .2-.1.4-.1.6s0 .4 0 .5v.5h-36.3c0-.2 0-.3 0-.5s0-.4 0-.6-.1-.4-.1-.6-.1-.4-.1-.5-.1-.3-.1-.4h37c0 .1-.1.3-.1.4-.2.3-.2.5-.2.6zm-22.7-33h10.5c3.1.6 7.6 4.7 11.9 8.6l.3.3c1.3 1.2 1.5 1.9 1.4 2-.1.2-.7.5-1.8.5h-22.3zm-2.3 11.3h-20.5c-1.2 0-1.7-.3-1.8-.4-.1-.3.2-1.1.9-1.9 3.1-3.2 6.4-6.9 7.7-8.5.3-.3.5-.6 1.8-.6h11.9zm-41.1 5.9h2.9v3.6h-2.9zm0 16.6v-1.7h7.2c0 .1-.1.3-.1.4 0 .2-.1.4-.1.5 0 .2-.1.4-.1.6s0 .4 0 .5v.5h-6c-.6 0-.9-.3-.9-.8zm18.2 10.3c-4.8 0-8.7-3.7-9.1-8.4 0-.3 0-.5 0-.8 0-5 4.1-9.1 9.1-9.1s9.1 4.1 9.1 9.1v.8c-.4 4.7-4.3 8.4-9.1 8.4zm59.1 0c-4.8 0-8.7-3.7-9.1-8.4 0-.2 0-.5 0-.8 0-5 4.1-9.1 9.1-9.1s9.1 4.1 9.1 9.1v.8c-.4 4.7-4.3 8.4-9.1 8.4zm22.1-9.5h-10.7c0-.2 0-.3 0-.5s0-.4 0-.5c0-.2-.1-.4-.1-.6s-.1-.4-.1-.5-.1-.3-.1-.4h11.9v1.7c-.1.5-.4.8-.9.8z" fill="url(#a)"/></svg>