<svg height="54.5" viewBox="0 0 104.6 54.5" width="104.6" xmlns="http://www.w3.org/2000/svg"><path d="m23 60.1a5.6 5.6 0 1 0 5.6 5.6 5.59 5.59 0 0 0 -5.6-5.6zm0 9a3.4 3.4 0 1 1 3.4-3.4 3.37 3.37 0 0 1 -3.4 3.4zm59.1-9a5.6 5.6 0 1 0 5.6 5.6 5.59 5.59 0 0 0 -5.6-5.6zm0 9a3.4 3.4 0 1 1 3.4-3.4 3.37 3.37 0 0 1 -3.4 3.4zm-29.9-21.1h5.2v2.3h-5.2zm55.1 4.5c-.2-3.6-3.2-8.4-8.1-10.3a21.72 21.72 0 0 0 -2.4-.7h-13.7c-2.2-2.9-13.8-17.5-23.7-18.8h-25.2a9.72 9.72 0 0 0 -8 3.5c-2.7 3.3-9.2 10.4-12.4 12.8-1.8 1.4-6.4 2-8.1 2.1a3 3 0 0 0 -3 3.1v20.5a3.12 3.12 0 0 0 3.1 3.1h6.2a11.37 11.37 0 0 0 22.4 0h36.5a11.37 11.37 0 0 0 22.4 0h10.9a3.12 3.12 0 0 0 3.1-3.1zm-2.4-.8h-.1c-.1 0-.3.1-.4.1h-.8a5 5 0 0 1 -5-5 1.7 1.7 0 0 1 .1-.7v-.2a4.33 4.33 0 0 1 .1-.5c0-.1 0-.1.1-.2l.3-.6a11.09 11.09 0 0 1 5.7 7.1zm-99.3-8.4c.8-.1 6.8-.6 9.4-2.5 3.5-2.6 10.3-10.1 12.8-13.1 1-1.2 2.7-2.7 6.3-2.7h25.1c9.8 1.3 22.4 18.2 22.5 18.3a1.05 1.05 0 0 0 .9.5h14a4.33 4.33 0 0 1 .5.1c-.1.2-.2.5-.3.7a3 3 0 0 0 -.2 1v.3a3.75 3.75 0 0 0 -.1 1.1 7.17 7.17 0 0 0 7.2 7.2h1a.9.9 0 0 0 .5-.1v6.7h-12.7c-.1-.1-.1-.3-.2-.4s-.2-.3-.3-.5-.2-.3-.3-.4-.2-.3-.3-.5-.2-.3-.3-.4-.3-.3-.4-.4a1.38 1.38 0 0 1 -.3-.4l-.4-.4a1.38 1.38 0 0 0 -.4-.3 1.76 1.76 0 0 1 -.5-.4c-.1-.1-.3-.2-.4-.3s-.3-.2-.5-.3a.76.76 0 0 0 -.4-.2l-.6-.3c-.1-.1-.3-.1-.4-.2s-.4-.1-.6-.2-.3-.1-.4-.2a6.37 6.37 0 0 0 -.7-.2c-.1 0-.3-.1-.4-.1s-.5-.1-.7-.1a.6.6 0 0 1 -.4-.1c-.4 0-.8-.1-1.2-.1a4.87 4.87 0 0 0 -1.2.1.6.6 0 0 0 -.4.1c-.2 0-.5.1-.7.1s-.3.1-.4.1a.73.73 0 0 1 -.6.2c-.2 0-.3.1-.5.2s-.4.1-.6.2-.3.1-.4.2a2.19 2.19 0 0 0 -.5.3c-.1.1-.3.2-.4.3s-.3.2-.5.3-.3.2-.4.3-.3.2-.5.3-.3.2-.4.3l-.4.4a1.38 1.38 0 0 0 -.3.4l-.4.4c-.1.1-.2.3-.3.4s-.2.3-.3.5-.2.3-.3.4-.2.3-.3.5-.1.3-.2.4h-23.8v-16.3h22.3c2 0 3.4-.7 3.9-1.9s-.2-2.8-2-4.5l-.3-.3c-4.8-4.3-9.3-8.4-13.1-9.1h-24.9c-2.2 0-3 .7-3.5 1.4-.9 1-4.1 4.8-7.6 8.4-1.1 1.1-2 2.8-1.4 4.3q.75 1.8 3.9 1.8h20v16.4h-12.7c-.1-.1-.1-.3-.2-.4s-.2-.3-.3-.5-.2-.3-.3-.4-.2-.3-.3-.5-.2-.3-.3-.4l-.4-.4c-.1-.1-.2-.3-.3-.4l-.4-.4a1.38 1.38 0 0 0 -.4-.3c-.2-.1-.3-.3-.5-.5s-.3-.2-.4-.3-.3-.2-.5-.3-.3-.2-.4-.3l-.6-.3c-.1-.1-.3-.1-.4-.2s-.4-.1-.6-.2-.3-.1-.4-.2a6.37 6.37 0 0 0 -.7-.2c-.1 0-.3-.1-.4-.1s-.5-.1-.7-.1a.6.6 0 0 1 -.4-.1c-.4 0-.8-.1-1.2-.1a4.87 4.87 0 0 0 -1.2.1.6.6 0 0 0 -.4.1c-.2 0-.5.1-.7.1s-.3.1-.4.1c-.2.2-.4.2-.7.3a.76.76 0 0 0 -.4.2c-.2.1-.4.1-.6.2s-.3.1-.4.2l-.6.3c-.1.1-.3.2-.4.3s-.3.2-.5.3-.3.2-.4.3a1.76 1.76 0 0 0 -.5.4 1.38 1.38 0 0 1 -.4.3l-.4.4a1.38 1.38 0 0 0 -.3.4l-.4.4c-.1.1-.2.3-.3.4s-.2.3-.3.5-.2.3-.3.4-.2.3-.3.5-.1.3-.2.4h-8.1v-7h4.1a1.11 1.11 0 0 0 1.1-1.1v-5.9a1.11 1.11 0 0 0 -1.1-1.1h-4.1v-1.7c-.1-.6.2-.9.7-.9zm65.3 20.5c0 .2-.1.4-.1.6v1h-36.3v-1.1c0-.2-.1-.4-.1-.6a4.33 4.33 0 0 0 -.1-.5c0-.1-.1-.3-.1-.4h37c0 .1-.1.3-.1.4a1 1 0 0 0 -.2.6zm-22.7-33h10.5c3.1.6 7.6 4.7 11.9 8.6l.3.3c1.3 1.2 1.5 1.9 1.4 2s-.7.5-1.8.5h-22.3zm-2.3 11.3h-20.5a2.84 2.84 0 0 1 -1.8-.4 2.77 2.77 0 0 1 .9-1.9c3.1-3.2 6.4-6.9 7.7-8.5.3-.3.5-.6 1.8-.6h11.9zm-41.1 5.9h2.9v3.6h-2.9zm0 16.6v-1.7h7.2c0 .1-.1.3-.1.4a4.33 4.33 0 0 1 -.1.5c0 .2-.1.4-.1.6v1h-6c-.6 0-.9-.3-.9-.8zm18.2 10.3a9.15 9.15 0 0 1 -9.1-8.4v-.8a9.1 9.1 0 0 1 18.2 0v.8a9.15 9.15 0 0 1 -9.1 8.4zm59.1 0a9.15 9.15 0 0 1 -9.1-8.4v-.8a9.1 9.1 0 0 1 18.2 0v.8a9.15 9.15 0 0 1 -9.1 8.4zm22.1-9.5h-10.7v-1c0-.2-.1-.4-.1-.6a4.33 4.33 0 0 0 -.1-.5c0-.1-.1-.3-.1-.4h11.9v1.7a.88.88 0 0 1 -.9.8z" fill="#fff" transform="translate(-2.7 -22.7)"/></svg>