<svg version="1.1" id="about_car" xmlns="http://www.w3.org/2000/svg" xmlns:xlink="http://www.w3.org/1999/xlink" x="0px" y="0px"
	 width="110px" height="100px" viewBox="0 0 110 100" style="enable-background:new 0 0 110 100;" xml:space="preserve">
<style type="text/css">
	.st0-about_car{fill:url(#SVGID_1_);}
	.st1-about_car{fill:url(#SVGID_2_);}
	.st2-about_car{fill:url(#SVGID_3_);}
	.st3-about_car{fill:url(#SVGID_4_);}
	.st4-about_car{fill:url(#SVGID_5_);}
	.st5-about_car{fill:url(#SVGID_6_);}
	.st6-about_car{fill:url(#SVGID_7_);}
	.st7-about_car{fill:url(#SVGID_8_);}
</style>
<linearGradient id="SVGID_1_" gradientUnits="userSpaceOnUse" x1="21.6002" y1="24.0237" x2="85.4507" y2="87.8743">
	<stop  offset="0" style="stop-color:#109BFB"/>
	<stop  offset="1" style="stop-color:#1D3EC0"/>
</linearGradient>
<path class="st0-about_car" d="M23,60.1c-3.1,0-5.6,2.5-5.6,5.6s2.5,5.6,5.6,5.6s5.6-2.5,5.6-5.6C28.6,62.6,26.1,60.1,23,60.1z M23,69.1
	c-1.9,0-3.4-1.5-3.4-3.4s1.5-3.4,3.4-3.4s3.4,1.5,3.4,3.4S24.9,69.1,23,69.1z M82.1,60.1c-3.1,0-5.6,2.5-5.6,5.6s2.5,5.6,5.6,5.6
	s5.6-2.5,5.6-5.6S85.2,60.1,82.1,60.1z M82.1,69.1c-1.9,0-3.4-1.5-3.4-3.4s1.5-3.4,3.4-3.4s3.4,1.5,3.4,3.4S84,69.1,82.1,69.1z
	 M52.2,48h5.2v2.3h-5.2V48z M107.3,52.5L107.3,52.5L107.3,52.5C107.3,52.4,107.3,52.4,107.3,52.5L107.3,52.5L107.3,52.5
	c-0.2-3.6-3.2-8.4-8.1-10.3l0,0l0,0c-0.8-0.3-1.6-0.5-2.4-0.7c-0.1,0-0.1,0-0.2,0H83.1C80.9,38.6,69.3,24,59.4,22.7h-0.1H34.2
	c-3.4,0-6,1.1-8,3.5C23.5,29.5,17,36.6,13.8,39C12,40.4,7.4,41,5.7,41.1c-1.7,0-3,1.4-3,3.1V47v5.8v11.9c0,1.7,1.4,3.1,3.1,3.1H12
	c0.9,5.3,5.6,9.4,11.2,9.4c5.6,0,10.3-4.1,11.2-9.4h36.5c0.9,5.3,5.6,9.4,11.2,9.4c5.6,0,10.3-4.1,11.2-9.4h10.9
	c1.7,0,3.1-1.4,3.1-3.1V52.9C107.3,52.7,107.3,52.6,107.3,52.5z M104.9,51.7h-0.1c-0.1,0-0.3,0.1-0.4,0.1c-0.1,0-0.1,0-0.2,0
	c-0.2,0-0.4,0-0.6,0c-2.7,0-5-2.2-5-5c0-0.2,0-0.5,0.1-0.7c0-0.1,0-0.1,0-0.2c0-0.2,0.1-0.4,0.1-0.5s0-0.1,0.1-0.2
	c0.1-0.2,0.2-0.4,0.3-0.6C102.3,46.2,104.4,49.2,104.9,51.7z M5.6,43.3C5.6,43.3,5.7,43.3,5.6,43.3c0.8-0.1,6.8-0.6,9.4-2.5
	c3.5-2.6,10.3-10.1,12.8-13.1c1-1.2,2.7-2.7,6.3-2.7h25.1c9.8,1.3,22.4,18.2,22.5,18.3c0.2,0.3,0.5,0.5,0.9,0.5h14
	c0.2,0,0.4,0.1,0.5,0.1c-0.1,0.2-0.2,0.5-0.3,0.7l0,0c-0.1,0.3-0.2,0.6-0.2,1c0,0.1,0,0.2,0,0.3c-0.1,0.3-0.1,0.7-0.1,1.1
	c0,4,3.2,7.2,7.2,7.2c0.3,0,0.5,0,0.8,0c0.1,0,0.2,0,0.2,0c0.2,0,0.3,0,0.5-0.1v6.7H92.5c-0.1-0.1-0.1-0.3-0.2-0.4
	c-0.1-0.2-0.2-0.3-0.3-0.5c-0.1-0.1-0.2-0.3-0.3-0.4c-0.1-0.2-0.2-0.3-0.3-0.5c-0.1-0.1-0.2-0.3-0.3-0.4c-0.1-0.2-0.3-0.3-0.4-0.4
	c-0.1-0.1-0.2-0.2-0.3-0.4c-0.1-0.1-0.3-0.3-0.4-0.4c-0.1-0.1-0.2-0.2-0.4-0.3s-0.3-0.2-0.5-0.4c-0.1-0.1-0.3-0.2-0.4-0.3
	c-0.2-0.1-0.3-0.2-0.5-0.3c-0.1-0.1-0.3-0.2-0.4-0.2c-0.2-0.1-0.4-0.2-0.6-0.3c-0.1-0.1-0.3-0.1-0.4-0.2c-0.2-0.1-0.4-0.1-0.6-0.2
	c-0.1-0.1-0.3-0.1-0.4-0.2c-0.2-0.1-0.4-0.1-0.7-0.2c-0.1,0-0.3-0.1-0.4-0.1c-0.2,0-0.5-0.1-0.7-0.1c-0.1,0-0.3,0-0.4-0.1
	c-0.4,0-0.8-0.1-1.2-0.1s-0.8,0-1.2,0.1c-0.1,0-0.3,0-0.4,0.1c-0.2,0-0.5,0.1-0.7,0.1c-0.1,0-0.3,0.1-0.4,0.1
	C79.5,55,79.3,55,79.1,55c-0.2,0-0.3,0.1-0.5,0.2s-0.4,0.1-0.6,0.2c-0.2,0.1-0.3,0.1-0.4,0.2c-0.2,0.1-0.4,0.2-0.5,0.3
	c-0.1,0.1-0.3,0.2-0.4,0.3c-0.2,0.1-0.3,0.2-0.5,0.3c-0.1,0.1-0.3,0.2-0.4,0.3c-0.2,0.1-0.3,0.2-0.5,0.3c-0.1,0.1-0.3,0.2-0.4,0.3
	c-0.1,0.1-0.3,0.3-0.4,0.4c-0.1,0.1-0.2,0.2-0.3,0.4c-0.1,0.1-0.3,0.3-0.4,0.4c-0.1,0.1-0.2,0.3-0.3,0.4c-0.1,0.2-0.2,0.3-0.3,0.5
	c-0.1,0.1-0.2,0.3-0.3,0.4c-0.1,0.2-0.2,0.3-0.3,0.5c-0.1,0.1-0.1,0.3-0.2,0.4H48.6V44.5h22.3c2,0,3.4-0.7,3.9-1.9
	c0.5-1.3-0.2-2.8-2-4.5l-0.3-0.3c-4.8-4.3-9.3-8.4-13.1-9.1c-0.1,0-0.1,0-0.2,0H34.5c-2.2,0-3,0.7-3.5,1.4c-0.9,1-4.1,4.8-7.6,8.4
	c-1.1,1.1-2,2.8-1.4,4.3c0.5,1.2,1.8,1.8,3.9,1.8h20V61H33.2c-0.1-0.1-0.1-0.3-0.2-0.4c-0.1-0.2-0.2-0.3-0.3-0.5
	c-0.1-0.1-0.2-0.3-0.3-0.4c-0.1-0.2-0.2-0.3-0.3-0.5c-0.1-0.1-0.2-0.3-0.3-0.4c-0.1-0.1-0.3-0.3-0.4-0.4c-0.1-0.1-0.2-0.3-0.3-0.4
	c-0.1-0.1-0.3-0.3-0.4-0.4c-0.1-0.1-0.2-0.2-0.4-0.3S30,57,29.8,56.8c-0.1-0.1-0.3-0.2-0.4-0.3c-0.2-0.1-0.3-0.2-0.5-0.3
	c-0.1-0.1-0.3-0.2-0.4-0.3c-0.2-0.1-0.4-0.2-0.6-0.3c-0.1-0.1-0.3-0.1-0.4-0.2c-0.2-0.1-0.4-0.1-0.6-0.2c-0.1-0.1-0.3-0.1-0.4-0.2
	c-0.2-0.1-0.4-0.1-0.7-0.2c-0.1,0-0.3-0.1-0.4-0.1c-0.2,0-0.5-0.1-0.7-0.1c-0.1,0-0.3,0-0.4-0.1c-0.4,0-0.8-0.1-1.2-0.1
	s-0.8,0-1.2,0.1c-0.1,0-0.3,0-0.4,0.1c-0.2,0-0.5,0.1-0.7,0.1c-0.1,0-0.3,0.1-0.4,0.1C20.2,55,20,55,19.7,55.1
	c-0.1,0-0.3,0.1-0.4,0.2c-0.2,0.1-0.4,0.1-0.6,0.2c-0.1,0.1-0.3,0.1-0.4,0.2c-0.2,0.1-0.4,0.2-0.6,0.3c-0.1,0.1-0.3,0.2-0.4,0.3
	c-0.2,0.1-0.3,0.2-0.5,0.3c-0.1,0.1-0.3,0.2-0.4,0.3c-0.2,0.1-0.3,0.2-0.5,0.4c-0.1,0.1-0.2,0.2-0.4,0.3c-0.1,0.1-0.3,0.3-0.4,0.4
	c-0.1,0.1-0.2,0.2-0.3,0.4c-0.1,0.1-0.3,0.3-0.4,0.4c-0.1,0.1-0.2,0.3-0.3,0.4c-0.1,0.2-0.2,0.3-0.3,0.5c-0.1,0.1-0.2,0.3-0.3,0.4
	c-0.1,0.2-0.2,0.3-0.3,0.5c-0.1,0.1-0.1,0.3-0.2,0.4H4.9v-7H9c0.6,0,1.1-0.5,1.1-1.1v-5.9c0-0.6-0.5-1.1-1.1-1.1H4.9v-1.7
	C4.8,43.6,5.1,43.3,5.6,43.3z M70.9,63.8c0,0.2-0.1,0.4-0.1,0.6s0,0.4,0,0.5c0,0.2,0,0.3,0,0.5H34.5c0-0.2,0-0.3,0-0.5
	c0-0.2,0-0.4,0-0.6s-0.1-0.4-0.1-0.6c0-0.2-0.1-0.4-0.1-0.5s-0.1-0.3-0.1-0.4h37c0,0.1-0.1,0.3-0.1,0.4
	C70.9,63.5,70.9,63.7,70.9,63.8z M48.2,30.8h10.5c3.1,0.6,7.6,4.7,11.9,8.6l0.3,0.3c1.3,1.2,1.5,1.9,1.4,2c-0.1,0.2-0.7,0.5-1.8,0.5
	H48.2L48.2,30.8L48.2,30.8z M45.9,42.1H25.4c-1.2,0-1.7-0.3-1.8-0.4c-0.1-0.3,0.2-1.1,0.9-1.9c3.1-3.2,6.4-6.9,7.7-8.5
	c0.3-0.3,0.5-0.6,1.8-0.6h11.9V42.1z M4.8,48h2.9v3.6H4.8V48z M4.8,64.6v-1.7H12c0,0.1-0.1,0.3-0.1,0.4c0,0.2-0.1,0.4-0.1,0.5
	c0,0.2-0.1,0.4-0.1,0.6s0,0.4,0,0.5c0,0.2,0,0.3,0,0.5h-6C5.1,65.4,4.8,65.1,4.8,64.6z M23,74.9c-4.8,0-8.7-3.7-9.1-8.4l0,0
	c0-0.3,0-0.5,0-0.8c0-5,4.1-9.1,9.1-9.1s9.1,4.1,9.1,9.1c0,0.3,0,0.5,0,0.8l0,0C31.7,71.2,27.8,74.9,23,74.9z M82.1,74.9
	c-4.8,0-8.7-3.7-9.1-8.4l0,0c0-0.2,0-0.5,0-0.8c0-5,4.1-9.1,9.1-9.1s9.1,4.1,9.1,9.1c0,0.3,0,0.5,0,0.8l0,0
	C90.8,71.2,86.9,74.9,82.1,74.9z M104.2,65.4H93.5c0-0.2,0-0.3,0-0.5c0-0.2,0-0.4,0-0.5c0-0.2-0.1-0.4-0.1-0.6
	c0-0.2-0.1-0.4-0.1-0.5s-0.1-0.3-0.1-0.4h11.9v1.7C105,65.1,104.7,65.4,104.2,65.4z"/>
</svg>
