<svg height="59.25" viewBox="0 0 93.28 59.25" width="93.28" xmlns="http://www.w3.org/2000/svg"><g transform="translate(-17.12 -9.18)"><path d="m17.19 37.32c-.97 12.48 7.23 24.68 18.81 29.13s26.34 1.41 33.7-9c4.87-6.55 5.92-15 5.35-22.91-9.45-.07-18.88-.05-28.32 0q0 5 0 10.1c5.64.18 11.3.1 16.94.18-2.49 12.52-19.52 16.58-28.53 8.4-9.26-7.17-8.82-22.9.81-29.56 6.73-5.38 16.31-4.05 23 .61a106.09 106.09 0 0 0 7.51-7.78c-5.6-4.47-12.47-7.66-19.79-7.32-15.19-.47-29.22 12.89-29.48 28.15z"/><path d="m93.46 26.07c0 2.81 0 5.63-.07 8.45-2.83 0-5.64 0-8.45.06v8.42l8.45.08c0 2.82 0 5.63.06 8.45h8.43c0-2.82 0-5.63.06-8.46l8.46-.07v-8.42c-2.82 0-5.65 0-8.46-.06 0-2.81 0-5.64-.06-8.45z"/></g></svg>