<svg id="google" data-name="Layer 1" xmlns="http://www.w3.org/2000/svg" width="93.28" height="59.25" viewBox="0 0 93.28 59.25">
  <defs>
    <style>
      
    </style>
  </defs>
  <title>googpleplus</title>
  <g>
    <path class="google-cls-1" d="M17.19,37.32C16.22,49.8,24.42,62,36,66.45s26.34,1.41,33.7-9c4.87-6.55,5.92-15,5.35-22.91-9.45-.07-18.88-.05-28.32,0q0,5,0,10.1c5.64.18,11.3.1,16.94.18-2.49,12.52-19.52,16.58-28.53,8.4-9.26-7.17-8.82-22.9.81-29.56,6.73-5.38,16.31-4.05,23,.61a106.09,106.09,0,0,0,7.51-7.78c-5.6-4.47-12.47-7.66-19.79-7.32C31.48,8.7,17.45,22.06,17.19,37.32Z" transform="translate(-17.12 -9.18)"/>
    <path class="google-cls-1" d="M93.46,26.07c0,2.81,0,5.63-.07,8.45-2.83,0-5.64,0-8.45.06V43l8.45.08c0,2.82,0,5.63.06,8.45h8.43c0-2.82,0-5.63.06-8.46L110.4,43V34.58c-2.82,0-5.65,0-8.46-.06,0-2.81,0-5.64-.06-8.45Z" transform="translate(-17.12 -9.18)"/>
  </g>
</svg>
