<svg version="1.1" id="texas_label" xmlns="http://www.w3.org/2000/svg" xmlns:xlink="http://www.w3.org/1999/xlink" x="0px"
	 y="0px" width="694px" height="615.6px" viewBox="0 0 694 615.6" style="enable-background:new 0 0 694 615.6;"
	 xml:space="preserve">
<style type="text/css">
	.st0{fill:url(#SVGID_1_);}
	.st1{fill:#FFFFFF;}
</style>
<g>
	<linearGradient id="SVGID_1_" gradientUnits="userSpaceOnUse" x1="186.6239" y1="153.9113" x2="494.4464" y2="461.7338">
		<stop  offset="0" style="stop-color:#109BFB"/>
		<stop  offset="1" style="stop-color:#1D3EC0"/>
	</linearGradient>
	<path class="st0" d="M135.4,205.1L340.5,0l207.1,207.1l-17,4.3L340.5,21.2L151.7,210.1L135.4,205.1z M627.1,307.8L340.5,594.4
		L53.9,307.8l64.1-64.1l-15.5-5.7l-69.8,69.8l307.8,307.8l307.8-307.8l-67.1-67.1l-16.3,4.9L627.1,307.8z"/>
	<g>
		<g>
			<path class="st1" d="M691,131.4c-1.1-0.5-2.4,0.1-3.1,1.5c0-0.1-1,2.1-3.2,5.9c-1-0.2-2.1,0.4-2.6,1.5c0-0.2-2.6,5.8-8.8,14.1
				c-4.6,6.2-11.4,13.8-20.6,21.1c-21.2,17.4-54.8,31.6-89.8,39.9c-35,8.5-71.3,12-99.1,13.3c-13.9,0.7-25.8,0.8-34.4,0.8
				c-4.3,0-7.9,0-10.5-0.1c-1.3,0-2.4,0-3.2,0c-0.8,0-1.4,0-1.8,0c-5.7,0.1-10.8,2.4-14.5,5.9c-0.3,0.2-0.5,0.5-0.7,0.7
				c-3.3,3.4-5.3,7.9-5.4,12.8c0,5.3,2.3,10.1,6.2,13.6c1.6,1.4,3.4,2.6,5.4,3.5c-4.7-0.6-9-2.6-12.1-5.5c-4-3.6-6.5-8.7-6.4-14.2
				c0-3.3,0.9-6.4,2.4-9.1c-0.7,0.1-1.5,0.1-2.5,0.1c-2.5,0-5.5-0.3-8.6-0.7c-7.5-4.4-18.5-7.2-30.7-7.2c-12.2,0-23.1,2.8-30.7,7.2
				c-3.2,0.4-6.2,0.7-8.6,0.7c-1,0-1.8-0.1-2.5-0.1c1.5,2.7,2.4,5.8,2.4,9.1c0,5.5-2.4,10.5-6.4,14.2c-3.2,2.9-7.4,4.8-12.1,5.5
				c2-0.9,3.9-2.1,5.4-3.5c3.9-3.5,6.2-8.3,6.2-13.6c0-4.9-2.1-9.4-5.4-12.8c-0.2-0.2-0.5-0.5-0.7-0.7c-3.7-3.5-8.8-5.7-14.5-5.9
				c-0.4,0-1,0-1.8,0c-0.8,0-1.9,0-3.2,0c-2.6,0-6.1,0.1-10.5,0.1c-8.7,0-20.5-0.1-34.4-0.8c-27.8-1.3-64.1-4.8-99.1-13.3
				c-35-8.3-68.6-22.5-89.8-39.9c-9.3-7.3-16-14.9-20.6-21.1c-6.2-8.3-8.7-14.3-8.8-14.1l-1.2,0.8c-0.5-0.8-1-1.6-1.4-2.3
				c-2.2-3.7-3.2-6-3.2-5.9c-0.7-1.3-2-2-3.1-1.5c-1.1,0.5-1.4,2.1-0.9,3.6c0.1-0.1,3.4,10.8,13.9,25.4c2.9,4.1,6.3,8.3,10.3,12.6
				c10.3,12.5,25.7,26,44.5,37.2c44.2,27.1,104.4,42.7,148.2,50.1c29.3,5,51.5,6.9,58.3,7.3c0.9,0.1,1.5,0.1,1.9,0.1
				c1,0,1.9,0,2.8-0.1c4.2,2.4,9.2,5,10.9,8.1c2.8,4.7-0.7,4.8-1.4,9.5c-0.7,4.7,0.7,7.5,0,10.2c-0.7,2.6-13.3,10.9-12.6,19.4
				s9.1,23.2,13.3,25.3c4.2,2.1,8.4,6.3,11.2,11.6c2.8,5.3,0,17.9,4.9,28.4c4.9,10.5,14.7,24.3,16.1,34.8c1.4,10.5,0,27.4,0,31.1
				s2.8,17.9,19.6,17.4c0,0,1.6-2.3,1.6-3c0-0.2,0.5-16.6,1.2-19.1c0.7,2.5,1.2,18.9,1.2,19.1c0,0.8,1.6,3,1.6,3
				c16.8,0.5,19.6-13.7,19.6-17.4s-1.4-20.6,0-31.1c1.4-10.5,11.2-24.3,16.1-34.8c4.9-10.5,2.1-23.1,4.9-28.4
				c2.8-5.3,7-9.5,11.2-11.6c4.2-2.1,12.6-16.9,13.3-25.3c0.7-8.4-11.9-16.7-12.6-19.4c-0.7-2.6,0.7-5.4,0-10.2
				c-0.7-4.7-4.2-4.8-1.4-9.5c1.8-3,6.7-5.6,10.9-8.1c0.9,0.1,1.9,0.1,2.8,0.1c0.4,0,1,0,1.9-0.1c6.7-0.5,29-2.3,58.3-7.3
				c43.8-7.4,104-23,148.2-50.1c18.8-11.3,34.3-24.8,44.5-37.2c4-4.3,7.5-8.6,10.3-12.6c10.5-14.6,13.8-25.5,13.9-25.4
				C692.4,133.5,692,131.9,691,131.4z"/>
		</g>
	</g>
</g>
</svg>
