<?xml version="1.0" encoding="utf-8"?>
<!-- Generator: Adobe Illustrator 22.1.0, SVG Export Plug-In . SVG Version: 6.00 Build 0)  -->
<svg version="1.1" id="Capa_1" xmlns="http://www.w3.org/2000/svg" xmlns:xlink="http://www.w3.org/1999/xlink" x="0px" y="0px"
	 width="43.8px" height="33px" viewBox="0 0 43.8 33" style="enable-background:new 0 0 43.8 33;" xml:space="preserve">
<style type="text/css">
	.st0{fill:url(#SVGID_1_);}
</style>
<linearGradient id="SVGID_1_" gradientUnits="userSpaceOnUse" x1="3.0183" y1="-2.3738" x2="40.7942" y2="35.4021">
	<stop  offset="0" style="stop-color:#109BFB"/>
	<stop  offset="1" style="stop-color:#364EA1"/>
</linearGradient>
<path class="st0" d="M42.7,0H1.1C0.5,0,0,0.5,0,1.1v30.8C0,32.5,0.5,33,1.1,33h41.6c0.6,0,1.1-0.5,1.1-1.1V1.1
	C43.8,0.5,43.3,0,42.7,0z M13.8,17.6l4.8,4.4c1,1,2.1,1.5,3.3,1.5c1.2,0,2.3-0.5,3.2-1.5l4.9-4.5l10.5,13.3H3.4L13.8,17.6z
	 M2.2,28.8V6.9l10,9.2L2.2,28.8z M31.6,16.1l10-9.2v21.9L31.6,16.1z M41.6,2.2v1.7l-18,16.6c-1.1,1.1-2.2,1.2-3.4,0L2.2,3.9V2.2
	H41.6z"/>
</svg>
