<svg id="Capa_1" data-name="Capa 1" xmlns="http://www.w3.org/2000/svg" width="43.8" height="33" viewBox="0 0 43.8 33">
  <defs>
    <style>
      .cls-1 {
        fill: #fff;
      }
    </style>
  </defs>
  <title>ico-email-white</title>
  <path class="cls-1" d="M42.7,0H1.1A1.11,1.11,0,0,0,0,1.1V31.9A1.11,1.11,0,0,0,1.1,33H42.7a1.11,1.11,0,0,0,1.1-1.1V1.1A1.11,1.11,0,0,0,42.7,0ZM13.8,17.6,18.6,22a4.59,4.59,0,0,0,3.3,1.5A4.22,4.22,0,0,0,25.1,22L30,17.5,40.5,30.8H3.4ZM2.2,28.8V6.9l10,9.2ZM31.6,16.1l10-9.2V28.8Zm10-13.9V3.9l-18,16.6a2.11,2.11,0,0,1-3.4,0L2.2,3.9V2.2Z"/>
</svg>
