<svg enable-background="new 0 0 936.4 148.1" height="148.1" viewBox="0 0 936.4 148.1" width="936.4" xmlns="http://www.w3.org/2000/svg" xmlns:xlink="http://www.w3.org/1999/xlink"><linearGradient id="a" gradientUnits="userSpaceOnUse" x1="0" x2="936.3909" y1="74.0729" y2="74.0729"><stop offset="0" stop-color="#109bfb"/><stop offset="1" stop-color="#1d3ec0"/></linearGradient><path clip-rule="evenodd" d="m154.9 93.2-39.1-16.8 14.6-14.1-36.6-5.4-1-2.1 34.1-53.1-38.6 44-10.8-22-10.2 20.5-36.2-44.2 31.7 53.3-1.7 3.5-36.6 5.3 13.8 13.5-38.3 15 43.6-9.9 7.4 7.2-6.3 36.4 29.6-15.5 2.3 39.3 3.6-39.5 29.9 15.8-6.2-36.4 6.7-6.5zm195.4 0-39.1-16.8 14.6-14.1-36.6-5.4-1-2.1 34.1-53.1-38.6 44-10.8-21.9-10.2 20.5-36.2-44.3 31.7 53.3-1.7 3.5-36.6 5.3 13.8 13.5-38.3 15 43.6-9.9 7.4 7.2-6.3 36.4 29.6-15.5 2.3 39.3 3.6-39.5 29.9 15.8-6.2-36.4 6.7-6.5zm195.4 0-39.1-16.8 14.6-14.1-36.6-5.4-1-2.1 34.1-53.1-38.6 44-10.8-21.9-10.2 20.5-36.2-44.3 31.7 53.3-1.7 3.5-36.6 5.3 13.8 13.5-38.3 15 43.6-9.9 7.4 7.2-6.3 36.4 29.6-15.5 2.3 39.3 3.6-39.5 29.9 15.8-6.3-36.4 6.7-6.5zm195.3 0-39-16.8 14.6-14.1-36.6-5.4-1-2.1 34-53.2-38.6 44-10.8-21.9-10.2 20.5-36.2-44.2 31.7 53.3-1.7 3.5-36.6 5.3 13.8 13.5-38.3 15 43.6-9.9 7.4 7.2-6.3 36.4 29.6-15.5 2.3 39.3 3.6-39.5 29.9 15.8-6.2-36.4 6.7-6.5zm144.4-5.2 6.7-6.5 44.4 11.6-39.1-16.8 14.6-14.1-36.6-5.4-1-2.1 34.1-53.1-38.6 44-10.9-21.9-10.2 20.5-36.2-44.2 31.7 53.3-1.7 3.5-36.6 5.3 13.8 13.5-38.3 15 43.6-9.9 7.4 7.2-6.3 36.4 29.6-15.5 2.3 39.3 3.6-39.5 29.9 15.8z" fill="url(#a)" fill-rule="evenodd"/></svg>