<?xml version="1.0" encoding="utf-8"?>
<!-- Generator: Adobe Illustrator 22.1.0, SVG Export Plug-In . SVG Version: 6.00 Build 0)  -->
<svg version="1.1" id="texas_label" xmlns="http://www.w3.org/2000/svg" xmlns:xlink="http://www.w3.org/1999/xlink" x="0px"
	 y="0px" width="936.4px" height="148.1px" viewBox="0 0 936.4 148.1" style="enable-background:new 0 0 936.4 148.1;"
	 xml:space="preserve">
<style type="text/css">
	.st0{fill-rule:evenodd;clip-rule:evenodd;fill:url(#SVGID_1_);}
</style>
<linearGradient id="SVGID_1_" gradientUnits="userSpaceOnUse" x1="0" y1="74.0729" x2="936.3909" y2="74.0729">
	<stop  offset="0" style="stop-color:#109BFB"/>
	<stop  offset="1" style="stop-color:#1D3EC0"/>
</linearGradient>
<path class="st0" d="M31.1,0L31.1,0L31.1,0L31.1,0z M154.9,93.2l-39.1-16.8l14.6-14.1l-36.6-5.4l-1-2.1l34.1-53.1l-38.6,44
	L77.5,23.7L67.3,44.2L31.1,0l31.7,53.3l-1.7,3.5l-36.6,5.3l13.8,13.5L0,90.6l43.6-9.9l7.4,7.2l-6.3,36.4l29.6-15.5l2.3,39.3
	l3.6-39.5l29.9,15.8L103.9,88l6.7-6.5L154.9,93.2z M226.5,0L226.5,0L226.5,0L226.5,0z M350.3,93.2l-39.1-16.8l14.6-14.1l-36.6-5.4
	l-1-2.1l34.1-53.1l-38.6,44l-10.8-21.9l-10.2,20.5L226.5,0l31.7,53.3l-1.7,3.5l-36.6,5.3l13.8,13.5l-38.3,15l43.6-9.9l7.4,7.2
	l-6.3,36.4l29.6-15.5l2.3,39.3l3.6-39.5l29.9,15.8L299.3,88l6.7-6.5L350.3,93.2z M421.9,0L421.9,0L421.9,0L421.9,0z M545.7,93.2
	l-39.1-16.8l14.6-14.1l-36.6-5.4l-1-2.1l34.1-53.1l-38.6,44l-10.8-21.9l-10.2,20.5L421.9,0l31.7,53.3l-1.7,3.5l-36.6,5.3l13.8,13.5
	l-38.3,15l43.6-9.9l7.4,7.2l-6.3,36.4l29.6-15.5l2.3,39.3l3.6-39.5l29.9,15.8L494.6,88l6.7-6.5L545.7,93.2z M741,93.2L702,76.4
	l14.6-14.1l-36.6-5.4l-1-2.1L713,1.6l-38.6,44l-10.8-21.9l-10.2,20.5L617.2,0l31.7,53.3l-1.7,3.5l-36.6,5.3l13.8,13.5l-38.3,15
	l43.6-9.9l7.4,7.2l-6.3,36.4l29.6-15.5l2.3,39.3l3.6-39.5l29.9,15.8L690,88l6.7-6.5L741,93.2z M617.2,0L617.2,0L617.2,0L617.2,0z
	 M812.6,0L812.6,0L812.6,0L812.6,0z M885.4,88l6.7-6.5l44.4,11.6l-39.1-16.8l14.6-14.1l-36.6-5.4l-1-2.1l34.1-53.1l-38.6,44
	L859,23.7l-10.2,20.5L812.6,0l31.7,53.3l-1.7,3.5L806,62.1l13.8,13.5l-38.3,15l43.6-9.9l7.4,7.2l-6.3,36.4l29.6-15.5l2.3,39.3
	l3.6-39.5l29.9,15.8L885.4,88z"/>
</svg>
