<svg enable-background="new 0 0 43.8 33" height="33" viewBox="0 0 43.8 33" width="43.8" xmlns="http://www.w3.org/2000/svg" xmlns:xlink="http://www.w3.org/1999/xlink"><linearGradient id="a" gradientUnits="userSpaceOnUse" x1="3.0183" x2="40.7942" y1="-2.3738" y2="35.4021"><stop offset="0" stop-color="#109bfb"/><stop offset="1" stop-color="#364ea1"/></linearGradient><path d="m42.7 0h-41.6c-.6 0-1.1.5-1.1 1.1v30.8c0 .6.5 1.1 1.1 1.1h41.6c.6 0 1.1-.5 1.1-1.1v-30.8c0-.6-.5-1.1-1.1-1.1zm-28.9 17.6 4.8 4.4c1 1 2.1 1.5 3.3 1.5s2.3-.5 3.2-1.5l4.9-4.5 10.5 13.3h-37.1zm-11.6 11.2v-21.9l10 9.2zm29.4-12.7 10-9.2v21.9zm10-13.9v1.7l-18 16.6c-1.1 1.1-2.2 1.2-3.4 0l-18-16.6v-1.7z" fill="url(#a)"/></svg>