<svg enable-background="new 0 0 694 615.6" height="615.6" viewBox="0 0 694 615.6" width="694" xmlns="http://www.w3.org/2000/svg" xmlns:xlink="http://www.w3.org/1999/xlink"><linearGradient id="a" gradientUnits="userSpaceOnUse" x1="186.6239" x2="494.4464" y1="153.9113" y2="461.7338"><stop offset="0" stop-color="#109bfb"/><stop offset="1" stop-color="#1d3ec0"/></linearGradient><path d="m135.4 205.1 205.1-205.1 207.1 207.1-17 4.3-190.1-190.2-188.8 188.9zm491.7 102.7-286.6 286.6-286.6-286.6 64.1-64.1-15.5-5.7-69.8 69.8 307.8 307.8 307.8-307.8-67.1-67.1-16.3 4.9z" fill="url(#a)"/><path d="m691 131.4c-1.1-.5-2.4.1-3.1 1.5 0-.1-1 2.1-3.2 5.9-1-.2-2.1.4-2.6 1.5 0-.2-2.6 5.8-8.8 14.1-4.6 6.2-11.4 13.8-20.6 21.1-21.2 17.4-54.8 31.6-89.8 39.9-35 8.5-71.3 12-99.1 13.3-13.9.7-25.8.8-34.4.8-4.3 0-7.9 0-10.5-.1-1.3 0-2.4 0-3.2 0s-1.4 0-1.8 0c-5.7.1-10.8 2.4-14.5 5.9-.3.2-.5.5-.7.7-3.3 3.4-5.3 7.9-5.4 12.8 0 5.3 2.3 10.1 6.2 13.6 1.6 1.4 3.4 2.6 5.4 3.5-4.7-.6-9-2.6-12.1-5.5-4-3.6-6.5-8.7-6.4-14.2 0-3.3.9-6.4 2.4-9.1-.7.1-1.5.1-2.5.1-2.5 0-5.5-.3-8.6-.7-7.5-4.4-18.5-7.2-30.7-7.2s-23.1 2.8-30.7 7.2c-3.2.4-6.2.7-8.6.7-1 0-1.8-.1-2.5-.1 1.5 2.7 2.4 5.8 2.4 9.1 0 5.5-2.4 10.5-6.4 14.2-3.2 2.9-7.4 4.8-12.1 5.5 2-.9 3.9-2.1 5.4-3.5 3.9-3.5 6.2-8.3 6.2-13.6 0-4.9-2.1-9.4-5.4-12.8-.2-.2-.5-.5-.7-.7-3.7-3.5-8.8-5.7-14.5-5.9-.4 0-1 0-1.8 0s-1.9 0-3.2 0c-2.6 0-6.1.1-10.5.1-8.7 0-20.5-.1-34.4-.8-27.8-1.3-64.1-4.8-99.1-13.3-35-8.3-68.6-22.5-89.8-39.9-9.3-7.3-16-14.9-20.6-21.1-6.2-8.3-8.7-14.3-8.8-14.1l-1.2.8c-.5-.8-1-1.6-1.4-2.3-2.2-3.7-3.2-6-3.2-5.9-.7-1.3-2-2-3.1-1.5s-1.4 2.1-.9 3.6c.1-.1 3.4 10.8 13.9 25.4 2.9 4.1 6.3 8.3 10.3 12.6 10.3 12.5 25.7 26 44.5 37.2 44.2 27.1 104.4 42.7 148.2 50.1 29.3 5 51.5 6.9 58.3 7.3.9.1 1.5.1 1.9.1 1 0 1.9 0 2.8-.1 4.2 2.4 9.2 5 10.9 8.1 2.8 4.7-.7 4.8-1.4 9.5s.7 7.5 0 10.2c-.7 2.6-13.3 10.9-12.6 19.4s9.1 23.2 13.3 25.3 8.4 6.3 11.2 11.6 0 17.9 4.9 28.4 14.7 24.3 16.1 34.8 0 27.4 0 31.1 2.8 17.9 19.6 17.4c0 0 1.6-2.3 1.6-3 0-.2.5-16.6 1.2-19.1.7 2.5 1.2 18.9 1.2 19.1 0 .8 1.6 3 1.6 3 16.8.5 19.6-13.7 19.6-17.4s-1.4-20.6 0-31.1 11.2-24.3 16.1-34.8 2.1-23.1 4.9-28.4 7-9.5 11.2-11.6 12.6-16.9 13.3-25.3-11.9-16.7-12.6-19.4c-.7-2.6.7-5.4 0-10.2-.7-4.7-4.2-4.8-1.4-9.5 1.8-3 6.7-5.6 10.9-8.1.9.1 1.9.1 2.8.1.4 0 1 0 1.9-.1 6.7-.5 29-2.3 58.3-7.3 43.8-7.4 104-23 148.2-50.1 18.8-11.3 34.3-24.8 44.5-37.2 4-4.3 7.5-8.6 10.3-12.6 10.5-14.6 13.8-25.5 13.9-25.4.9-1.5.5-3.1-.5-3.6z" fill="#fff"/></svg>