<svg height="52.76" viewBox="0 0 739.53 52.76" width="739.53" xmlns="http://www.w3.org/2000/svg"><g fill="#fff" transform="translate(-11.02 -18.9)"><path d="m168 18.9h2.7v2.88c0 2.1-1.14 3.18-3.36 3.18h-2.7v-2.88c.02-2.08 1.16-3.18 3.36-3.18zm-3.34 14.1c0-2.1 1.14-3.18 3.36-3.18h2.7v30.48h-2.72c-2.22 0-3.36-1.08-3.36-3.18z"/><path d="m186.09 54.12a4.33 4.33 0 0 0 2.88 1v2.76a2.28 2.28 0 0 1 -1.81 2.51 3.94 3.94 0 0 1 -3.06-.39 8.69 8.69 0 0 1 -3.84-3.36 11.19 11.19 0 0 1 -1.62-6.18v-28.38c0-2.1 1.14-3.18 3.36-3.18h2.7v31.62a4.5 4.5 0 0 0 1.39 3.6z"/><path d="m217.27 32.39a11.38 11.38 0 0 1 4.5 9.12v18.79h-1.77a3.71 3.71 0 0 1 -3.42-2.46 13.26 13.26 0 0 1 -9.36 3.36 15.26 15.26 0 0 1 -10.1-3.54 11.25 11.25 0 0 1 -4.5-9.06v-7.08a11.4 11.4 0 0 1 4.5-9.13 15.31 15.31 0 0 1 10.08-3.54 15.55 15.55 0 0 1 10.07 3.54zm-10.08 2.53a9.4 9.4 0 0 0 -6.19 2.16 5.66 5.66 0 0 0 -2.28 4.44v7.08a5.72 5.72 0 0 0 2.28 4.4 10.32 10.32 0 0 0 12.48 0 5.63 5.63 0 0 0 2.28-4.44v-7.04a5.66 5.66 0 0 0 -2.28-4.44 9.4 9.4 0 0 0 -6.29-2.16z"/><path d="m265.39 33c0-2.1 1.14-3.18 3.36-3.18h2.7v18.78q0 5.85-3.24 9.18a12 12 0 0 1 -9 3.42 11.66 11.66 0 0 1 -9.21-3.9 11.82 11.82 0 0 1 -9.18 3.9q-5.76 0-9-3.42t-3.24-9.18v-15.6c0-2.1 1.14-3.18 3.36-3.18h2.7v18.78c0 2.28.54 4 1.56 5a6.12 6.12 0 0 0 4.62 1.56 6 6 0 0 0 4.44-1.62 6.81 6.81 0 0 0 1.74-4.92v-15.62c0-2.1 1.14-3.18 3.36-3.18h2.64v18.78a6.83 6.83 0 0 0 1.74 4.92 6 6 0 0 0 4.44 1.62 6.2 6.2 0 0 0 4.62-1.56c1-1 1.56-2.7 1.56-5v-15.58z"/><path d="m305.29 29.82-11.88 33.48c-.3.78-.6 1.5-.9 2.28a10.1 10.1 0 0 1 -1 2 8.76 8.76 0 0 1 -3.42 3 4.86 4.86 0 0 1 -3.12.36 2.29 2.29 0 0 1 -1.8-2.52v-2.78a4.78 4.78 0 0 0 2-.48 2.48 2.48 0 0 0 1.5-1.5l1.2-3.06a4.71 4.71 0 0 1 -3.66-2.94l-8.94-25.08a2.16 2.16 0 0 1 0-1.92 1.82 1.82 0 0 1 1.74-.84h3.78l8.94 25.18h.06l8.21-22.9a3.16 3.16 0 0 1 3.18-2.28h4.16z"/><path d="m330 30.39a13.13 13.13 0 0 1 3.78 3.18 8.87 8.87 0 0 1 1.68 5.28 8.89 8.89 0 0 1 -1 4.5 9 9 0 0 1 -2.58 2.88 10.65 10.65 0 0 1 -3.71 1.77 13.55 13.55 0 0 1 -4 .54h-7.32a5.45 5.45 0 0 1 -1.14-.06 2.33 2.33 0 0 1 -1-.48v2.52a3.83 3.83 0 0 0 2.16 3.42 8.53 8.53 0 0 0 4.14 1.2 12 12 0 0 0 4.38-.3 6.32 6.32 0 0 0 3.66-2q1.35-1.62 3.6-.54l2.94 1.44a10.58 10.58 0 0 1 -2.28 3.36 12.41 12.41 0 0 1 -5.16 3.12 17.2 17.2 0 0 1 -5.94 1 21.07 21.07 0 0 1 -4.68-.48 13.69 13.69 0 0 1 -4.38-1.86 9.68 9.68 0 0 1 -3.42-4 12.19 12.19 0 0 1 -1.08-5.22v-9.9a10.66 10.66 0 0 1 1-4.44 10.47 10.47 0 0 1 5.1-4.92 15.88 15.88 0 0 1 7.08-1.5 18.56 18.56 0 0 1 8.17 1.49zm-2.22 11.34a3.25 3.25 0 0 0 .54-5.34 8.93 8.93 0 0 0 -4.44-1.5 18.85 18.85 0 0 0 -4.62.36 7.26 7.26 0 0 0 -3.06 1.44 3.7 3.7 0 0 0 -1.38 2.88v2.88h10a5.55 5.55 0 0 0 3-.69z"/><path d="m341 40.5c0-3.6 1.14-6.36 3.48-8.28a10.27 10.27 0 0 1 6.9-2.4h4v2.7c0 2.22-1 3.36-3.12 3.36h-.84a4.22 4.22 0 0 0 -4.35 4.12 4.87 4.87 0 0 0 0 .54v19.76h-2.7c-2.22 0-3.36-1.08-3.36-3.18v-16.62z"/><path d="m394.87 36.48a6.2 6.2 0 0 0 -4.62-1.56 5.67 5.67 0 0 0 -4.44 1.68 7 7 0 0 0 -1.72 4.92v18.78h-2.7c-2.22 0-3.36-1.08-3.36-3.18v-15.6a7 7 0 0 0 -1.68-4.92 5.86 5.86 0 0 0 -4.44-1.68 6.16 6.16 0 0 0 -4.62 1.56 7.34 7.34 0 0 0 -1.56 5v18.82h-2.73c-2.22 0-3.36-1.08-3.36-3.18v-15.6q0-5.76 3.24-9.18c2.16-2.34 5.16-3.48 9-3.48a11.81 11.81 0 0 1 8 2.82 9.25 9.25 0 0 1 1.2 1.14c.42-.42.78-.84 1.14-1.14a13.15 13.15 0 0 1 17 .66q3.24 3.42 3.24 9.18v18.78h-2.7c-2.22 0-3.36-1.08-3.36-3.18v-15.6a7.35 7.35 0 0 0 -1.53-5.04z"/><path d="m433 32.39a11.37 11.37 0 0 1 4.5 9.12v18.79h-1.8a3.71 3.71 0 0 1 -3.42-2.46 13.2 13.2 0 0 1 -9.28 3.36 15.31 15.31 0 0 1 -10.08-3.54 11.25 11.25 0 0 1 -4.5-9.06v-7.08a11.38 11.38 0 0 1 4.5-9.12 15.31 15.31 0 0 1 10.08-3.54 15.56 15.56 0 0 1 10 3.53zm-10 2.52a9.4 9.4 0 0 0 -6.24 2.16 5.66 5.66 0 0 0 -2.28 4.44v7.08a5.72 5.72 0 0 0 2.23 4.41 10.32 10.32 0 0 0 12.48 0 5.63 5.63 0 0 0 2.28-4.44v-7.04a5.66 5.66 0 0 0 -2.28-4.44 9.4 9.4 0 0 0 -6.19-2.16z"/><path d="m444.37 40.5c0-3.6 1.14-6.36 3.48-8.28a10.27 10.27 0 0 1 6.9-2.4h4v2.7c0 2.22-1 3.36-3.12 3.36h-.84a4.22 4.22 0 0 0 -4.34 4.12 4.87 4.87 0 0 0 0 .54v19.76h-2.7c-2.22 0-3.36-1.08-3.36-3.18v-16.62z"/><path d="m463.57 22.08c0-2.1 1.14-3.18 3.36-3.18h2.7v23.58h2.22c1.2 0 2.34.06 3.06-1.14l5.7-9.36a4.19 4.19 0 0 1 3.66-2.16h4.73l-7.25 11.88a9.88 9.88 0 0 1 -1.2 1.68 9.08 9.08 0 0 1 4.54 5l5.22 11.88h-3.9c-1.8 0-3-.66-3.54-1.92l-3.3-7.56a3.51 3.51 0 0 0 -3.42-2.28h-6.54v11.8h-2.7c-2.22 0-3.36-1.08-3.36-3.18v-35z"/><path d="m515.17 30.39a13.13 13.13 0 0 1 3.83 3.18 8.87 8.87 0 0 1 1.68 5.28 8.37 8.37 0 0 1 -3.58 7.38 10.65 10.65 0 0 1 -3.71 1.77 13.55 13.55 0 0 1 -4 .54h-7.3a5.45 5.45 0 0 1 -1.14-.06 2.33 2.33 0 0 1 -1-.48v2.52a3.83 3.83 0 0 0 2.16 3.42 8.53 8.53 0 0 0 4.14 1.2 12 12 0 0 0 4.38-.3 6.37 6.37 0 0 0 3.66-2q1.35-1.62 3.6-.54l2.94 1.44a10.58 10.58 0 0 1 -2.28 3.36 12.41 12.41 0 0 1 -5.16 3.12 17.2 17.2 0 0 1 -5.94 1 21.07 21.07 0 0 1 -4.68-.48 13.69 13.69 0 0 1 -4.38-1.86 9.68 9.68 0 0 1 -3.42-4 12.19 12.19 0 0 1 -1.08-5.22v-9.9a10.66 10.66 0 0 1 1-4.44 10.42 10.42 0 0 1 5.2-4.9 15.88 15.88 0 0 1 7.08-1.5 18.45 18.45 0 0 1 8 1.47zm-2.17 11.34a3.25 3.25 0 0 0 .54-5.34 8.93 8.93 0 0 0 -4.44-1.5 18.85 18.85 0 0 0 -4.62.36 7.26 7.26 0 0 0 -3.06 1.44 3.7 3.7 0 0 0 -1.42 2.88v2.88h10a5.55 5.55 0 0 0 3-.69z"/><path d="m539.71 29.82v2.7c0 2.22-1.08 3.36-3.18 3.36h-4v14.64a4.52 4.52 0 0 0 1.44 3.6 4.15 4.15 0 0 0 2.82 1v2.76a2.29 2.29 0 0 1 -1.79 2.52 4.09 4.09 0 0 1 -3.12-.36 8.74 8.74 0 0 1 -3.78-3.34 11.71 11.71 0 0 1 -1.56-6.18v-28.44c0-2.1 1.08-3.18 3.3-3.18h2.76v10.92h7.12z"/><path d="m548.09 18.9h2.7v2.88c0 2.1-1.14 3.18-3.36 3.18h-2.7v-2.88c.02-2.08 1.16-3.18 3.36-3.18zm-3.36 14.1c0-2.1 1.14-3.18 3.36-3.18h2.7v30.48h-2.7c-2.22 0-3.36-1.08-3.36-3.18z"/><path d="m562.51 32.28a14.39 14.39 0 0 1 9.6-3.42 14.56 14.56 0 0 1 9.66 3.42 11.24 11.24 0 0 1 4.23 8.72v19.3h-2.7c-2.22 0-3.36-1.08-3.36-3.18v-16.12a5.22 5.22 0 0 0 -2.1-4.08 9.37 9.37 0 0 0 -11.52 0 5.22 5.22 0 0 0 -2.1 4.08v19.3h-2.7c-2.22 0-3.36-1.08-3.36-3.18v-16.12a10.94 10.94 0 0 1 4.35-8.72z"/><path d="m616.63 32.39a11.38 11.38 0 0 1 4.5 9.12v18.49a10.69 10.69 0 0 1 -1.13 5 12.24 12.24 0 0 1 -7.62 5.94 18.84 18.84 0 0 1 -5.28.72 23 23 0 0 1 -4.68-.48 4.38 4.38 0 0 1 -2.82-1.56 3.2 3.2 0 0 1 -.12-2.52l.54-2.4a14.34 14.34 0 0 0 5.34 1 18.49 18.49 0 0 0 5.34-.6c2.94-.78 4.38-2.52 4.38-5.16v-1.2a16.21 16.21 0 0 1 -18.6-1.14 11.25 11.25 0 0 1 -4.5-9.06v-7a11.38 11.38 0 0 1 4.5-9.12 15.31 15.31 0 0 1 10.08-3.54 15.56 15.56 0 0 1 10.07 3.51zm-10.08 2.52a9.4 9.4 0 0 0 -6.24 2.16 5.66 5.66 0 0 0 -2.31 4.44v7.08a5.72 5.72 0 0 0 2.31 4.41 10.32 10.32 0 0 0 12.48 0 5.6 5.6 0 0 0 2.3-4.43v-7.05a5.66 5.66 0 0 0 -2.28-4.44 9.45 9.45 0 0 0 -6.26-2.16z"/><path d="m631.87 53.46h2.7v3.66c0 2.1-1.14 3.18-3.36 3.18h-2.7v-3.66c0-2.1 1.14-3.18 3.36-3.18z"/><path d="m641.09 41a10.94 10.94 0 0 1 4.32-8.7 14.39 14.39 0 0 1 9.6-3.42 14.56 14.56 0 0 1 9.66 3.42 11.93 11.93 0 0 1 3.54 4.8l-2.64 1.38a3 3 0 0 1 -4-.72c-.36-.42-.6-.66-.78-.84a8.86 8.86 0 0 0 -5.82-2 8.63 8.63 0 0 0 -5.76 2 5.42 5.42 0 0 0 -2.1 4.08v8.16a5.22 5.22 0 0 0 2.1 4.08 8.85 8.85 0 0 0 5.79 1.9 9.14 9.14 0 0 0 5.82-1.92c.18-.18.42-.42.78-.84a3 3 0 0 1 4-.72l2.61 1.34a11.79 11.79 0 0 1 -3.54 4.8 14.65 14.65 0 0 1 -9.67 3.4 14.37 14.37 0 0 1 -9.6-3.36 10.86 10.86 0 0 1 -4.32-8.7z"/><path d="m697.32 32.39a11.38 11.38 0 0 1 4.5 9.12v7.08a11.25 11.25 0 0 1 -4.5 9.06 16.12 16.12 0 0 1 -20.16 0 11.25 11.25 0 0 1 -4.5-9.06v-7.07a11.38 11.38 0 0 1 4.5-9.12 15.31 15.31 0 0 1 10.08-3.54 15.56 15.56 0 0 1 10.08 3.53zm-10.08 2.52a9.4 9.4 0 0 0 -6.24 2.16 5.66 5.66 0 0 0 -2.28 4.44v7.08a5.72 5.72 0 0 0 2.28 4.41 10.32 10.32 0 0 0 12.48 0 5.63 5.63 0 0 0 2.28-4.44v-7.04a5.66 5.66 0 0 0 -2.28-4.44 9.37 9.37 0 0 0 -6.23-2.16z"/><path d="m743 36.48a6.2 6.2 0 0 0 -4.62-1.56 5.67 5.67 0 0 0 -4.44 1.68 7 7 0 0 0 -1.74 4.92v18.78h-2.7c-2.22 0-3.36-1.08-3.36-3.18v-15.6a7 7 0 0 0 -1.68-4.92 5.86 5.86 0 0 0 -4.46-1.68 6.16 6.16 0 0 0 -4.62 1.56 7.34 7.34 0 0 0 -1.56 5v18.82h-2.73c-2.22 0-3.36-1.08-3.36-3.18v-15.6q0-5.76 3.24-9.18c2.16-2.34 5.16-3.48 9-3.48a11.81 11.81 0 0 1 8 2.82 9.25 9.25 0 0 1 1.2 1.14c.42-.42.78-.84 1.14-1.14a13.15 13.15 0 0 1 17 .66q3.24 3.42 3.24 9.18v18.78h-2.7c-2.22 0-3.36-1.08-3.36-3.18v-15.6a7.32 7.32 0 0 0 -1.49-5.04z"/><path d="m22.9 41.28c0-2.61-.19-5.19-3.2-5.19-1.83 0-3 .74-3 2.73 0 2.22 1.4 3.08 3.12 4.17a50.37 50.37 0 0 1 6.63 4.8 7.64 7.64 0 0 1 2.46 6.12c0 5.54-3.67 8.42-9 8.42-6.55 0-8.89-3.67-8.89-8.89v-2.14h5.46v1.7c-.12 2.85.74 4.91 3.43 4.91 2.3 0 3.39-1.21 3.39-3.43a4.42 4.42 0 0 0 -2.21-3.86c-2.85-2.22-6.4-3.82-8.62-6.75a8.2 8.2 0 0 1 -1.38-4.5c0-5 2.81-7.72 8.58-7.72 8.7 0 8.46 6.71 8.5 9.59h-5.27z"/><path d="m35 61.64v-29.25h5.46v29.25z"/><path d="m45.4 32.39h18.21v4.29h-6.35v25h-5.46v-25h-6.4z"/><path d="m68.29 61.64v-29.25h15.37v4.29h-9.91v7.37h9.13v4.34h-9.13v9h9.91v4.29h-15.37z"/><path d="m100.7 61.64v-29.25h8.81c2.34 0 4.64.16 6.2 2.15a7.9 7.9 0 0 1 1.44 5.26c0 2.53-.55 5-3.51 6.12v.08c3.08.43 4.25 3 4.25 6.79a13.54 13.54 0 0 1 -.39 3.59c-1.17 3.71-3.28 5.26-7.18 5.26zm6.47-17.43c1.33 0 3 .08 3.9-1a5.57 5.57 0 0 0 .58-3.16c0-2.18-.47-3.28-3-3.35h-2.54v7.53h1zm.16 13.18a8.27 8.27 0 0 0 3.28-.31c1.48-.66 1.68-2.57 1.68-4.06 0-3.16-.62-4.49-4-4.49h-2.11v8.86z"/><path d="m130.93 40.07a19.54 19.54 0 0 1 1.29 4.49h.08a25.07 25.07 0 0 1 1.79-5.56l2.61-6.63h6l-7.7 16.83v12.44h-5.46v-12.44l-7.64-16.81h6z"/></g></svg>