<svg id="Icons" xmlns="http://www.w3.org/2000/svg" width="739.53" height="52.76" viewBox="0 0 739.53 52.76">
  <defs>
    <style>
      .cls-1 {
        fill: #fff;
      }
    </style>
  </defs>
  <title>ilawyer</title>
  <g>
    <path class="cls-1" d="M168,18.9h2.7v2.88c0,2.1-1.14,3.18-3.36,3.18h-2.7V22.08C164.66,20,165.8,18.9,168,18.9ZM164.66,33c0-2.1,1.14-3.18,3.36-3.18h2.7V60.3H168c-2.22,0-3.36-1.08-3.36-3.18Z" transform="translate(-11.02 -18.9)"/>
    <path class="cls-1" d="M186.09,54.12a4.33,4.33,0,0,0,2.88,1v2.76a2.28,2.28,0,0,1-1.81,2.51A3.94,3.94,0,0,1,184.1,60a8.69,8.69,0,0,1-3.84-3.36,11.19,11.19,0,0,1-1.62-6.18V22.08c0-2.1,1.14-3.18,3.36-3.18h2.7V50.52A4.5,4.5,0,0,0,186.09,54.12Z" transform="translate(-11.02 -18.9)"/>
    <path class="cls-1" d="M217.27,32.39a11.38,11.38,0,0,1,4.5,9.12V60.3H220a3.71,3.71,0,0,1-3.42-2.46,13.26,13.26,0,0,1-9.36,3.36,15.26,15.26,0,0,1-10.1-3.54,11.25,11.25,0,0,1-4.5-9.06V41.52a11.4,11.4,0,0,1,4.5-9.13,15.31,15.31,0,0,1,10.08-3.54A15.55,15.55,0,0,1,217.27,32.39Zm-10.08,2.53A9.4,9.4,0,0,0,201,37.08a5.66,5.66,0,0,0-2.28,4.44V48.6A5.72,5.72,0,0,0,201,53a10.32,10.32,0,0,0,12.48,0,5.63,5.63,0,0,0,2.28-4.44V41.52a5.66,5.66,0,0,0-2.28-4.44A9.4,9.4,0,0,0,207.19,34.92Z" transform="translate(-11.02 -18.9)"/>
    <path class="cls-1" d="M265.39,33c0-2.1,1.14-3.18,3.36-3.18h2.7V48.6q0,5.85-3.24,9.18a12,12,0,0,1-9,3.42A11.66,11.66,0,0,1,250,57.3a11.82,11.82,0,0,1-9.18,3.9q-5.76,0-9-3.42t-3.24-9.18V33c0-2.1,1.14-3.18,3.36-3.18h2.7V48.6c0,2.28.54,4,1.56,5a6.12,6.12,0,0,0,4.62,1.56,6,6,0,0,0,4.44-1.62A6.81,6.81,0,0,0,247,48.62V33c0-2.1,1.14-3.18,3.36-3.18H253V48.6a6.83,6.83,0,0,0,1.74,4.92,6,6,0,0,0,4.44,1.62,6.2,6.2,0,0,0,4.62-1.56c1-1,1.56-2.7,1.56-5V33Z" transform="translate(-11.02 -18.9)"/>
    <path class="cls-1" d="M305.29,29.82,293.41,63.3c-.3.78-.6,1.5-.9,2.28a10.1,10.1,0,0,1-1,2,8.76,8.76,0,0,1-3.42,3,4.86,4.86,0,0,1-3.12.36,2.29,2.29,0,0,1-1.8-2.52V65.64a4.78,4.78,0,0,0,2-.48,2.48,2.48,0,0,0,1.5-1.5l1.2-3.06a4.71,4.71,0,0,1-3.66-2.94l-8.94-25.08a2.16,2.16,0,0,1,0-1.92,1.82,1.82,0,0,1,1.74-.84h3.78L289.73,55h.06L298,32.1a3.16,3.16,0,0,1,3.18-2.28h4.16Z" transform="translate(-11.02 -18.9)"/>
    <path class="cls-1" d="M330,30.39a13.13,13.13,0,0,1,3.78,3.18,8.87,8.87,0,0,1,1.68,5.28,8.89,8.89,0,0,1-1,4.5,9,9,0,0,1-2.58,2.88A10.65,10.65,0,0,1,328.17,48a13.55,13.55,0,0,1-4,.54h-7.32a5.45,5.45,0,0,1-1.14-.06,2.33,2.33,0,0,1-1-.48v2.52a3.83,3.83,0,0,0,2.16,3.42,8.53,8.53,0,0,0,4.14,1.2,12,12,0,0,0,4.38-.3,6.32,6.32,0,0,0,3.66-2q1.35-1.62,3.6-.54l2.94,1.44a10.58,10.58,0,0,1-2.28,3.36,12.41,12.41,0,0,1-5.16,3.12,17.2,17.2,0,0,1-5.94,1,21.07,21.07,0,0,1-4.68-.48,13.69,13.69,0,0,1-4.38-1.86,9.68,9.68,0,0,1-3.42-4,12.19,12.19,0,0,1-1.08-5.22v-9.9a10.66,10.66,0,0,1,1-4.44,10.47,10.47,0,0,1,5.1-4.92,15.88,15.88,0,0,1,7.08-1.5A18.56,18.56,0,0,1,330,30.39Zm-2.22,11.34a3.25,3.25,0,0,0,.54-5.34,8.93,8.93,0,0,0-4.44-1.5,18.85,18.85,0,0,0-4.62.36,7.26,7.26,0,0,0-3.06,1.44,3.7,3.7,0,0,0-1.38,2.88v2.88h10a5.55,5.55,0,0,0,3-.69Z" transform="translate(-11.02 -18.9)"/>
    <path class="cls-1" d="M341,40.5c0-3.6,1.14-6.36,3.48-8.28a10.27,10.27,0,0,1,6.9-2.4h4v2.7c0,2.22-1,3.36-3.12,3.36h-.84A4.22,4.22,0,0,0,347.07,40a4.87,4.87,0,0,0,0,.54V60.3h-2.7c-2.22,0-3.36-1.08-3.36-3.18V40.5h0Z" transform="translate(-11.02 -18.9)"/>
    <path class="cls-1" d="M394.87,36.48a6.2,6.2,0,0,0-4.62-1.56,5.67,5.67,0,0,0-4.44,1.68,7,7,0,0,0-1.72,4.92V60.3h-2.7c-2.22,0-3.36-1.08-3.36-3.18V41.52a7,7,0,0,0-1.68-4.92,5.86,5.86,0,0,0-4.44-1.68,6.16,6.16,0,0,0-4.62,1.56,7.34,7.34,0,0,0-1.56,5V60.3H363c-2.22,0-3.36-1.08-3.36-3.18V41.52q0-5.76,3.24-9.18c2.16-2.34,5.16-3.48,9-3.48a11.81,11.81,0,0,1,8,2.82,9.25,9.25,0,0,1,1.2,1.14c.42-.42.78-.84,1.14-1.14a13.15,13.15,0,0,1,17,.66q3.24,3.42,3.24,9.18V60.3h-2.7c-2.22,0-3.36-1.08-3.36-3.18V41.52A7.35,7.35,0,0,0,394.87,36.48Z" transform="translate(-11.02 -18.9)"/>
    <path class="cls-1" d="M433,32.39a11.37,11.37,0,0,1,4.5,9.12V60.3h-1.8a3.71,3.71,0,0,1-3.42-2.46A13.2,13.2,0,0,1,423,61.2a15.31,15.31,0,0,1-10.08-3.54,11.25,11.25,0,0,1-4.5-9.06V41.52a11.38,11.38,0,0,1,4.5-9.12A15.31,15.31,0,0,1,423,28.86,15.56,15.56,0,0,1,433,32.39ZM423,34.91a9.4,9.4,0,0,0-6.24,2.16,5.66,5.66,0,0,0-2.28,4.44v7.08A5.72,5.72,0,0,0,416.71,53a10.32,10.32,0,0,0,12.48,0,5.63,5.63,0,0,0,2.28-4.44V41.52a5.66,5.66,0,0,0-2.28-4.44A9.4,9.4,0,0,0,423,34.92Z" transform="translate(-11.02 -18.9)"/>
    <path class="cls-1" d="M444.37,40.5c0-3.6,1.14-6.36,3.48-8.28a10.27,10.27,0,0,1,6.9-2.4h4v2.7c0,2.22-1,3.36-3.12,3.36h-.84A4.22,4.22,0,0,0,450.45,40a4.87,4.87,0,0,0,0,.54V60.3h-2.7c-2.22,0-3.36-1.08-3.36-3.18V40.5Z" transform="translate(-11.02 -18.9)"/>
    <path class="cls-1" d="M463.57,22.08c0-2.1,1.14-3.18,3.36-3.18h2.7V42.48h2.22c1.2,0,2.34.06,3.06-1.14l5.7-9.36a4.19,4.19,0,0,1,3.66-2.16H489L481.75,41.7a9.88,9.88,0,0,1-1.2,1.68,9.08,9.08,0,0,1,4.54,5l5.22,11.88h-3.9c-1.8,0-3-.66-3.54-1.92l-3.3-7.56a3.51,3.51,0,0,0-3.42-2.28h-6.54V60.3h-2.7c-2.22,0-3.36-1.08-3.36-3.18v-35h0Z" transform="translate(-11.02 -18.9)"/>
    <path class="cls-1" d="M515.17,30.39A13.13,13.13,0,0,1,519,33.57a8.87,8.87,0,0,1,1.68,5.28,8.37,8.37,0,0,1-3.58,7.38A10.65,10.65,0,0,1,513.39,48a13.55,13.55,0,0,1-4,.54h-7.3a5.45,5.45,0,0,1-1.14-.06,2.33,2.33,0,0,1-1-.48v2.52a3.83,3.83,0,0,0,2.16,3.42,8.53,8.53,0,0,0,4.14,1.2,12,12,0,0,0,4.38-.3,6.37,6.37,0,0,0,3.66-2q1.35-1.62,3.6-.54l2.94,1.44a10.58,10.58,0,0,1-2.28,3.36,12.41,12.41,0,0,1-5.16,3.12,17.2,17.2,0,0,1-5.94,1,21.07,21.07,0,0,1-4.68-.48,13.69,13.69,0,0,1-4.38-1.86,9.68,9.68,0,0,1-3.42-4,12.19,12.19,0,0,1-1.08-5.22v-9.9a10.66,10.66,0,0,1,1-4.44,10.42,10.42,0,0,1,5.2-4.9,15.88,15.88,0,0,1,7.08-1.5A18.45,18.45,0,0,1,515.17,30.39ZM513,41.73a3.25,3.25,0,0,0,.54-5.34,8.93,8.93,0,0,0-4.44-1.5,18.85,18.85,0,0,0-4.62.36,7.26,7.26,0,0,0-3.06,1.44A3.7,3.7,0,0,0,500,39.57v2.88h10a5.55,5.55,0,0,0,3-.69Z" transform="translate(-11.02 -18.9)"/>
    <path class="cls-1" d="M539.71,29.82v2.7c0,2.22-1.08,3.36-3.18,3.36h-4V50.52a4.52,4.52,0,0,0,1.44,3.6,4.15,4.15,0,0,0,2.82,1v2.76A2.29,2.29,0,0,1,535,60.4a4.09,4.09,0,0,1-3.12-.36,8.74,8.74,0,0,1-3.78-3.34,11.71,11.71,0,0,1-1.56-6.18V22.08c0-2.1,1.08-3.18,3.3-3.18h2.76V29.82h7.12Z" transform="translate(-11.02 -18.9)"/>
    <path class="cls-1" d="M548.09,18.9h2.7v2.88c0,2.1-1.14,3.18-3.36,3.18h-2.7V22.08C544.75,20,545.89,18.9,548.09,18.9ZM544.73,33c0-2.1,1.14-3.18,3.36-3.18h2.7V60.3h-2.7c-2.22,0-3.36-1.08-3.36-3.18Z" transform="translate(-11.02 -18.9)"/>
    <path class="cls-1" d="M562.51,32.28a14.39,14.39,0,0,1,9.6-3.42,14.56,14.56,0,0,1,9.66,3.42A11.24,11.24,0,0,1,586,41V60.3h-2.7c-2.22,0-3.36-1.08-3.36-3.18V41a5.22,5.22,0,0,0-2.1-4.08,9.37,9.37,0,0,0-11.52,0,5.22,5.22,0,0,0-2.1,4.08V60.3h-2.7c-2.22,0-3.36-1.08-3.36-3.18V41A10.94,10.94,0,0,1,562.51,32.28Z" transform="translate(-11.02 -18.9)"/>
    <path class="cls-1" d="M616.63,32.39a11.38,11.38,0,0,1,4.5,9.12V60A10.69,10.69,0,0,1,620,65a12.24,12.24,0,0,1-7.62,5.94,18.84,18.84,0,0,1-5.28.72,23,23,0,0,1-4.68-.48,4.38,4.38,0,0,1-2.82-1.56,3.2,3.2,0,0,1-.12-2.52l.54-2.4a14.34,14.34,0,0,0,5.34,1,18.49,18.49,0,0,0,5.34-.6c2.94-.78,4.38-2.52,4.38-5.16v-1.2a16.21,16.21,0,0,1-18.6-1.14,11.25,11.25,0,0,1-4.5-9.06v-7a11.38,11.38,0,0,1,4.5-9.12,15.31,15.31,0,0,1,10.08-3.54A15.56,15.56,0,0,1,616.63,32.39Zm-10.08,2.52a9.4,9.4,0,0,0-6.24,2.16A5.66,5.66,0,0,0,598,41.51v7.08A5.72,5.72,0,0,0,600.31,53a10.32,10.32,0,0,0,12.48,0,5.6,5.6,0,0,0,2.3-4.43V41.52a5.66,5.66,0,0,0-2.28-4.44,9.45,9.45,0,0,0-6.26-2.16Z" transform="translate(-11.02 -18.9)"/>
    <path class="cls-1" d="M631.87,53.46h2.7v3.66c0,2.1-1.14,3.18-3.36,3.18h-2.7V56.64C628.51,54.54,629.65,53.46,631.87,53.46Z" transform="translate(-11.02 -18.9)"/>
    <path class="cls-1" d="M641.09,41a10.94,10.94,0,0,1,4.32-8.7,14.39,14.39,0,0,1,9.6-3.42,14.56,14.56,0,0,1,9.66,3.42,11.93,11.93,0,0,1,3.54,4.8l-2.64,1.38a3,3,0,0,1-4-.72c-.36-.42-.6-.66-.78-.84a8.86,8.86,0,0,0-5.82-2,8.63,8.63,0,0,0-5.76,2,5.42,5.42,0,0,0-2.1,4.08v8.16a5.22,5.22,0,0,0,2.1,4.08A8.85,8.85,0,0,0,655,55.14a9.14,9.14,0,0,0,5.82-1.92c.18-.18.42-.42.78-.84a3,3,0,0,1,4-.72L668.21,53a11.79,11.79,0,0,1-3.54,4.8A14.65,14.65,0,0,1,655,61.2a14.37,14.37,0,0,1-9.6-3.36,10.86,10.86,0,0,1-4.32-8.7Z" transform="translate(-11.02 -18.9)"/>
    <path class="cls-1" d="M697.32,32.39a11.38,11.38,0,0,1,4.5,9.12v7.08a11.25,11.25,0,0,1-4.5,9.06,16.12,16.12,0,0,1-20.16,0,11.25,11.25,0,0,1-4.5-9.06V41.52a11.38,11.38,0,0,1,4.5-9.12,15.31,15.31,0,0,1,10.08-3.54A15.56,15.56,0,0,1,697.32,32.39Zm-10.08,2.52A9.4,9.4,0,0,0,681,37.07a5.66,5.66,0,0,0-2.28,4.44v7.08A5.72,5.72,0,0,0,681,53a10.32,10.32,0,0,0,12.48,0,5.63,5.63,0,0,0,2.28-4.44V41.52a5.66,5.66,0,0,0-2.28-4.44,9.37,9.37,0,0,0-6.23-2.16Z" transform="translate(-11.02 -18.9)"/>
    <path class="cls-1" d="M743,36.48a6.2,6.2,0,0,0-4.62-1.56,5.67,5.67,0,0,0-4.44,1.68,7,7,0,0,0-1.74,4.92V60.3h-2.7c-2.22,0-3.36-1.08-3.36-3.18V41.52a7,7,0,0,0-1.68-4.92A5.86,5.86,0,0,0,720,34.92a6.16,6.16,0,0,0-4.62,1.56,7.34,7.34,0,0,0-1.56,5V60.3h-2.73c-2.22,0-3.36-1.08-3.36-3.18V41.52q0-5.76,3.24-9.18c2.16-2.34,5.16-3.48,9-3.48a11.81,11.81,0,0,1,8,2.82,9.25,9.25,0,0,1,1.2,1.14c.42-.42.78-.84,1.14-1.14a13.15,13.15,0,0,1,17,.66q3.24,3.42,3.24,9.18V60.3h-2.7c-2.22,0-3.36-1.08-3.36-3.18V41.52A7.32,7.32,0,0,0,743,36.48Z" transform="translate(-11.02 -18.9)"/>
    <path class="cls-1" d="M22.9,41.28c0-2.61-.19-5.19-3.2-5.19-1.83,0-3,.74-3,2.73,0,2.22,1.4,3.08,3.12,4.17a50.37,50.37,0,0,1,6.63,4.8,7.64,7.64,0,0,1,2.46,6.12c0,5.54-3.67,8.42-9,8.42-6.55,0-8.89-3.67-8.89-8.89V51.3h5.46V53c-.12,2.85.74,4.91,3.43,4.91,2.3,0,3.39-1.21,3.39-3.43a4.42,4.42,0,0,0-2.21-3.86c-2.85-2.22-6.4-3.82-8.62-6.75a8.2,8.2,0,0,1-1.38-4.5c0-5,2.81-7.72,8.58-7.72,8.7,0,8.46,6.71,8.5,9.59H22.9Z" transform="translate(-11.02 -18.9)"/>
    <path class="cls-1" d="M35,61.64V32.39h5.46V61.64Z" transform="translate(-11.02 -18.9)"/>
    <path class="cls-1" d="M45.4,32.39H63.61v4.29H57.26v25H51.8v-25H45.4V32.39Z" transform="translate(-11.02 -18.9)"/>
    <path class="cls-1" d="M68.29,61.64V32.39H83.66v4.29H73.75v7.37h9.13v4.34H73.75v9h9.91v4.29H68.29Z" transform="translate(-11.02 -18.9)"/>
    <path class="cls-1" d="M100.7,61.64V32.39h8.81c2.34,0,4.64.16,6.2,2.15a7.9,7.9,0,0,1,1.44,5.26c0,2.53-.55,5-3.51,6.12V46c3.08.43,4.25,3,4.25,6.79a13.54,13.54,0,0,1-.39,3.59c-1.17,3.71-3.28,5.26-7.18,5.26H100.7Zm6.47-17.43c1.33,0,3,.08,3.9-1a5.57,5.57,0,0,0,.58-3.16c0-2.18-.47-3.28-3-3.35h-2.54v7.53h1Zm.16,13.18a8.27,8.27,0,0,0,3.28-.31c1.48-.66,1.68-2.57,1.68-4.06,0-3.16-.62-4.49-4-4.49h-2.11v8.86h1.15Z" transform="translate(-11.02 -18.9)"/>
    <path class="cls-1" d="M130.93,40.07a19.54,19.54,0,0,1,1.29,4.49h.08A25.07,25.07,0,0,1,134.09,39l2.61-6.63h6L135,49.2V61.64h-5.46V49.2l-7.64-16.81h6Z" transform="translate(-11.02 -18.9)"/>
  </g>
</svg>
