<svg version="1.1" id="Layer_1" xmlns="http://www.w3.org/2000/svg" xmlns:xlink="http://www.w3.org/1999/xlink" x="0px" y="0px"
	 width="249.6px" height="131px" viewBox="0 0 249.6 131" style="enable-background:new 0 0 249.6 131;" xml:space="preserve">
<style type="text/css">
	.st0{fill:#112238;}
	.st1{fill:#1372F3;}
</style>
<g>
	<path class="st0" d="M0,25.1h6.7L32,96.7l23.6-71.9h4.6l23.6,71.9l25.3-71.7h6.2l-29.2,81.1h-4.8l-23.6-70l-23.6,70h-4.8L0,25.1z"
		/>
	<path class="st0" d="M177.5,65.7v-0.2c0-21.7,15.8-41.7,39.8-41.7c13.1,0,21.4,3.9,29.5,10.6l-3.9,4.5c-6.3-5.5-13.7-9.7-25.9-9.7
		c-19.6,0-33.3,16.6-33.3,36v0.2c0,20.8,13,36.4,34.5,36.4c10.2,0,19.8-4.3,25.7-9.2V69.5H217V64h32.7v31.1
		c-7.2,6.4-18.5,12.1-31.6,12.1C192.6,107.2,177.5,88.4,177.5,65.7z"/>
	<rect x="143.4" y="3.3" class="st1" width="4" height="124.3"/>
</g>
</svg>
