<svg enable-background="new 0 0 249.6 131" height="131" viewBox="0 0 249.6 131" width="249.6" xmlns="http://www.w3.org/2000/svg"><path d="m0 25.1h6.7l25.3 71.6 23.6-71.9h4.6l23.6 71.9 25.3-71.7h6.2l-29.2 81.1h-4.8l-23.6-70-23.6 70h-4.8z" fill="#112238"/><path d="m177.5 65.7v-.2c0-21.7 15.8-41.7 39.8-41.7 13.1 0 21.4 3.9 29.5 10.6l-3.9 4.5c-6.3-5.5-13.7-9.7-25.9-9.7-19.6 0-33.3 16.6-33.3 36v.2c0 20.8 13 36.4 34.5 36.4 10.2 0 19.8-4.3 25.7-9.2v-23.1h-26.9v-5.5h32.7v31.1c-7.2 6.4-18.5 12.1-31.6 12.1-25.5 0-40.6-18.8-40.6-41.5z" fill="#112238"/><path d="m143.4 3.3h4v124.3h-4z" fill="#1372f3"/></svg>