<svg enable-background="new 0 0 489 53" height="53" viewBox="0 0 489 53" width="489" xmlns="http://www.w3.org/2000/svg"><path d="m4 8.8h2.9l11.1 31.4 10.3-31.5h2l10.3 31.5 11.2-31.4h2.7l-12.8 35.5h-2.1l-10.3-30.7-10.4 30.7h-2.1z"/><path d="m73.7 8.5h2.5l16.4 35.5h-2.9l-4.5-9.9h-20.8l-4.5 9.9h-2.7zm10.4 23.3-9.3-20.4-9.3 20.4z"/><path d="m107.8 11.2h-12.3v-2.4h27.2v2.4h-12.3v32.8h-2.6z"/><path d="m143 11.2h-12.3v-2.4h27.2v2.4h-12.3v32.8h-2.6z"/><path d="m165.4 38.9 1.7-2c3.9 3.6 7.5 5.2 12.7 5.2 5.3 0 8.9-3 8.9-7v-.1c0-3.7-2-5.9-10-7.5-8.5-1.7-11.9-4.6-11.9-9.9v-.1c0-5.2 4.8-9.3 11.3-9.3 5.1 0 8.5 1.4 12.1 4.3l-1.7 2.1c-3.3-2.9-6.7-4-10.5-4-5.2 0-8.6 3-8.6 6.7v.1c0 3.7 1.9 6 10.3 7.7 8.2 1.7 11.6 4.6 11.6 9.7v.1c0 5.7-4.9 9.6-11.7 9.6-5.7 0-10-1.8-14.2-5.6z"/><path d="m233.1 26.5v-.1c0-9.5 6.9-18.2 17.4-18.2 5.7 0 9.4 1.7 12.9 4.6l-1.7 2c-2.8-2.4-6-4.2-11.3-4.2-8.6 0-14.6 7.3-14.6 15.8v.1c0 9.1 5.7 15.9 15.1 15.9 4.5 0 8.7-1.9 11.2-4v-10.2h-11.8v-2.4h14.3v13.6c-3.2 2.8-8.1 5.3-13.9 5.3-11-.1-17.6-8.3-17.6-18.2z"/><path d="m276.2 29.4v-20.6h2.6v20.4c0 8.3 4.5 13.1 11.9 13.1 7.2 0 11.7-4.3 11.7-12.9v-20.6h2.6v20.3c0 10.1-5.9 15.5-14.5 15.5-8.3 0-14.3-5.3-14.3-15.2z"/><path d="m317.6 8.8h25.1v2.4h-22.5v13.8h20.2v2.4h-20.2v14.2h22.7v2.4h-25.4v-35.2z"/><path d="m353.8 8.8h14.8c4.3 0 7.8 1.4 9.9 3.5 1.7 1.7 2.7 4 2.7 6.6v.1c0 5.9-4.4 9.3-10.3 10.1l11.7 14.9h-3.3l-11.3-14.6h-.1-11.4v14.6h-2.6v-35.2zm14.6 18.3c5.9 0 10.3-3 10.3-8.1v-.1c0-4.7-3.7-7.7-10.1-7.7h-12v15.9z"/><path d="m392.8 8.8h14.8c4.3 0 7.8 1.4 9.9 3.5 1.7 1.7 2.7 4 2.7 6.6v.1c0 5.9-4.4 9.3-10.3 10.1l11.6 14.9h-3.3l-11.2-14.6h-.1-11.4v14.6h-2.6v-35.2zm14.5 18.3c5.9 0 10.3-3 10.3-8.1v-.1c0-4.7-3.7-7.7-10.1-7.7h-12v15.9z"/><path d="m445.2 8.5h2.5l16.4 35.5h-2.9l-4.5-9.9h-20.8l-4.5 9.9h-2.7zm10.5 23.3-9.3-20.4-9.3 20.4z"/><path d="m212-.1h2v53h-2z" fill="#1372f3"/><path d="m475.2 9h1.6v7.8h4.9v1.5h-6.5z"/><path d="m475.2 21.8h1.6v7.8h4.9v1.5h-6.5z"/><path d="m474.9 34.7h3.7c.5 0 1 .1 1.5.2s.8.4 1.1.6c.3.3.5.6.7 1s.2.8.2 1.3c0 .5-.1 1-.3 1.4s-.5.7-.8 1-.7.5-1.2.6-.9.2-1.5.2h-1.9v3h-1.6v-9.3zm3.5 4.8c.6 0 1.1-.2 1.5-.5s.5-.7.5-1.2c0-.6-.2-1-.5-1.2-.4-.3-.9-.4-1.5-.4h-1.9v3.4h1.9z"/></svg>