<svg id="logo_white" data-name="Layer 1" xmlns="http://www.w3.org/2000/svg" width="478.1" height="53" viewBox="0 0 478.1 53">
  <defs>
    <style>
      .logo_white-cls-1 {
        fill: #fff;
      }

      .logo_white-cls-2 {
        fill: #1372f3;
      }
    </style>
  </defs>
  <title>logo-white</title>
  <path class="logo_white-cls-1" d="M4,8.8H6.9L18,40.2,28.3,8.7h2L40.6,40.2,51.8,8.8h2.7L41.7,44.3H39.6L29.3,13.6,18.9,44.3H16.8Z" transform="translate(-4 0.1)"/>
  <path class="logo_white-cls-1" d="M73.7,8.5h2.5L92.6,44H89.7l-4.5-9.9H64.4L59.9,44H57.2ZM84.1,31.8,74.8,11.4,65.5,31.8Z" transform="translate(-4 0.1)"/>
  <path class="logo_white-cls-1" d="M107.8,11.2H95.5V8.8h27.2v2.4H110.4V44h-2.6Z" transform="translate(-4 0.1)"/>
  <path class="logo_white-cls-1" d="M143,11.2H130.7V8.8h27.2v2.4H145.6V44H143Z" transform="translate(-4 0.1)"/>
  <path class="logo_white-cls-1" d="M165.4,38.9l1.7-2c3.9,3.6,7.5,5.2,12.7,5.2s8.9-3,8.9-7V35c0-3.7-2-5.9-10-7.5-8.5-1.7-11.9-4.6-11.9-9.9v-.1c0-5.2,4.8-9.3,11.3-9.3a17.59,17.59,0,0,1,12.1,4.3l-1.7,2.1a15.09,15.09,0,0,0-10.5-4c-5.2,0-8.6,3-8.6,6.7v.1c0,3.7,1.9,6,10.3,7.7,8.2,1.7,11.6,4.6,11.6,9.7v.1c0,5.7-4.9,9.6-11.7,9.6A19.78,19.78,0,0,1,165.4,38.9Z" transform="translate(-4 0.1)"/>
  <path class="logo_white-cls-1" d="M233.1,26.5v-.1c0-9.5,6.9-18.2,17.4-18.2a18.61,18.61,0,0,1,12.9,4.6l-1.7,2a16,16,0,0,0-11.3-4.2c-8.6,0-14.6,7.3-14.6,15.8v.1c0,9.1,5.7,15.9,15.1,15.9a18.19,18.19,0,0,0,11.2-4V28.2H250.3V25.8h14.3V39.4a21.39,21.39,0,0,1-13.9,5.3C239.7,44.6,233.1,36.4,233.1,26.5Z" transform="translate(-4 0.1)"/>
  <path class="logo_white-cls-1" d="M276.2,29.4V8.8h2.6V29.2c0,8.3,4.5,13.1,11.9,13.1,7.2,0,11.7-4.3,11.7-12.9V8.8H305V29.1c0,10.1-5.9,15.5-14.5,15.5C282.2,44.6,276.2,39.3,276.2,29.4Z" transform="translate(-4 0.1)"/>
  <path class="logo_white-cls-1" d="M317.6,8.8h25.1v2.4H320.2V25h20.2v2.4H320.2V41.6h22.7V44H317.5V8.8Z" transform="translate(-4 0.1)"/>
  <path class="logo_white-cls-1" d="M353.8,8.8h14.8c4.3,0,7.8,1.4,9.9,3.5a9.21,9.21,0,0,1,2.7,6.6V19c0,5.9-4.4,9.3-10.3,10.1L382.6,44h-3.3L368,29.4H356.5V44h-2.6V8.8Zm14.6,18.3c5.9,0,10.3-3,10.3-8.1v-.1c0-4.7-3.7-7.7-10.1-7.7h-12V27.1Z" transform="translate(-4 0.1)"/>
  <path class="logo_white-cls-1" d="M392.8,8.8h14.8c4.3,0,7.8,1.4,9.9,3.5a9.21,9.21,0,0,1,2.7,6.6V19c0,5.9-4.4,9.3-10.3,10.1L421.5,44h-3.3L407,29.4H395.5V44h-2.6V8.8Zm14.5,18.3c5.9,0,10.3-3,10.3-8.1v-.1c0-4.7-3.7-7.7-10.1-7.7h-12V27.1Z" transform="translate(-4 0.1)"/>
  <path class="logo_white-cls-1" d="M445.2,8.5h2.5L464.1,44h-2.9l-4.5-9.9H435.9L431.4,44h-2.7Zm10.5,23.3-9.3-20.4-9.3,20.4Z" transform="translate(-4 0.1)"/>
  <rect class="logo_white-cls-2" x="208" width="2" height="53"/>
  <path class="logo_white-cls-1" d="M475.2,9h1.6v7.8h4.9v1.5h-6.5Z" transform="translate(-4 0.1)"/>
  <path class="logo_white-cls-1" d="M475.2,21.8h1.6v7.8h4.9v1.5h-6.5Z" transform="translate(-4 0.1)"/>
  <path class="logo_white-cls-1" d="M474.9,34.7h3.7a7.72,7.72,0,0,1,1.5.2,2.87,2.87,0,0,1,1.1.6,3.59,3.59,0,0,1,.7,1,2.74,2.74,0,0,1,.2,1.3h0a3.19,3.19,0,0,1-.3,1.4,3.92,3.92,0,0,1-.8,1,2.28,2.28,0,0,1-1.2.6,6.8,6.8,0,0,1-1.5.2h-1.9v3h-1.6V34.7Zm3.5,4.8a2.46,2.46,0,0,0,1.5-.5,1.35,1.35,0,0,0,.5-1.2h0a1.36,1.36,0,0,0-.5-1.2,2.41,2.41,0,0,0-1.5-.4h-1.9v3.4h1.9Z" transform="translate(-4 0.1)"/>
</svg>
