<svg version="1.1" id="Layer_1" xmlns="http://www.w3.org/2000/svg" xmlns:xlink="http://www.w3.org/1999/xlink" x="0px" y="0px"
	 width="489px" height="53px" viewBox="0 0 489 53" style="enable-background:new 0 0 489 53;" xml:space="preserve">
<style type="text/css">
	.st0{fill:#FFFFFF;}
	.st1{fill:#1372F3;}
</style>
<path class="st0" d="M4,8.8h2.9L18,40.2L28.3,8.7h2l10.3,31.5L51.8,8.8h2.7L41.7,44.3h-2.1L29.3,13.6L18.9,44.3h-2.1L4,8.8z"/>
<path class="st0" d="M73.7,8.5h2.5L92.6,44h-2.9l-4.5-9.9H64.4L59.9,44h-2.7L73.7,8.5z M84.1,31.8l-9.3-20.4l-9.3,20.4H84.1z"/>
<path class="st0" d="M107.8,11.2H95.5V8.8h27.2v2.4h-12.3V44h-2.6V11.2z"/>
<path class="st0" d="M143,11.2h-12.3V8.8h27.2v2.4h-12.3V44H143V11.2z"/>
<path class="st0" d="M165.4,38.9l1.7-2c3.9,3.6,7.5,5.2,12.7,5.2c5.3,0,8.9-3,8.9-7v-0.1c0-3.7-2-5.9-10-7.5
	c-8.5-1.7-11.9-4.6-11.9-9.9v-0.1c0-5.2,4.8-9.3,11.3-9.3c5.1,0,8.5,1.4,12.1,4.3l-1.7,2.1c-3.3-2.9-6.7-4-10.5-4
	c-5.2,0-8.6,3-8.6,6.7v0.1c0,3.7,1.9,6,10.3,7.7c8.2,1.7,11.6,4.6,11.6,9.7v0.1c0,5.7-4.9,9.6-11.7,9.6
	C173.9,44.5,169.6,42.7,165.4,38.9z"/>
<path class="st0" d="M233.1,26.5v-0.1c0-9.5,6.9-18.2,17.4-18.2c5.7,0,9.4,1.7,12.9,4.6l-1.7,2c-2.8-2.4-6-4.2-11.3-4.2
	c-8.6,0-14.6,7.3-14.6,15.8v0.1c0,9.1,5.7,15.9,15.1,15.9c4.5,0,8.7-1.9,11.2-4V28.2h-11.8v-2.4h14.3v13.6
	c-3.2,2.8-8.1,5.3-13.9,5.3C239.7,44.6,233.1,36.4,233.1,26.5z"/>
<path class="st0" d="M276.2,29.4V8.8h2.6v20.4c0,8.3,4.5,13.1,11.9,13.1c7.2,0,11.7-4.3,11.7-12.9V8.8h2.6v20.3
	c0,10.1-5.9,15.5-14.5,15.5C282.2,44.6,276.2,39.3,276.2,29.4z"/>
<path class="st0" d="M317.6,8.8h25.1v2.4h-22.5V25h20.2v2.4h-20.2v14.2h22.7V44h-25.4V8.8z"/>
<path class="st0" d="M353.8,8.8h14.8c4.3,0,7.8,1.4,9.9,3.5c1.7,1.7,2.7,4,2.7,6.6v0.1c0,5.9-4.4,9.3-10.3,10.1L382.6,44h-3.3
	L368,29.4h-0.1h-11.4V44h-2.6V8.8z M368.4,27.1c5.9,0,10.3-3,10.3-8.1v-0.1c0-4.7-3.7-7.7-10.1-7.7h-12v15.9H368.4z"/>
<path class="st0" d="M392.8,8.8h14.8c4.3,0,7.8,1.4,9.9,3.5c1.7,1.7,2.7,4,2.7,6.6v0.1c0,5.9-4.4,9.3-10.3,10.1L421.5,44h-3.3
	L407,29.4h-0.1h-11.4V44h-2.6V8.8z M407.3,27.1c5.9,0,10.3-3,10.3-8.1v-0.1c0-4.7-3.7-7.7-10.1-7.7h-12v15.9H407.3z"/>
<path class="st0" d="M445.2,8.5h2.5L464.1,44h-2.9l-4.5-9.9h-20.8l-4.5,9.9h-2.7L445.2,8.5z M455.7,31.8l-9.3-20.4l-9.3,20.4H455.7z
	"/>
<rect x="212" y="-0.1" class="st1" width="2" height="53"/>
<path class="st0" d="M475.2,9h1.6v7.8h4.9v1.5h-6.5V9z"/>
<path class="st0" d="M475.2,21.8h1.6v7.8h4.9v1.5h-6.5V21.8z"/>
<path class="st0" d="M474.9,34.7h3.7c0.5,0,1,0.1,1.5,0.2s0.8,0.4,1.1,0.6c0.3,0.3,0.5,0.6,0.7,1c0.2,0.4,0.2,0.8,0.2,1.3v0
	c0,0.5-0.1,1-0.3,1.4c-0.2,0.4-0.5,0.7-0.8,1c-0.3,0.3-0.7,0.5-1.2,0.6c-0.5,0.1-0.9,0.2-1.5,0.2h-1.9v3h-1.6V34.7z M478.4,39.5
	c0.6,0,1.1-0.2,1.5-0.5c0.4-0.3,0.5-0.7,0.5-1.2v0c0-0.6-0.2-1-0.5-1.2c-0.4-0.3-0.9-0.4-1.5-0.4h-1.9v3.4H478.4z"/>
</svg>
