<svg id="Layer_1" data-name="Layer 1" xmlns="http://www.w3.org/2000/svg" width="92.6" height="92.8" viewBox="0 0 92.6 92.8">
  <defs>
    <style>
      .cls-1 {
        fill: #fff;
      }
    </style>
  </defs>
  <title>pa-04-white</title>
  <path class="cls-1" d="M12.7,45.1,9,44.7c-.1,1.2-.2,2.3-.3,3.5l3.8.1C12.5,47.3,12.6,46.2,12.7,45.1ZM19.1,27l-3.2-2-1.8,3,3.3,1.8C18,28.9,18.6,27.9,19.1,27ZM12.5,51.6l-3.8.1A20.68,20.68,0,0,0,9,55.2l3.7-.4C12.6,53.7,12.5,52.6,12.5,51.6Zm1.4-12.8-3.6-1c-.3,1.1-.6,2.3-.8,3.4l3.7.7C13.4,40.9,13.6,39.8,13.9,38.8Zm.9,25.4-3.6,1.3c.4,1.1.8,2.2,1.3,3.3l3.4-1.5A28.27,28.27,0,0,0,14.8,64.2ZM13.2,58l-3.7.7c.2,1.1.5,2.3.8,3.4l3.6-1C13.6,60.1,13.4,59,13.2,58Zm4.2,12.1-3.3,1.8a23.81,23.81,0,0,0,1.8,3l3.2-2C18.5,71.9,17.9,71,17.4,70.1Zm3.5,5.4-3,2.3a28.77,28.77,0,0,0,2.2,2.7L22.9,78C22.2,77.2,21.5,76.3,20.9,75.5ZM23,21.9l-2.8-2.5c-.8.9-1.5,1.8-2.2,2.7l3,2.3A24.33,24.33,0,0,1,23,21.9ZM57.5,7.5l.2-3.8c-1.2-.1-2.3-.1-3.5-.1l.1,3.8C55.3,7.4,56.4,7.5,57.5,7.5ZM93.3,31.4l3.4-1.6c-.5-1-1.1-2.1-1.7-3.1l-3.3,1.9C92.3,29.5,92.8,30.5,93.3,31.4ZM90,25.9l3.1-2.1c-.7-1-1.4-1.9-2.1-2.8l-2.9,2.4A16.41,16.41,0,0,1,90,25.9Zm7.1,17.8,3.7-.6c-.2-1.2-.4-2.3-.6-3.4l-3.7.8C96.7,41.6,96.9,42.6,97.1,43.7ZM86,20.9l2.7-2.6c-.8-.8-1.6-1.7-2.5-2.5l-2.5,2.8A25,25,0,0,1,86,20.9Zm9.7,16.5,3.6-1.1A21.9,21.9,0,0,0,98.1,33l-3.5,1.4C95,35.4,95.3,36.4,95.7,37.4ZM71.4,6.7c-1.1-.4-2.2-.8-3.3-1.1L67,9.2c1,.3,2.1.6,3.1,1Zm-26.7,2L43.8,5c-1.1.3-2.3.6-3.4,1l1.2,3.6ZM22.5,83c.8.8,1.7,1.6,2.6,2.4l2.4-2.9c-.8-.7-1.6-1.4-2.4-2.2ZM51,7.6l-.3-3.8c-1.2.1-2.3.3-3.5.5L47.8,8C48.9,7.9,50,7.7,51,7.6ZM64.7,4.7c-1.1-.2-2.3-.4-3.5-.6l-.5,3.7c1.1.1,2.1.3,3.2.5Zm-48.6,28-3.4-1.5c-.5,1.1-.9,2.2-1.3,3.3L15,35.8A11.47,11.47,0,0,1,16.1,32.7ZM83.6,81.5l2.5,2.8a29.49,29.49,0,0,0,2.5-2.5l-2.7-2.6A25,25,0,0,1,83.6,81.5Zm-5-66.9a24.76,24.76,0,0,1,2.6,1.9l2.3-3c-.9-.7-1.9-1.4-2.8-2.1ZM88,76.8l2.9,2.4c.7-.9,1.4-1.8,2.1-2.8l-3.1-2.2A15.72,15.72,0,0,1,88,76.8ZM73,11.4c1,.5,1.9,1,2.9,1.5l1.9-3.3c-1-.6-2.1-1.1-3.1-1.6Zm-.1,77.2L74.5,92a30.13,30.13,0,0,0,3.1-1.6l-1.8-3.3A20,20,0,0,1,72.9,88.6Zm5.6-3.1,2.1,3.1a18.6,18.6,0,0,0,2.8-2.1l-2.3-3A25.6,25.6,0,0,1,78.5,85.5Zm18-25.9,3.7.8c.3-1.1.5-2.3.7-3.4l-3.7-.6C96.9,57.5,96.7,58.5,96.5,59.6Zm4.7-13-3.8.3c.1,1,.1,2.1.1,3.1s0,2.2-.1,3.2l3.8.3c.1-1.2.1-2.3.1-3.5S101.3,47.7,101.2,46.6ZM94.5,65.7,98,67.1l1.2-3.3-3.6-1.1C95.3,63.7,94.9,64.7,94.5,65.7ZM22.6,16.9l2.6,2.7c.8-.7,1.6-1.5,2.4-2.2l-2.4-2.9C24.3,15.3,23.4,16.1,22.6,16.9ZM91.7,71.5,95,73.4c.6-1,1.1-2,1.7-3.1l-3.4-1.7C92.8,69.6,92.2,70.6,91.7,71.5ZM34,8.7l1.7,3.4c1-.5,1.9-.9,2.9-1.4L37.1,7.2C36.1,7.7,35,8.2,34,8.7Zm-.2,82.5c1,.5,2.1,1,3.2,1.5l1.5-3.5a25.91,25.91,0,0,1-2.9-1.4Zm33.1-.3L68,94.5c1.1-.3,2.2-.7,3.3-1.1L70,89.9C68.9,90.2,67.9,90.6,66.9,90.9ZM27.8,87.6a29,29,0,0,0,2.9,1.9l2-3.2L30,84.5ZM28,12.4l2.2,3.1,2.7-1.8-2-3.2A18.08,18.08,0,0,0,28,12.4ZM47.1,95.7c1.1.2,2.3.4,3.5.5l.4-3.8c-1.1-.1-2.1-.2-3.2-.4ZM55,92.6h-.9L54,96.4h.9a22.6,22.6,0,0,0,2.6-.1l-.2-3.8C56.6,92.5,55.8,92.6,55,92.6Zm5.6-.4.5,3.7c1.2-.2,2.3-.3,3.5-.6l-.8-3.7A19.85,19.85,0,0,1,60.6,92.2ZM40.3,94a33.74,33.74,0,0,0,3.4,1l.9-3.7-3.1-.9Zm2.6-44.9h4.8l-.2.2L57.9,59.7,47.5,70.1l2.7,2.7L60.6,62.4,71,72.8l2.7-2.7L63.3,59.7,73.7,49.3,71,46.6,60.6,57l-8-8h2a7.55,7.55,0,0,0,7.5-7.5V35.9a7.55,7.55,0,0,0-7.5-7.5H39.3v1.9H39V61.7h3.8l.1-12.6ZM58.4,35.9v5.6a3.69,3.69,0,0,1-3.7,3.7H42.9V32.1H54.7A3.92,3.92,0,0,1,58.4,35.9Z" transform="translate(-8.7 -3.6)"/>
</svg>
