<svg viewBox="0 0 110 100" xmlns="http://www.w3.org/2000/svg"><path d="m70.3 26.6a1.06 1.06 0 0 0 -1.2.1l-14.1 9.5-14.2-9.5a1.45 1.45 0 0 0 -.7-.2 1.27 1.27 0 0 0 -.6.1 1.1 1.1 0 0 0 -.6 1v30.7a16 16 0 0 0 14.1 15.9l.7.1v17.6a1.2 1.2 0 1 0 2.4 0v-17.6l.7-.1a16 16 0 0 0 14.1-15.9v-30.6a.91.91 0 0 0 -.6-1.1zm-1.6 12.8-7.9 5.3a1.15 1.15 0 0 0 -.3 1.6 1.13 1.13 0 0 0 1.6.3l6.6-4.4v8.1l-7.9 5.3a1.16 1.16 0 0 0 -.5.7 1 1 0 0 0 .2.9 1.13 1.13 0 0 0 1.6.3l6.6-4.4v5.2a13.7 13.7 0 1 1 -27.4 0v-5.2l6.6 4.4a1.13 1.13 0 0 0 1.6-.3 1.49 1.49 0 0 0 .2-.9c-.1-.3-.2-.6-.5-.7l-7.9-5.3v-8.1l6.6 4.4a1.15 1.15 0 0 0 1.3-1.9l-7.9-5.3v-9.5l13 8.7a1.05 1.05 0 0 0 1.3 0l13-8.7zm-14.9-13.3v-18a1.2 1.2 0 0 1 2.4 0v18a1.2 1.2 0 1 1 -2.4 0zm-8-3.9v-7.6a1.22 1.22 0 0 1 1.2-1.2 1.16 1.16 0 0 1 1.2 1.2v7.6a1.16 1.16 0 0 1 -1.2 1.2 1.38 1.38 0 0 1 -1.2-1.2zm15.9 0v-7.6a1.2 1.2 0 1 1 2.4 0v7.6a1.16 1.16 0 0 1 -1.2 1.2 1.22 1.22 0 0 1 -1.2-1.2zm-30.9 31.7a1 1 0 0 0 -1.2.1l-6.7 4.5v-9.2a1.16 1.16 0 0 0 -1.2-1.2 1.22 1.22 0 0 0 -1.2 1.2v9.2l-6.7-4.5a1.45 1.45 0 0 0 -.7-.2 1.27 1.27 0 0 0 -.6.1 1.1 1.1 0 0 0 -.6 1v17.7a9.75 9.75 0 0 0 7.9 9.6l.7.1v9.6a1.2 1.2 0 0 0 2.4 0v-9.6l.7-.1a9.75 9.75 0 0 0 7.9-9.6v-17.7a2.55 2.55 0 0 0 -.7-1zm-1.8 11.9-4.3 2.9a1.16 1.16 0 0 0 -.5.7 1 1 0 0 0 .2.9 1.13 1.13 0 0 0 1.6.3l3-2v3.9a7.4 7.4 0 1 1 -14.8 0v-3.9l3 2a1.15 1.15 0 1 0 1.3-1.9l-4.3-2.9v-8.7l6.7 4.5a1.05 1.05 0 0 0 1.3 0l6.7-4.5zm68.5-11.9a1 1 0 0 0 -1.2.1l-6.7 4.5v-9.2a1.16 1.16 0 0 0 -1.2-1.2 1.22 1.22 0 0 0 -1.2 1.2v9.2l-6.7-4.5a1.45 1.45 0 0 0 -.7-.2 1.27 1.27 0 0 0 -.6.1 1.1 1.1 0 0 0 -.6 1v17.7a9.75 9.75 0 0 0 7.9 9.6l.7.1v9.6a1.2 1.2 0 1 0 2.4 0v-9.6l.7-.1a9.75 9.75 0 0 0 7.9-9.6v-17.7a1.83 1.83 0 0 0 -.7-1zm-1.8 11.9-4.3 2.9a1.16 1.16 0 0 0 -.5.7 1 1 0 0 0 .2.9 1.13 1.13 0 0 0 1.6.3l3-2v3.9a7.4 7.4 0 0 1 -14.8 0v-3.9l3 2a1.15 1.15 0 0 0 1.3-1.9l-4.3-2.9v-8.7l6.7 4.5a1.05 1.05 0 0 0 1.3 0l6.7-4.5z" fill="#fff"/></svg>