<svg height="74.4" viewBox="0 0 74.29 74.4" width="74.29" xmlns="http://www.w3.org/2000/svg"><path d="m84.1 67.6c4.3-3.6 8.7-8.4 7.9-12.9-.4-2.2-2.1-5.1-8.2-6.1a1.47 1.47 0 0 0 -.5 2.9c2.4.4 5.3 1.4 5.7 3.7.4 2.6-2.3 6.4-7.4 10.5a71.14 71.14 0 0 0 -6.4-4.2 1.6 1.6 0 0 0 -2.1.5 1.46 1.46 0 0 0 .5 2 45.79 45.79 0 0 1 5.4 3.5 90.46 90.46 0 0 1 -22.5 11.3c-.5.2-1.1.4-1.6.6-.5-.2-1.1-.4-1.6-.6a97.85 97.85 0 0 1 -22.5-11.3 63.39 63.39 0 0 1 5.4-3.5 1.53 1.53 0 0 0 -1.6-2.6 71.14 71.14 0 0 0 -6.4 4.2c-5.1-4.1-7.9-8-7.4-10.5.4-2.3 3.3-3.3 5.8-3.7a1.47 1.47 0 1 0 -.5-2.9c-6.1 1.1-7.9 3.9-8.2 6.2-.8 4.6 3.6 9.4 7.9 12.9-5.7 4.7-8.5 9.2-7.9 13a6.4 6.4 0 0 0 3.3 4.5c2.4 1.4 5.9 2.1 10.2 2.1 6.4 0 14.7-1.5 23.5-4.5 8.9 2.9 17.1 4.5 23.5 4.5 4.3 0 7.8-.7 10.2-2.1a6.21 6.21 0 0 0 3.3-4.5c.7-3.8-2.1-8.4-7.8-13zm-61.3 14.8a3.44 3.44 0 0 1 -1.9-2.4c-.4-2.6 2.4-6.5 7.4-10.6a95.62 95.62 0 0 0 21.9 11.5c-12.1 3.5-22.9 4.2-27.4 1.5zm66.3-2.3a3.44 3.44 0 0 1 -1.9 2.4c-4.5 2.7-15.3 2-27.5-1.5a95.62 95.62 0 0 0 21.9-11.5c5.1 3.9 7.9 7.9 7.5 10.6zm-34.3-12.7h.4a56.45 56.45 0 0 0 11.6-6.4c7.6-5.3 11.5-10.9 11.5-16.5v-20.6a1.54 1.54 0 0 0 -1.5-1.5 8.07 8.07 0 0 1 -8.1-8.1 1.54 1.54 0 0 0 -1.5-1.5h-24.4a1.54 1.54 0 0 0 -1.5 1.5 8.07 8.07 0 0 1 -8.1 8.1 1.54 1.54 0 0 0 -1.5 1.5v20.6c0 13.7 22.8 22.9 23.1 22.9zm-20.2-42a11.14 11.14 0 0 0 9.5-9.5h21.6a11.14 11.14 0 0 0 9.5 9.5v19.2c0 9.6-16 18-20.4 19.8-4.3-1.8-20.3-10.2-20.4-19.8.2-7.5.2-16 .2-19.2zm5.4 19.1v-14.4a1.34 1.34 0 0 1 .8-1.3 16.87 16.87 0 0 0 7-7 1.3 1.3 0 0 1 1.2-.8h12a1.5 1.5 0 0 1 0 3h-11a19.57 19.57 0 0 1 -7 7v13.5c0 .7 1.1 3.3 6.2 7a1.46 1.46 0 0 1 .3 2.1 1.56 1.56 0 0 1 -1.2.6 1.61 1.61 0 0 1 -.9-.3c-4.8-3.4-7.4-6.8-7.4-9.4z" fill="#fff" transform="translate(-17.81 -12.8)"/></svg>