<svg version="1.1" id="Layer_1" xmlns="http://www.w3.org/2000/svg" xmlns:xlink="http://www.w3.org/1999/xlink" x="0px" y="0px"
	 width="110px" height="100px" viewBox="0 0 110 100" style="enable-background:new 0 0 110 100;" xml:space="preserve">
<style type="text/css">
	.st0{fill:url(#SVGID_1_);}
	.st1{fill:url(#SVGID_2_);}
	.st2{fill:url(#SVGID_3_);}
	.st3{fill:url(#SVGID_4_);}
	.st4{fill:url(#SVGID_5_);}
	.st5{fill:url(#SVGID_6_);}
	.st6{fill:url(#SVGID_7_);}
	.st7{fill:url(#SVGID_8_);}
</style>
<linearGradient id="SVGID_1_" gradientUnits="userSpaceOnUse" x1="20.8" y1="4.6" x2="89.213" y2="73.013">
	<stop  offset="0" style="stop-color:#109BFB"/>
	<stop  offset="1" style="stop-color:#1D3EC0"/>
</linearGradient>
<path class="st0" d="M80.6,11.8h13.8V9.7H80.6c-2.2,0-5.1,1.2-6.7,2.6L56,28.9v-5.8c2.5-0.5,4.4-2.7,4.4-5.3c0-3-2.4-5.4-5.4-5.4
	s-5.4,2.4-5.4,5.4c0,2.6,1.9,4.8,4.4,5.3v5.8L36.1,12.4c-1.6-1.5-4.5-2.6-6.7-2.6H15.6v2.1h13.8c1.7,0,4.1,0.9,5.3,2.1l2.8,2.6H18.4
	v2.1h21.3l5,4.7H21.1v2.1H47l7,6.4v11.8c-5.2-0.5-9.3-4.9-9.3-10.3c0-2.1-1.7-3.8-3.8-3.8s-3.8,1.7-3.8,3.8c0,5.6,2.6,10.7,6.9,14.1
	c-4.4,3.4-6.9,8.6-6.9,14.1c0,5.6,2.6,10.7,6.9,14.1c-4.1,3.2-6.6,8-6.9,13.2c0,0.3,0.1,0.6,0.3,0.8c0.2,0.2,0.5,0.3,0.8,0.3h5.5
	c0.5,0,1-0.4,1-1c0.4-5,4.4-9,9.3-9.5v10.8h2V79.5c4.9,0.5,8.9,4.5,9.3,9.5c0,0.5,0.5,1,1,1h5.5c0.3,0,0.6-0.1,0.7-0.3
	c0.2-0.2,0.3-0.5,0.3-0.8c-0.3-5.2-2.8-10-6.9-13.2c4.4-3.4,6.9-8.6,6.9-14.1c0-5.6-2.6-10.7-6.9-14.1c4.4-3.4,6.9-8.6,6.9-14.1
	c0-2.1-1.7-3.8-3.8-3.8c-2.1,0-3.8,1.7-3.8,3.8c0,5.4-4.1,9.8-9.3,10.3v-12l7-6.5h25.8v-2.1H65.3l5-4.7h21.3v-2.1H72.5l2.8-2.6
	C76.5,12.8,78.9,11.8,80.6,11.8z M51.6,17.8c0-1.9,1.5-3.4,3.4-3.4s3.4,1.5,3.4,3.4s-1.5,3.4-3.4,3.4C53.1,21.1,51.6,19.6,51.6,17.8
	z M39.1,33.2c0-1,0.8-1.7,1.7-1.7c1,0,1.7,0.8,1.7,1.7c0,4.9,2.9,9.2,7,11.2c-0.3,0.1-0.5,0.2-0.8,0.3c-0.1,0-0.1,0-0.2,0.1
	c-0.4,0.1-0.7,0.3-1.1,0.5c-0.1,0.1-0.2,0.1-0.3,0.2c-0.3,0.1-0.5,0.2-0.7,0.4C46.3,46,46.2,46,46,46.1c0-0.1-0.1-0.1-0.2,0
	C41.6,43.1,39.1,38.3,39.1,33.2z M70.7,87.8h-3.5c-0.6-4.1-3.3-7.5-6.9-9.3c0.3-0.1,0.6-0.2,0.8-0.3h0.1c0.4-0.1,0.7-0.3,1.1-0.5
	c0.1-0.1,0.2-0.1,0.3-0.2c0.2-0.1,0.5-0.2,0.7-0.4c0.1-0.1,0.3-0.1,0.4-0.2c0.1-0.1,0.2-0.1,0.3-0.2C67.8,79.4,70.2,83.5,70.7,87.8z
	 M70.8,61.5c0,5.4-2.7,10.3-7.2,13.3c-2.6,1.7-5.6,2.6-8.7,2.6c-6.1,0-11.3,4.5-12.3,10.5h-3.5c0.6-4.6,3.1-8.8,7.1-11.4
	c2.6-1.7,5.6-2.6,8.7-2.6c6.8,0,12.4-5.6,12.4-12.4c0-0.4,0-0.8-0.1-1.1c0-0.1,0-0.2,0-0.3c0-0.3-0.1-0.6-0.1-0.9c0-0.1,0-0.2,0-0.2
	c-0.1-0.4-0.2-0.7-0.3-1.1c0-0.1,0-0.1-0.1-0.2c-0.1-0.3-0.2-0.6-0.3-0.8c0-0.1-0.1-0.2-0.1-0.3c-0.1-0.3-0.3-0.6-0.4-0.9
	c0,0,0,0,0-0.1c-0.2-0.3-0.4-0.6-0.6-0.9c-0.1-0.1-0.1-0.2-0.2-0.2c-0.2-0.2-0.3-0.5-0.5-0.7c-0.1-0.1-0.1-0.1-0.2-0.2
	c-0.2-0.3-0.5-0.5-0.7-0.8l-0.1-0.1c-0.2-0.2-0.4-0.4-0.6-0.6c-0.1-0.1-0.2-0.1-0.2-0.2c-0.2-0.2-0.5-0.4-0.8-0.6c0,0-0.1,0-0.1-0.1
	c-0.3-0.2-0.6-0.4-0.9-0.6c-0.1,0-0.2-0.1-0.3-0.1c-0.1-0.1-0.2-0.1-0.3-0.2c0.3-0.1,0.5-0.2,0.8-0.3c0.1,0,0.1,0,0.2-0.1
	c0.4-0.1,0.7-0.3,1.1-0.5c0.1-0.1,0.2-0.1,0.3-0.2c0.3-0.1,0.5-0.2,0.7-0.4c0.1-0.1,0.2-0.1,0.4-0.2c0.1-0.1,0.2-0.1,0.3-0.2
	C68.4,51.6,70.8,56.3,70.8,61.5z M56,51.2c5.2,0.5,9.3,4.9,9.3,10.3s-4.1,9.8-9.3,10.3C56,71.8,56,51.2,56,51.2z M53.9,71.8
	c-5.2-0.5-9.3-4.9-9.3-10.3s4.1-9.8,9.3-10.3V71.8z M67.4,33.2c0-1,0.8-1.7,1.7-1.7s1.7,0.8,1.7,1.7c0,5.4-2.7,10.3-7.2,13.3
	c-2.6,1.7-5.6,2.6-8.7,2.6c-6.8,0-12.4,5.6-12.4,12.4c0,0.4,0,0.8,0.1,1.1c0,0.1,0,0.2,0,0.3c0,0.3,0.1,0.6,0.1,0.9
	c0,0.1,0,0.2,0,0.3c0.1,0.4,0.2,0.7,0.3,1.1c0,0.1,0.1,0.1,0.1,0.2c0.1,0.3,0.2,0.6,0.3,0.8c0,0.1,0.1,0.2,0.1,0.3
	c0.1,0.3,0.3,0.6,0.4,0.9c0,0,0,0,0,0.1c0.2,0.3,0.4,0.6,0.6,0.9c0.1,0.1,0.1,0.2,0.2,0.2c0.2,0.2,0.3,0.5,0.5,0.7
	c0.1,0.1,0.1,0.1,0.2,0.2c0.2,0.3,0.5,0.5,0.7,0.8c0,0,0.1,0.1,0.2,0.1c0.2,0.2,0.4,0.4,0.6,0.6c0.1,0.1,0.2,0.1,0.2,0.2
	c0.2,0.2,0.5,0.4,0.8,0.6l0.1,0.1c0.3,0.2,0.6,0.4,0.9,0.6c0.1,0,0.2,0.1,0.3,0.1c0.1,0.1,0.2,0.1,0.3,0.2c-0.3,0.1-0.5,0.2-0.8,0.3
	c0,0-0.1,0-0.1,0.1c-0.4,0.1-0.7,0.3-1.1,0.5c-0.1,0-0.2,0.1-0.3,0.2c-0.3,0.1-0.5,0.3-0.8,0.4c-0.1,0.1-0.2,0.1-0.4,0.2
	c-0.1,0.1-0.2,0.1-0.3,0.2c-4.2-3-6.6-7.8-6.6-12.9c0-5.4,2.7-10.3,7.2-13.3c2.6-1.7,5.6-2.6,8.7-2.6C61.8,45.6,67.4,40,67.4,33.2z"
	/>
</svg>
