<svg id="Layer_1" data-name="Layer 1" xmlns="http://www.w3.org/2000/svg" viewBox="0 0 110 100">
  <defs>
    <style>
      .cls-1 {
        fill: #fff;
      }
    </style>
  </defs>
  <title>pa-07-white</title>
  <path class="cls-1" d="M70.3,26.6a1.06,1.06,0,0,0-1.2.1L55,36.2,40.8,26.7a1.45,1.45,0,0,0-.7-.2,1.27,1.27,0,0,0-.6.1,1.1,1.1,0,0,0-.6,1V58.3A16,16,0,0,0,53,74.2l.7.1V91.9a1.2,1.2,0,1,0,2.4,0V74.3l.7-.1A16,16,0,0,0,70.9,58.3V27.7A.91.91,0,0,0,70.3,26.6ZM68.7,39.4l-7.9,5.3a1.15,1.15,0,0,0-.3,1.6,1.13,1.13,0,0,0,1.6.3l6.6-4.4v8.1l-7.9,5.3a1.16,1.16,0,0,0-.5.7,1,1,0,0,0,.2.9,1.13,1.13,0,0,0,1.6.3l6.6-4.4v5.2a13.7,13.7,0,1,1-27.4,0V53.1l6.6,4.4a1.13,1.13,0,0,0,1.6-.3,1.49,1.49,0,0,0,.2-.9c-.1-.3-.2-.6-.5-.7l-7.9-5.3V42.2l6.6,4.4a1.15,1.15,0,0,0,1.3-1.9l-7.9-5.3V29.9l13,8.7a1.05,1.05,0,0,0,1.3,0l13-8.7.1,9.5ZM53.8,26.1V8.1a1.2,1.2,0,0,1,2.4,0v18a1.2,1.2,0,1,1-2.4,0Zm-8-3.9V14.6A1.22,1.22,0,0,1,47,13.4a1.16,1.16,0,0,1,1.2,1.2v7.6A1.16,1.16,0,0,1,47,23.4,1.38,1.38,0,0,1,45.8,22.2Zm15.9,0V14.6a1.2,1.2,0,1,1,2.4,0v7.6a1.16,1.16,0,0,1-1.2,1.2A1.22,1.22,0,0,1,61.7,22.2ZM30.8,53.9a1,1,0,0,0-1.2.1l-6.7,4.5V49.3a1.16,1.16,0,0,0-1.2-1.2,1.22,1.22,0,0,0-1.2,1.2v9.2L13.8,54a1.45,1.45,0,0,0-.7-.2,1.27,1.27,0,0,0-.6.1,1.1,1.1,0,0,0-.6,1V72.6a9.75,9.75,0,0,0,7.9,9.6l.7.1v9.6a1.2,1.2,0,0,0,2.4,0V82.3l.7-.1a9.75,9.75,0,0,0,7.9-9.6V54.9A2.55,2.55,0,0,0,30.8,53.9ZM29,65.8l-4.3,2.9a1.16,1.16,0,0,0-.5.7,1,1,0,0,0,.2.9,1.13,1.13,0,0,0,1.6.3l3-2v3.9a7.4,7.4,0,1,1-14.8,0V68.6l3,2a1.15,1.15,0,1,0,1.3-1.9l-4.3-2.9V57.1l6.7,4.5a1.05,1.05,0,0,0,1.3,0l6.7-4.5.1,8.7ZM97.5,53.9a1,1,0,0,0-1.2.1l-6.7,4.5V49.3a1.16,1.16,0,0,0-1.2-1.2,1.22,1.22,0,0,0-1.2,1.2v9.2L80.5,54a1.45,1.45,0,0,0-.7-.2,1.27,1.27,0,0,0-.6.1,1.1,1.1,0,0,0-.6,1V72.6a9.75,9.75,0,0,0,7.9,9.6l.7.1v9.6a1.2,1.2,0,1,0,2.4,0V82.3l.7-.1a9.75,9.75,0,0,0,7.9-9.6V54.9A1.83,1.83,0,0,0,97.5,53.9ZM95.7,65.8l-4.3,2.9a1.16,1.16,0,0,0-.5.7,1,1,0,0,0,.2.9,1.13,1.13,0,0,0,1.6.3l3-2v3.9a7.4,7.4,0,0,1-14.8,0V68.6l3,2a1.15,1.15,0,0,0,1.3-1.9l-4.3-2.9V57.1l6.7,4.5a1.05,1.05,0,0,0,1.3,0l6.7-4.5.1,8.7Z"/>
</svg>
