<svg id="Layer_1" data-name="Layer 1" xmlns="http://www.w3.org/2000/svg" viewBox="0 0 110 100">
  <defs>
    <style>
      .cls-1 {
        fill: #fff;
      }
    </style>
  </defs>
  <title>pa-03-white</title>
  <path class="cls-1" d="M23,60.1a5.6,5.6,0,1,0,5.6,5.6A5.59,5.59,0,0,0,23,60.1Zm0,9a3.4,3.4,0,1,1,3.4-3.4A3.37,3.37,0,0,1,23,69.1Zm59.1-9a5.6,5.6,0,1,0,5.6,5.6A5.59,5.59,0,0,0,82.1,60.1Zm0,9a3.4,3.4,0,1,1,3.4-3.4A3.37,3.37,0,0,1,82.1,69.1ZM52.2,48h5.2v2.3H52.2Zm55.1,4.5h0c-.2-3.6-3.2-8.4-8.1-10.3h0a21.72,21.72,0,0,0-2.4-.7H83.1C80.9,38.6,69.3,24,59.4,22.7H34.2a9.72,9.72,0,0,0-8,3.5C23.5,29.5,17,36.6,13.8,39c-1.8,1.4-6.4,2-8.1,2.1a3,3,0,0,0-3,3.1V64.7a3.12,3.12,0,0,0,3.1,3.1H12a11.37,11.37,0,0,0,22.4,0H70.9a11.37,11.37,0,0,0,22.4,0h10.9a3.12,3.12,0,0,0,3.1-3.1V52.5Zm-2.4-.8h-.1c-.1,0-.3.1-.4.1h-.8a5,5,0,0,1-5-5,1.7,1.7,0,0,1,.1-.7v-.2a4.33,4.33,0,0,1,.1-.5c0-.1,0-.1.1-.2l.3-.6A11.09,11.09,0,0,1,104.9,51.7ZM5.6,43.3h0c.8-.1,6.8-.6,9.4-2.5,3.5-2.6,10.3-10.1,12.8-13.1,1-1.2,2.7-2.7,6.3-2.7H59.2C69,26.3,81.6,43.2,81.7,43.3a1.05,1.05,0,0,0,.9.5h14a4.33,4.33,0,0,1,.5.1c-.1.2-.2.5-.3.7h0a3,3,0,0,0-.2,1v.3a3.75,3.75,0,0,0-.1,1.1,7.17,7.17,0,0,0,7.2,7.2h1a.9.9,0,0,0,.5-.1v6.7H92.5c-.1-.1-.1-.3-.2-.4s-.2-.3-.3-.5-.2-.3-.3-.4-.2-.3-.3-.5-.2-.3-.3-.4-.3-.3-.4-.4a1.38,1.38,0,0,1-.3-.4l-.4-.4a1.38,1.38,0,0,0-.4-.3,1.76,1.76,0,0,1-.5-.4c-.1-.1-.3-.2-.4-.3s-.3-.2-.5-.3a.76.76,0,0,0-.4-.2l-.6-.3c-.1-.1-.3-.1-.4-.2s-.4-.1-.6-.2-.3-.1-.4-.2a6.37,6.37,0,0,0-.7-.2c-.1,0-.3-.1-.4-.1s-.5-.1-.7-.1a.6.6,0,0,1-.4-.1c-.4,0-.8-.1-1.2-.1a4.87,4.87,0,0,0-1.2.1.6.6,0,0,0-.4.1c-.2,0-.5.1-.7.1s-.3.1-.4.1a.73.73,0,0,1-.6.2c-.2,0-.3.1-.5.2s-.4.1-.6.2-.3.1-.4.2a2.19,2.19,0,0,0-.5.3c-.1.1-.3.2-.4.3s-.3.2-.5.3-.3.2-.4.3-.3.2-.5.3-.3.2-.4.3l-.4.4a1.38,1.38,0,0,0-.3.4l-.4.4c-.1.1-.2.3-.3.4s-.2.3-.3.5-.2.3-.3.4-.2.3-.3.5-.1.3-.2.4H48.6V44.5H70.9c2,0,3.4-.7,3.9-1.9s-.2-2.8-2-4.5l-.3-.3c-4.8-4.3-9.3-8.4-13.1-9.1H34.5c-2.2,0-3,.7-3.5,1.4-.9,1-4.1,4.8-7.6,8.4-1.1,1.1-2,2.8-1.4,4.3q.75,1.8,3.9,1.8h20V61H33.2c-.1-.1-.1-.3-.2-.4s-.2-.3-.3-.5-.2-.3-.3-.4-.2-.3-.3-.5-.2-.3-.3-.4l-.4-.4c-.1-.1-.2-.3-.3-.4l-.4-.4a1.38,1.38,0,0,0-.4-.3c-.2-.1-.3-.3-.5-.5s-.3-.2-.4-.3-.3-.2-.5-.3-.3-.2-.4-.3l-.6-.3c-.1-.1-.3-.1-.4-.2s-.4-.1-.6-.2-.3-.1-.4-.2a6.37,6.37,0,0,0-.7-.2c-.1,0-.3-.1-.4-.1s-.5-.1-.7-.1a.6.6,0,0,1-.4-.1c-.4,0-.8-.1-1.2-.1a4.87,4.87,0,0,0-1.2.1.6.6,0,0,0-.4.1c-.2,0-.5.1-.7.1s-.3.1-.4.1c-.2.2-.4.2-.7.3a.76.76,0,0,0-.4.2c-.2.1-.4.1-.6.2s-.3.1-.4.2l-.6.3c-.1.1-.3.2-.4.3s-.3.2-.5.3-.3.2-.4.3a1.76,1.76,0,0,0-.5.4,1.38,1.38,0,0,1-.4.3l-.4.4a1.38,1.38,0,0,0-.3.4l-.4.4c-.1.1-.2.3-.3.4s-.2.3-.3.5-.2.3-.3.4-.2.3-.3.5-.1.3-.2.4H4.9V54H9a1.11,1.11,0,0,0,1.1-1.1V47A1.11,1.11,0,0,0,9,45.9H4.9V44.2C4.8,43.6,5.1,43.3,5.6,43.3ZM70.9,63.8c0,.2-.1.4-.1.6v1H34.5V64.3c0-.2-.1-.4-.1-.6a4.33,4.33,0,0,0-.1-.5c0-.1-.1-.3-.1-.4h37c0,.1-.1.3-.1.4A1,1,0,0,0,70.9,63.8Zm-22.7-33H58.7c3.1.6,7.6,4.7,11.9,8.6l.3.3c1.3,1.2,1.5,1.9,1.4,2s-.7.5-1.8.5H48.2V30.8ZM45.9,42.1H25.4a2.84,2.84,0,0,1-1.8-.4,2.77,2.77,0,0,1,.9-1.9c3.1-3.2,6.4-6.9,7.7-8.5.3-.3.5-.6,1.8-.6H45.9ZM4.8,48H7.7v3.6H4.8Zm0,16.6V62.9H12c0,.1-.1.3-.1.4a4.33,4.33,0,0,1-.1.5c0,.2-.1.4-.1.6v1h-6C5.1,65.4,4.8,65.1,4.8,64.6ZM23,74.9a9.15,9.15,0,0,1-9.1-8.4h0v-.8a9.1,9.1,0,0,1,18.2,0v.8h0A9.15,9.15,0,0,1,23,74.9Zm59.1,0A9.15,9.15,0,0,1,73,66.5h0v-.8a9.1,9.1,0,0,1,18.2,0v.8h0A9.15,9.15,0,0,1,82.1,74.9Zm22.1-9.5H93.5v-1c0-.2-.1-.4-.1-.6a4.33,4.33,0,0,0-.1-.5c0-.1-.1-.3-.1-.4h11.9v1.7A.88.88,0,0,1,104.2,65.4Z"/>
</svg>
