<?xml version="1.0" encoding="utf-8"?>
<!-- Generator: Adobe Illustrator 22.1.0, SVG Export Plug-In . SVG Version: 6.00 Build 0)  -->
<svg version="1.1" id="Layer_1" xmlns="http://www.w3.org/2000/svg" xmlns:xlink="http://www.w3.org/1999/xlink" x="0px" y="0px"
	 width="110px" height="100px" viewBox="0 0 110 100" style="enable-background:new 0 0 110 100;" xml:space="preserve">
<style type="text/css">
	.st0{fill:url(#SVGID_1_);}
	.st1{fill:url(#SVGID_2_);}
	.st2{fill:url(#SVGID_3_);}
	.st3{fill:url(#SVGID_4_);}
	.st4{fill:url(#SVGID_5_);}
	.st5{fill:url(#SVGID_6_);}
	.st6{fill:url(#SVGID_7_);}
	.st7{fill:url(#SVGID_8_);}
</style>
<linearGradient id="SVGID_1_" gradientUnits="userSpaceOnUse" x1="25.2554" y1="29.8446" x2="84.7554" y2="89.3446">
	<stop  offset="0" style="stop-color:#109BFB"/>
	<stop  offset="1" style="stop-color:#1D3EC0"/>
</linearGradient>
<path class="st0" d="M84.1,67.6c4.3-3.6,8.7-8.4,7.9-12.9c-0.4-2.2-2.1-5.1-8.2-6.1c-0.8-0.1-1.6,0.4-1.7,1.2
	c-0.1,0.8,0.4,1.6,1.2,1.7c2.4,0.4,5.3,1.4,5.7,3.7c0.4,2.6-2.3,6.4-7.4,10.5c-1.9-1.4-4-2.8-6.4-4.2c-0.7-0.4-1.6-0.2-2.1,0.5
	c-0.4,0.7-0.2,1.6,0.5,2c2,1.1,3.8,2.3,5.4,3.5c-5.6,4-13.3,8.1-22.5,11.3c-0.5,0.2-1.1,0.4-1.6,0.6c-0.5-0.2-1.1-0.4-1.6-0.6
	c-9.2-3.3-16.9-7.4-22.5-11.3c1.6-1.2,3.4-2.3,5.4-3.5c0.7-0.4,1-1.3,0.5-2.1c-0.4-0.7-1.3-1-2.1-0.5c-2.4,1.4-4.5,2.8-6.4,4.2
	c-5.1-4.1-7.9-8-7.4-10.5c0.4-2.3,3.3-3.3,5.8-3.7c0.8-0.1,1.4-0.9,1.2-1.7c-0.1-0.8-0.9-1.4-1.7-1.2c-6.1,1.1-7.9,3.9-8.2,6.2
	c-0.8,4.6,3.6,9.4,7.9,12.9c-5.7,4.7-8.5,9.2-7.9,13c0.3,1.8,1.4,3.4,3.3,4.5c2.4,1.4,5.9,2.1,10.2,2.1c6.4,0,14.7-1.5,23.5-4.5
	c8.9,2.9,17.1,4.5,23.5,4.5c4.3,0,7.8-0.7,10.2-2.1c1.9-1.1,3-2.6,3.3-4.5C92.6,76.8,89.8,72.2,84.1,67.6z M22.8,82.4
	c-1.1-0.6-1.7-1.4-1.9-2.4c-0.4-2.6,2.4-6.5,7.4-10.6c5.9,4.3,13.5,8.3,21.9,11.5C38.1,84.4,27.3,85.1,22.8,82.4z M89.1,80.1
	c-0.2,1-0.8,1.8-1.9,2.4c-4.5,2.7-15.3,2-27.5-1.5c8.4-3.2,16-7.2,21.9-11.5C86.7,73.4,89.5,77.4,89.1,80.1z M54.8,67.4
	c0.1,0,0.2,0,0.2,0c0.1,0,0.2,0,0.2,0c0.5-0.1,6.3-2.6,11.6-6.4c7.6-5.3,11.5-10.9,11.5-16.5c0-9.4,0-20.5,0-20.6
	c0-0.8-0.7-1.5-1.5-1.5c-4.5,0-8.1-3.6-8.1-8.1c0-0.8-0.7-1.5-1.5-1.5H42.8c-0.8,0-1.5,0.7-1.5,1.5c0,4.5-3.6,8.1-8.1,8.1
	c-0.8,0-1.5,0.7-1.5,1.5c0,0.1,0,11.3,0,20.6C31.7,58.2,54.5,67.4,54.8,67.4z M34.6,25.4c4.9-0.7,8.9-4.6,9.5-9.5h21.6
	c0.7,4.9,4.6,8.9,9.5,9.5c0,3.3,0,11.8,0,19.2c0,9.6-16,18-20.4,19.8c-4.3-1.8-20.3-10.2-20.4-19.8C34.6,37.1,34.6,28.6,34.6,25.4z
	 M40,44.5c0-4,0-8.8,0-14.4c0-0.6,0.3-1.1,0.8-1.3c3-1.6,5.4-4,7-7C48,21.3,48.5,21,49,21h12c0.8,0,1.5,0.7,1.5,1.5S61.8,24,61,24
	H50c-1.7,2.9-4.1,5.3-7,7c0,5.2,0,9.7,0,13.5c0,0.7,1.1,3.3,6.2,7c0.7,0.5,0.8,1.4,0.3,2.1c-0.3,0.4-0.8,0.6-1.2,0.6
	c-0.3,0-0.6-0.1-0.9-0.3C42.6,50.5,40,47.1,40,44.5z"/>
</svg>
