<svg enable-background="new 0 0 110 100" height="100" viewBox="0 0 110 100" width="110" xmlns="http://www.w3.org/2000/svg" xmlns:xlink="http://www.w3.org/1999/xlink"><linearGradient id="a" gradientUnits="userSpaceOnUse" x1="20.825" x2="89.925" y1="15.475" y2="84.575"><stop offset="0" stop-color="#109bfb"/><stop offset="1" stop-color="#1d3ec0"/></linearGradient><path d="m23.5 28.5c.3-1 .7-2 1.2-3l-5.8-8.1 3.9-3.9 8 5.8c1-.5 2-.9 3-1.2l1.6-9.8h5.5l1.6 9.8c1 .3 2 .7 3 1.2l8.1-5.8 3.9 3.9-5.8 8.1c.5.9.9 1.9 1.2 3l9.8 1.6v5.5l-2 .3-2.7-2.1 2-.3v-1.1l-4.6-.7-6.6-5.6-.3-.5 5.5-7.7-.8-.8-7.7 5.5-.7-.5c-1.2-.7-2.5-1.3-3.8-1.6l-.8-.2-1.5-9.3h-1.1l-1.5 9.3-.8.2c-1.3.3-2.6.8-3.8 1.6l-.7.5-7.7-5.5-.8.8 5.5 7.7-.5.7c-.7 1.2-1.3 2.5-1.6 3.8l-.2.8-9.3 1.5v1.1l9.3 1.5.2.8c.3 1.3.8 2.6 1.6 3.8l.5.7-5.5 7.6.8.8 7.7-5.5.7.5c.6.4 1.3.7 1.9 1l3.3 4.2 1 5.9h1.1l.4-2.6 2.2 2.8-.4 2.4h-5.5l-1.6-9.8c-1-.3-2-.7-3-1.2l-8.1 5.8-3.9-3.9 5.8-8.1c-.5-.9-.9-1.9-1.2-3l-9.8-1.6v-5.4zm56.2 33.7c1.6 1.7 2.6 3.9 2.6 6.4 0 5.1-4.1 9.2-9.2 9.2-2.4 0-4.6-.9-6.2-2.5l-1.9-2.5c-.7-1.3-1.1-2.7-1.1-4.3 0-5.1 4.1-9.2 9.2-9.2 1.8 0 3.5.5 5 1.5zm-6.6 13c3.7 0 6.6-3 6.6-6.6 0-3.7-3-6.6-6.6-6.6-3.7 0-6.6 3-6.6 6.6-.1 3.7 2.9 6.6 6.6 6.6m-9.6-20.6-1.9-3.3 2.2-1.3 1.9 3.3c.8-.4 1.6-.7 2.4-.9l-5.4-4.6-.1.1-2.2 1.3-2.2 1.3 1.3 2.2.8 1.3c-.6.5-1.2 1.1-1.7 1.7l-1.3-.8-2.2-1.3-1.3 2.2-.8 1.3 4.3 5.6c.2-.5.4-1 .6-1.5l-3.2-1.9 1.3-2.2 3.3 1.9c1-1.7 2.5-3.2 4.2-4.4m30.2 17.9h2.6v-2.6-2.6-2.6h-2.6-1.5c-.2-.8-.4-1.6-.6-2.3l1.3-.8 2.2-1.3-1.3-2.2-1.3-2.1-1.3-2.2-2.2 1.3-1.3.8c-.5-.6-1.1-1.2-1.7-1.7l.8-1.3 1.3-2.2-2.2-1.3-2.2-1.3-2.2-1.3-1.3 2.2-.8 1.3c-.8-.3-1.5-.5-2.3-.6v-1.5-2.6h-2.6-2.5l8.8 7.5 1.6-2.8 2.2 1.3-1.9 3.2.4.3c1.6 1.1 2.9 2.5 4 4.1l3.3-1.9 1.3 2.2-3.2 1.9c.9 1.8 1.4 3.9 1.6 6h3.8v2.6h-3.8c-.2 2.1-.7 4.2-1.6 6l3.2 1.9-1.3 2.2-3.3-1.9c-1.2 1.7-2.7 3.2-4.4 4.4l1.9 3.3-2.2 1.3-1.9-3.2c-1.8.9-3.9 1.4-6 1.6v3.8h-2.6v-3.8c-2.1-.2-4.2-.7-6-1.6l-1.9 3.2-2.2-1.3 1.9-3.3c-1.7-1.2-3.2-2.7-4.4-4.4l-3.3 1.9-1.3-2.2 3-1.8-4.7-6.2h-.4v-.5l-2.6-3.4v1.3 2.6 2.6h2.6 1.5c.2.8.4 1.6.6 2.3l-1.3.8-2.2 1.3 1.3 2.2 1.3 2.2 1.3 2.2 2.2-1.3 1.3-.8c.5.6 1.1 1.2 1.7 1.7l-.8 1.3-1.3 2.2 2.2 1.3 2.2 1.3 2.2 1.3 1.3-2.2.8-1.3c.8.3 1.5.5 2.3.6v1.5 2.6h2.6 2.6 2.6v-2.6-1.5c.8-.2 1.6-.4 2.3-.6l.8 1.3 1.3 2.2 2.2-1.3 2.2-1.3 2.2-1.3-1.3-2.2-.8-1.3c.6-.5 1.2-1.1 1.7-1.7l1.3.8 2.2 1.3 1.3-2.2 1.3-2.2 1.3-2.2-2.2-1.3-1.3-.8c.3-.8.5-1.5.6-2.3zm-20.7-15.5h.5l-2.8-2.4c-2.8.5-5.6 1.8-7.7 3.9-2 2-3.2 4.4-3.8 6.9l2.2 2.9c.1-2.9 1.2-5.8 3.4-8 2.3-2.1 5.3-3.3 8.2-3.3m-31.9-22.1c-.7.7-1.7 1.1-2.7 1.1s-2-.4-2.7-1.1c-1.5-1.5-1.5-4 0-5.5 1.5-1.5 4-1.5 5.5 0 1.4 1.5 1.4 4-.1 5.5m-3.6-3.6c-.5.5-.5 1.3 0 1.8s1.3.5 1.8 0 .5-1.3 0-1.8-1.3-.5-1.8 0m45.5 27.2c0 .1 0 .1 0 0 5.6 5.6 5.6 14.6.1 20.1-2.8 2.8-6.4 4.1-10 4.1s-7.3-1.4-10-4.1c0 0 0-.1-.1-.1l-2.1-2.7-6.6-8.6-2-2.6-10.3-13.2-2.2-2.8-7.9-10.2c-3.4-3.5-3.4-9.2.1-12.6 1.7-1.7 4-2.6 6.4-2.6s4.6.9 6.3 2.6l10.1 8.6 2.6 2.2 11.9 10.2 2.6 2.2 2.6 2.2.8.7 6.4 5.5 1.3 1.1c-.1 0-.1 0 0 0zm-49.2-21.8c1.3 1.2 2.9 1.9 4.5 1.9h.2c1.7 0 3.2-.7 4.4-1.9s1.8-2.6 1.8-4.2c.1-1.7-.5-3.5-1.8-4.9 0 0 0-.1-.1-.1-1.2-1.2-2.8-1.9-4.6-1.9-1.7 0-3.3.7-4.6 1.9-2.3 2.6-2.3 6.7.2 9.2m47.4 40.1c4.5-4.5 4.5-11.9 0-16.4l-1.2-1.1-5.6-4.8-3.2-2.7-2.6-2.2-14.6-12.5-2.6-2.2-4.1-3.5c.1 1 0 2.1-.3 3.1-.4 1.5-1.2 2.9-2.3 4-1.2 1.2-2.8 2.1-4.4 2.4-.6.1-1.3.2-2 .2-.4 0-.8 0-1.2-.1l3.4 4.3 2 2.5 9 11.6 1.5 1.9 1.3 1.7 2 2.6 2.5 3.2 4.1 5.3 1.9 2.5.1.1c4.6 4.7 11.9 4.6 16.3.1" fill="url(#a)"/></svg>