<?xml version="1.0" encoding="utf-8"?>
<!-- Generator: Adobe Illustrator 22.1.0, SVG Export Plug-In . SVG Version: 6.00 Build 0)  -->
<svg version="1.1" id="Layer_1" xmlns="http://www.w3.org/2000/svg" xmlns:xlink="http://www.w3.org/1999/xlink" x="0px" y="0px"
	 width="110px" height="100px" viewBox="0 0 110 100" style="enable-background:new 0 0 110 100;" xml:space="preserve">
<style type="text/css">
	.st0{fill:url(#SVGID_1_);}
	.st1{fill:url(#SVGID_2_);}
	.st2{fill:url(#SVGID_3_);}
	.st3{fill:url(#SVGID_4_);}
	.st4{fill:url(#SVGID_5_);}
	.st5{fill:url(#SVGID_6_);}
	.st6{fill:url(#SVGID_7_);}
	.st7{fill:url(#SVGID_8_);}
</style>
<linearGradient id="SVGID_1_" gradientUnits="userSpaceOnUse" x1="20.825" y1="15.475" x2="89.925" y2="84.575">
	<stop  offset="0" style="stop-color:#109BFB"/>
	<stop  offset="1" style="stop-color:#1D3EC0"/>
</linearGradient>
<path class="st0" d="M23.5,28.5c0.3-1,0.7-2,1.2-3l-5.8-8.1l3.9-3.9l8,5.8c1-0.5,2-0.9,3-1.2l1.6-9.8h5.5l1.6,9.8c1,0.3,2,0.7,3,1.2
	l8.1-5.8l3.9,3.9l-5.8,8.1c0.5,0.9,0.9,1.9,1.2,3l9.8,1.6v5.5l-2,0.3L58,33.8l2-0.3v-1.1l-4.6-0.7l-6.6-5.6l-0.3-0.5l5.5-7.7
	l-0.8-0.8l-7.7,5.5l-0.7-0.5c-1.2-0.7-2.5-1.3-3.8-1.6l-0.8-0.2L38.7,11h-1.1l-1.5,9.3l-0.8,0.2c-1.3,0.3-2.6,0.8-3.8,1.6l-0.7,0.5
	l-7.7-5.5l-0.8,0.8l5.5,7.7l-0.5,0.7c-0.7,1.2-1.3,2.5-1.6,3.8l-0.2,0.8l-9.3,1.5v1.1l9.3,1.5l0.2,0.8c0.3,1.3,0.8,2.6,1.6,3.8
	l0.5,0.7l-5.5,7.6l0.8,0.8l7.7-5.5l0.7,0.5c0.6,0.4,1.3,0.7,1.9,1l3.3,4.2l1,5.9h1.1l0.4-2.6l2.2,2.8L41,57.4h-5.5l-1.6-9.8
	c-1-0.3-2-0.7-3-1.2l-8.1,5.8l-3.9-3.9l5.8-8.1c-0.5-0.9-0.9-1.9-1.2-3l-9.8-1.6v-5.4L23.5,28.5z M79.7,62.2
	c1.6,1.7,2.6,3.9,2.6,6.4c0,5.1-4.1,9.2-9.2,9.2c-2.4,0-4.6-0.9-6.2-2.5L65,72.8c-0.7-1.3-1.1-2.7-1.1-4.3c0-5.1,4.1-9.2,9.2-9.2
	c1.8,0,3.5,0.5,5,1.5L79.7,62.2L79.7,62.2z M73.1,75.2c3.7,0,6.6-3,6.6-6.6c0-3.7-3-6.6-6.6-6.6c-3.7,0-6.6,3-6.6,6.6
	C66.4,72.3,69.4,75.2,73.1,75.2 M63.5,54.6l-1.9-3.3l2.2-1.3l1.9,3.3c0.8-0.4,1.6-0.7,2.4-0.9l-5.4-4.6l-0.1,0.1l-2.2,1.3l-2.2,1.3
	l1.3,2.2l0.8,1.3c-0.6,0.5-1.2,1.1-1.7,1.7l-1.3-0.8l-2.2-1.3l-1.3,2.2L53,57.1l4.3,5.6c0.2-0.5,0.4-1,0.6-1.5l-3.2-1.9l1.3-2.2
	l3.3,1.9C60.3,57.3,61.8,55.8,63.5,54.6 M93.7,72.5h2.6v-2.6v-2.6v-2.6h-2.6h-1.5c-0.2-0.8-0.4-1.6-0.6-2.3l1.3-0.8l2.2-1.3
	l-1.3-2.2L92.5,56l-1.3-2.2L89,55.1l-1.3,0.8c-0.5-0.6-1.1-1.2-1.7-1.7l0.8-1.3l1.3-2.2l-2.2-1.3l-2.2-1.3l-2.2-1.3L80.2,49
	l-0.8,1.3c-0.8-0.3-1.5-0.5-2.3-0.6v-1.5v-2.6h-2.6H72l8.8,7.5l1.6-2.8l2.2,1.3l-1.9,3.2l0.4,0.3c1.6,1.1,2.9,2.5,4,4.1l3.3-1.9
	l1.3,2.2l-3.2,1.9c0.9,1.8,1.4,3.9,1.6,6h3.8V70h-3.8c-0.2,2.1-0.7,4.2-1.6,6l3.2,1.9l-1.3,2.2l-3.3-1.9c-1.2,1.7-2.7,3.2-4.4,4.4
	l1.9,3.3l-2.2,1.3L80.5,84c-1.8,0.9-3.9,1.4-6,1.6v3.8h-2.6v-3.8c-2.1-0.2-4.2-0.7-6-1.6L64,87.2l-2.2-1.3l1.9-3.3
	c-1.7-1.2-3.2-2.7-4.4-4.4L56,80.1l-1.3-2.2l3-1.8L53,69.9h-0.4v-0.5L50,66v1.3v2.6v2.6h2.6h1.5c0.2,0.8,0.4,1.6,0.6,2.3l-1.3,0.8
	l-2.2,1.3l1.3,2.2l1.3,2.2l1.3,2.2l2.2-1.3l1.3-0.8c0.5,0.6,1.1,1.2,1.7,1.7l-0.8,1.3l-1.3,2.2l2.2,1.3l2.2,1.3l2.2,1.3l1.3-2.2
	l0.8-1.3c0.8,0.3,1.5,0.5,2.3,0.6v1.5v2.6h2.6h2.6h2.6v-2.6v-1.5c0.8-0.2,1.6-0.4,2.3-0.6l0.8,1.3l1.3,2.2l2.2-1.3l2.2-1.3l2.2-1.3
	l-1.3-2.2l-0.8-1.3c0.6-0.5,1.2-1.1,1.7-1.7l1.3,0.8l2.2,1.3l1.3-2.2l1.3-2.2l1.3-2.2l-2.2-1.3l-1.3-0.8c0.3-0.8,0.5-1.5,0.6-2.3
	L93.7,72.5L93.7,72.5z M73,57c0.2,0,0.4,0,0.5,0l-2.8-2.4c-2.8,0.5-5.6,1.8-7.7,3.9c-2,2-3.2,4.4-3.8,6.9l2.2,2.9
	c0.1-2.9,1.2-5.8,3.4-8C67.1,58.2,70.1,57,73,57 M41.1,34.9c-0.7,0.7-1.7,1.1-2.7,1.1s-2-0.4-2.7-1.1c-1.5-1.5-1.5-4,0-5.5l0,0
	c1.5-1.5,4-1.5,5.5,0C42.6,30.9,42.6,33.4,41.1,34.9 M37.5,31.3c-0.5,0.5-0.5,1.3,0,1.8s1.3,0.5,1.8,0s0.5-1.3,0-1.8
	S38,30.8,37.5,31.3 M83,58.5C83,58.6,83,58.6,83,58.5c5.6,5.6,5.6,14.6,0.1,20.1c-2.8,2.8-6.4,4.1-10,4.1s-7.3-1.4-10-4.1
	c0,0,0-0.1-0.1-0.1l0,0l-2.1-2.7l-6.6-8.6l-2-2.6L42,51.4l-2.2-2.8l-7.9-10.2l0,0c-3.4-3.5-3.4-9.2,0.1-12.6c1.7-1.7,4-2.6,6.4-2.6
	s4.6,0.9,6.3,2.6l0,0l0,0l10.1,8.6l2.6,2.2l11.9,10.2l2.6,2.2l2.6,2.2l0.8,0.7l6.4,5.5L83,58.5L83,58.5C82.9,58.5,82.9,58.5,83,58.5
	L83,58.5z M33.8,36.7L33.8,36.7c1.3,1.2,2.9,1.9,4.5,1.9c0.1,0,0.1,0,0.2,0c1.7,0,3.2-0.7,4.4-1.9c1.2-1.2,1.8-2.6,1.8-4.2
	c0.1-1.7-0.5-3.5-1.8-4.9c0,0,0-0.1-0.1-0.1c-1.2-1.2-2.8-1.9-4.6-1.9c-1.7,0-3.3,0.7-4.6,1.9C31.3,30.1,31.3,34.2,33.8,36.7
	 M81.2,76.8c4.5-4.5,4.5-11.9,0-16.4l0,0L80,59.3l-5.6-4.8l-3.2-2.7l-2.6-2.2L54,37.1l-2.6-2.2l-4.1-3.5c0.1,1,0,2.1-0.3,3.1
	c-0.4,1.5-1.2,2.9-2.3,4c-1.2,1.2-2.8,2.1-4.4,2.4c-0.6,0.1-1.3,0.2-2,0.2c-0.4,0-0.8,0-1.2-0.1l3.4,4.3l2,2.5l9,11.6l1.5,1.9
	l1.3,1.7l2,2.6l2.5,3.2l4.1,5.3l1.9,2.5l0.1,0.1l0,0C69.5,81.4,76.8,81.3,81.2,76.8"/>
</svg>
