<svg id="Layer_1" data-name="Layer 1" xmlns="http://www.w3.org/2000/svg" width="74.29" height="74.4" viewBox="0 0 74.29 74.4">
  <defs>
    <style>
      .cls-1 {
        fill: #fff;
      }
    </style>
  </defs>
  <title>pa-02-white</title>
  <path class="cls-1" d="M84.1,67.6c4.3-3.6,8.7-8.4,7.9-12.9-.4-2.2-2.1-5.1-8.2-6.1a1.47,1.47,0,0,0-.5,2.9c2.4.4,5.3,1.4,5.7,3.7.4,2.6-2.3,6.4-7.4,10.5a71.14,71.14,0,0,0-6.4-4.2,1.6,1.6,0,0,0-2.1.5,1.46,1.46,0,0,0,.5,2A45.79,45.79,0,0,1,79,67.5,90.46,90.46,0,0,1,56.5,78.8c-.5.2-1.1.4-1.6.6-.5-.2-1.1-.4-1.6-.6A97.85,97.85,0,0,1,30.8,67.5,63.39,63.39,0,0,1,36.2,64a1.53,1.53,0,0,0-1.6-2.6,71.14,71.14,0,0,0-6.4,4.2c-5.1-4.1-7.9-8-7.4-10.5.4-2.3,3.3-3.3,5.8-3.7a1.47,1.47,0,1,0-.5-2.9c-6.1,1.1-7.9,3.9-8.2,6.2-.8,4.6,3.6,9.4,7.9,12.9-5.7,4.7-8.5,9.2-7.9,13a6.4,6.4,0,0,0,3.3,4.5c2.4,1.4,5.9,2.1,10.2,2.1,6.4,0,14.7-1.5,23.5-4.5,8.9,2.9,17.1,4.5,23.5,4.5,4.3,0,7.8-.7,10.2-2.1a6.21,6.21,0,0,0,3.3-4.5C92.6,76.8,89.8,72.2,84.1,67.6ZM22.8,82.4A3.44,3.44,0,0,1,20.9,80c-.4-2.6,2.4-6.5,7.4-10.6A95.62,95.62,0,0,0,50.2,80.9C38.1,84.4,27.3,85.1,22.8,82.4Zm66.3-2.3a3.44,3.44,0,0,1-1.9,2.4c-4.5,2.7-15.3,2-27.5-1.5A95.62,95.62,0,0,0,81.6,69.5C86.7,73.4,89.5,77.4,89.1,80.1ZM54.8,67.4h.4A56.45,56.45,0,0,0,66.8,61c7.6-5.3,11.5-10.9,11.5-16.5V23.9a1.54,1.54,0,0,0-1.5-1.5,8.07,8.07,0,0,1-8.1-8.1,1.54,1.54,0,0,0-1.5-1.5H42.8a1.54,1.54,0,0,0-1.5,1.5,8.07,8.07,0,0,1-8.1,8.1,1.54,1.54,0,0,0-1.5,1.5V44.5C31.7,58.2,54.5,67.4,54.8,67.4Zm-20.2-42a11.14,11.14,0,0,0,9.5-9.5H65.7a11.14,11.14,0,0,0,9.5,9.5V44.6c0,9.6-16,18-20.4,19.8-4.3-1.8-20.3-10.2-20.4-19.8C34.6,37.1,34.6,28.6,34.6,25.4ZM40,44.5V30.1a1.34,1.34,0,0,1,.8-1.3,16.87,16.87,0,0,0,7-7A1.3,1.3,0,0,1,49,21H61a1.5,1.5,0,0,1,0,3H50a19.57,19.57,0,0,1-7,7V44.5c0,.7,1.1,3.3,6.2,7a1.46,1.46,0,0,1,.3,2.1,1.56,1.56,0,0,1-1.2.6,1.61,1.61,0,0,1-.9-.3C42.6,50.5,40,47.1,40,44.5Z" transform="translate(-17.81 -12.8)"/>
</svg>
