<svg id="Layer_1" data-name="Layer 1" xmlns="http://www.w3.org/2000/svg" viewBox="0 0 110 100">
  <defs>
    <style>
      .cls-1 {
        fill: #fff;
      }
    </style>
  </defs>
  <title>pa-01-white</title>
  <path class="cls-1" d="M23.5,28.5a18.77,18.77,0,0,1,1.2-3l-5.8-8.1,3.9-3.9,8,5.8a18.77,18.77,0,0,1,3-1.2l1.6-9.8h5.5l1.6,9.8a18.77,18.77,0,0,1,3,1.2l8.1-5.8,3.9,3.9-5.8,8.1a13.43,13.43,0,0,1,1.2,3l9.8,1.6v5.5l-2,.3L58,33.8l2-.3V32.4l-4.6-.7-6.6-5.6-.3-.5L54,17.9l-.8-.8-7.7,5.5-.7-.5A14,14,0,0,0,41,20.5l-.8-.2L38.7,11H37.6l-1.5,9.3-.8.2a11.43,11.43,0,0,0-3.8,1.6l-.7.5-7.7-5.5-.8.8,5.5,7.7-.5.7a14,14,0,0,0-1.6,3.8l-.2.8-9.3,1.5v1.1L25.5,35l.2.8a11.43,11.43,0,0,0,1.6,3.8l.5.7-5.5,7.6.8.8,7.7-5.5.7.5a17.38,17.38,0,0,0,1.9,1l3.3,4.2,1,5.9h1.1l.4-2.6L41.4,55,41,57.4H35.5l-1.6-9.8a18.77,18.77,0,0,1-3-1.2l-8.1,5.8-3.9-3.9,5.8-8.1a13.43,13.43,0,0,1-1.2-3l-9.8-1.6V30.2ZM79.7,62.2a9.19,9.19,0,0,1-6.6,15.6,8.69,8.69,0,0,1-6.2-2.5L65,72.8a8.86,8.86,0,0,1-1.1-4.3,9.18,9.18,0,0,1,9.2-9.2,8.9,8.9,0,0,1,5,1.5l1.6,1.4Zm-6.6,13a6.6,6.6,0,1,0-6.6-6.6,6.47,6.47,0,0,0,6.6,6.6M63.5,54.6l-1.9-3.3L63.8,50l1.9,3.3a11.72,11.72,0,0,1,2.4-.9l-5.4-4.6-.1.1-2.2,1.3-2.2,1.3,1.3,2.2.8,1.3a13.65,13.65,0,0,0-1.7,1.7l-1.3-.8-2.2-1.3-1.3,2.2L53,57.1l4.3,5.6.6-1.5-3.2-1.9L56,57.1,59.3,59a14.64,14.64,0,0,1,4.2-4.4M93.7,72.5h2.6V64.7H92.2c-.2-.8-.4-1.6-.6-2.3l1.3-.8,2.2-1.3-1.3-2.2L92.5,56l-1.3-2.2L89,55.1l-1.3.8A13.65,13.65,0,0,0,86,54.2l.8-1.3,1.3-2.2-2.2-1.3-2.2-1.3-2.2-1.3L80.2,49l-.8,1.3a9.77,9.77,0,0,0-2.3-.6V45.6H72l8.8,7.5,1.6-2.8,2.2,1.3-1.9,3.2.4.3a15.6,15.6,0,0,1,4,4.1l3.3-1.9,1.3,2.2-3.2,1.9a17.19,17.19,0,0,1,1.6,6h3.8V70H90.1a17.19,17.19,0,0,1-1.6,6l3.2,1.9-1.3,2.2-3.3-1.9a18.39,18.39,0,0,1-4.4,4.4l1.9,3.3-2.2,1.3L80.5,84a17.19,17.19,0,0,1-6,1.6v3.8H71.9V85.6a17.19,17.19,0,0,1-6-1.6L64,87.2l-2.2-1.3,1.9-3.3a18.39,18.39,0,0,1-4.4-4.4L56,80.1l-1.3-2.2,3-1.8L53,69.9h-.4v-.5L50,66v6.5h4.1c.2.8.4,1.6.6,2.3l-1.3.8-2.2,1.3,1.3,2.2,1.3,2.2,1.3,2.2,2.2-1.3,1.3-.8a13.65,13.65,0,0,0,1.7,1.7l-.8,1.3-1.3,2.2,2.2,1.3,2.2,1.3,2.2,1.3,1.3-2.2.8-1.3a9.77,9.77,0,0,0,2.3.6v4.1H77V87.6c.8-.2,1.6-.4,2.3-.6l.8,1.3,1.3,2.2,2.2-1.3,2.2-1.3L88,86.6l-1.3-2.2-.8-1.3a13.65,13.65,0,0,0,1.7-1.7l1.3.8,2.2,1.3,1.3-2.2,1.3-2.2L95,76.9l-2.2-1.3-1.3-.8a9.77,9.77,0,0,0,.6-2.3ZM73,57h.5l-2.8-2.4A14.57,14.57,0,0,0,63,58.5a14.36,14.36,0,0,0-3.8,6.9l2.2,2.9a11.83,11.83,0,0,1,3.4-8A12.39,12.39,0,0,1,73,57M41.1,34.9a3.86,3.86,0,0,1-5.4,0,3.92,3.92,0,0,1,0-5.5h0a3.92,3.92,0,0,1,5.5,0,4,4,0,0,1-.1,5.5m-3.6-3.6a1.27,1.27,0,1,0,1.8,0,1.27,1.27,0,0,0-1.8,0M83,58.5h0a14.21,14.21,0,0,1,.1,20.1,14,14,0,0,1-10,4.1,14.24,14.24,0,0,1-10-4.1.1.1,0,0,0-.1-.1h0l-2.1-2.7-6.6-8.6-2-2.6L42,51.4l-2.2-2.8L31.9,38.4h0a9,9,0,0,1,6.5-15.2,8.77,8.77,0,0,1,6.3,2.6h0l10.1,8.6,2.6,2.2L69.3,46.8,71.9,49l2.6,2.2.8.7,6.4,5.5L83,58.5ZM33.8,36.7h0a6.73,6.73,0,0,0,4.5,1.9h.2a6.13,6.13,0,0,0,4.4-1.9,5.76,5.76,0,0,0,1.8-4.2,6.67,6.67,0,0,0-1.8-4.9.1.1,0,0,0-.1-.1,6.42,6.42,0,0,0-4.6-1.9,6.78,6.78,0,0,0-4.6,1.9,6.78,6.78,0,0,0,.2,9.2M81.2,76.8a11.65,11.65,0,0,0,0-16.4h0L80,59.3l-5.6-4.8-3.2-2.7-2.6-2.2L54,37.1l-2.6-2.2-4.1-3.5a8.2,8.2,0,0,1-.3,3.1,9,9,0,0,1-2.3,4,8.71,8.71,0,0,1-4.4,2.4,12.31,12.31,0,0,1-2,.2,4.87,4.87,0,0,1-1.2-.1l3.4,4.3,2,2.5,9,11.6L53,61.3,54.3,63l2,2.6,2.5,3.2,4.1,5.3,1.9,2.5.1.1h0a11.35,11.35,0,0,0,16.3.1"/>
</svg>
