<svg enable-background="new 0 0 110 100" height="100" viewBox="0 0 110 100" width="110" xmlns="http://www.w3.org/2000/svg" xmlns:xlink="http://www.w3.org/1999/xlink"><linearGradient id="a" gradientUnits="userSpaceOnUse" x1="23.7343" x2="89.3343" y1="36.2156" y2="101.8157"><stop offset="0" stop-color="#109bfb"/><stop offset="1" stop-color="#1d3ec0"/></linearGradient><path d="m108.9 75.9c-.6-1.9-1.5-3.6-2.6-5.1v-16.6l-3.6-3.8h-13.6v3h12.3l1.9 2v12.5c-.8-.6-1.6-1-2.4-1.4v-9.7h-3v8.8c-.6-.1-1.2-.1-1.7-.1-5.7 0-10.8 4.1-12.8 10.2h-7.6c-2.2 0-2.6-1.1-2.7-1.4v-7.5h-17v-15.1h19.3v8.3c0 4.4-.3 7-.7 7.6l2.6 1.5c.6-1 .9-3 1-6h7.6v-11.4-3-8.4h-3v8.4h-2.6-.9-1.5c-1.4-4.1-3.7-10.7-7.5-13.5-4-3.1-9.3-3.1-14.4-3.1v-8.3c0-4.2-2.1-7.9-5.8-10.7l-1.8 2.4c1.7 1.2 4.5 3.9 4.5 8.2v43h-2.6v-14.8-13.1-13c0-3.8-2.1-7.2-5.9-9.6l-1.6 2.5c1.7 1.1 4.5 3.4 4.5 7v2c-1.9-.7-3.5-1.1-5.2-1.5-1.4-.3-2.8-.7-4.7-1.2l-1.9-.6v14.5 13.1 14.9h-32.8l-2.5 8.6 2.9.8 1.9-6.4h30.6 1.5 33v4.6c.1 1.5 1.4 4.3 5.7 4.3h6.9c-.1.8-.2 1.7-.2 2.5h3c0-1.2.1-2.5.4-3.6 1.3-5.4 5.5-9.1 10.2-9.1 4.4 0 8.4 3.3 10 8.2.5 1.4.7 2.9.7 4.5h3c-.1-1.9-.4-3.7-.9-5.4zm-29.5-24.2h.9 2.6v8.4h-4.6v-.1-8.3c0 .1 1.1.1 1.1 0zm-10.8-14.1c.5.4.9.8 1.3 1.3h-10.5v3h12.5c1.2 2.2 2.1 4.7 2.8 6.9h-18.7v-13.7c4.9 0 9.4 0 12.6 2.5zm-30.1 4.2h8.9v7.1h-8.9zm0-13.4c1.1.3 2.1.5 2.9.7 2 .5 3.6.9 5.9 1.8v7.9h-8.9zm0 23.5h8.9v14.9h-8.9zm57.6 19.1c-4.3 0-7.9 3.5-7.9 7.9 0 4.3 3.5 7.9 7.9 7.9 4.3 0 7.9-3.5 7.9-7.9-.1-4.4-3.6-7.9-7.9-7.9zm0 12.7c-2.7 0-4.9-2.2-4.9-4.9s2.2-4.9 4.9-4.9 4.9 2.2 4.9 4.9c-.1 2.8-2.3 4.9-4.9 4.9zm-65.4-12.7c-4.3 0-7.9 3.5-7.9 7.9 0 4.3 3.5 7.9 7.9 7.9 4.3 0 7.9-3.5 7.9-7.9-.1-4.4-3.6-7.9-7.9-7.9zm0 12.7c-2.7 0-4.9-2.2-4.9-4.9s2.2-4.9 4.9-4.9 4.9 2.2 4.9 4.9c-.1 2.8-2.2 4.9-4.9 4.9zm-17.8-12.7c-4.3 0-7.9 3.5-7.9 7.9 0 4.3 3.5 7.9 7.9 7.9 4.3 0 7.9-3.5 7.9-7.9s-3.5-7.9-7.9-7.9zm0 12.7c-2.7 0-4.9-2.2-4.9-4.9s2.2-4.9 4.9-4.9 4.9 2.2 4.9 4.9c0 2.8-2.2 4.9-4.9 4.9zm51.6-11.6h-13c-2 0-3.6 1.6-3.6 3.6v3.1c0 2 1.6 3.6 3.6 3.6h13c2 0 3.6-1.6 3.6-3.6v-3.1c0-2-1.6-3.6-3.6-3.6zm.6 6.7c0 .3-.3.6-.6.6h-13c-.3 0-.6-.3-.6-.6v-3.1c0-.3.3-.6.6-.6h13c.3 0 .6.3.6.6zm-6.8-16.8v-4.7h3v4.7z" fill="url(#a)"/></svg>