<svg enable-background="new 0 0 110 100" height="100" viewBox="0 0 110 100" width="110" xmlns="http://www.w3.org/2000/svg" xmlns:xlink="http://www.w3.org/1999/xlink"><linearGradient id="a" gradientUnits="userSpaceOnUse" x1="20.8" x2="89.213" y1="4.6" y2="73.013"><stop offset="0" stop-color="#109bfb"/><stop offset="1" stop-color="#1d3ec0"/></linearGradient><path d="m80.6 11.8h13.8v-2.1h-13.8c-2.2 0-5.1 1.2-6.7 2.6l-17.9 16.6v-5.8c2.5-.5 4.4-2.7 4.4-5.3 0-3-2.4-5.4-5.4-5.4s-5.4 2.4-5.4 5.4c0 2.6 1.9 4.8 4.4 5.3v5.8l-17.9-16.5c-1.6-1.5-4.5-2.6-6.7-2.6h-13.8v2.1h13.8c1.7 0 4.1.9 5.3 2.1l2.8 2.6h-19.1v2.1h21.3l5 4.7h-23.6v2.1h25.9l7 6.4v11.8c-5.2-.5-9.3-4.9-9.3-10.3 0-2.1-1.7-3.8-3.8-3.8s-3.8 1.7-3.8 3.8c0 5.6 2.6 10.7 6.9 14.1-4.4 3.4-6.9 8.6-6.9 14.1 0 5.6 2.6 10.7 6.9 14.1-4.1 3.2-6.6 8-6.9 13.2 0 .3.1.6.3.8s.5.3.8.3h5.5c.5 0 1-.4 1-1 .4-5 4.4-9 9.3-9.5v10.8h2v-10.8c4.9.5 8.9 4.5 9.3 9.5 0 .5.5 1 1 1h5.5c.3 0 .6-.1.7-.3.2-.2.3-.5.3-.8-.3-5.2-2.8-10-6.9-13.2 4.4-3.4 6.9-8.6 6.9-14.1 0-5.6-2.6-10.7-6.9-14.1 4.4-3.4 6.9-8.6 6.9-14.1 0-2.1-1.7-3.8-3.8-3.8s-3.8 1.7-3.8 3.8c0 5.4-4.1 9.8-9.3 10.3v-12l7-6.5h25.8v-2.1h-23.4l5-4.7h21.3v-2.1h-19.1l2.8-2.6c1.2-.9 3.6-1.9 5.3-1.9zm-29 6c0-1.9 1.5-3.4 3.4-3.4s3.4 1.5 3.4 3.4-1.5 3.4-3.4 3.4c-1.9-.1-3.4-1.6-3.4-3.4zm-12.5 15.4c0-1 .8-1.7 1.7-1.7 1 0 1.7.8 1.7 1.7 0 4.9 2.9 9.2 7 11.2-.3.1-.5.2-.8.3-.1 0-.1 0-.2.1-.4.1-.7.3-1.1.5-.1.1-.2.1-.3.2-.3.1-.5.2-.7.4-.1.1-.2.1-.4.2 0-.1-.1-.1-.2 0-4.2-3-6.7-7.8-6.7-12.9zm31.6 54.6h-3.5c-.6-4.1-3.3-7.5-6.9-9.3.3-.1.6-.2.8-.3h.1c.4-.1.7-.3 1.1-.5.1-.1.2-.1.3-.2.2-.1.5-.2.7-.4.1-.1.3-.1.4-.2s.2-.1.3-.2c3.8 2.7 6.2 6.8 6.7 11.1zm.1-26.3c0 5.4-2.7 10.3-7.2 13.3-2.6 1.7-5.6 2.6-8.7 2.6-6.1 0-11.3 4.5-12.3 10.5h-3.5c.6-4.6 3.1-8.8 7.1-11.4 2.6-1.7 5.6-2.6 8.7-2.6 6.8 0 12.4-5.6 12.4-12.4 0-.4 0-.8-.1-1.1 0-.1 0-.2 0-.3 0-.3-.1-.6-.1-.9 0-.1 0-.2 0-.2-.1-.4-.2-.7-.3-1.1 0-.1 0-.1-.1-.2-.1-.3-.2-.6-.3-.8 0-.1-.1-.2-.1-.3-.1-.3-.3-.6-.4-.9 0 0 0 0 0-.1-.2-.3-.4-.6-.6-.9-.1-.1-.1-.2-.2-.2-.2-.2-.3-.5-.5-.7-.1-.1-.1-.1-.2-.2-.2-.3-.5-.5-.7-.8l-.1-.1c-.2-.2-.4-.4-.6-.6-.1-.1-.2-.1-.2-.2-.2-.2-.5-.4-.8-.6 0 0-.1 0-.1-.1-.3-.2-.6-.4-.9-.6-.1 0-.2-.1-.3-.1-.1-.1-.2-.1-.3-.2.3-.1.5-.2.8-.3.1 0 .1 0 .2-.1.4-.1.7-.3 1.1-.5.1-.1.2-.1.3-.2.3-.1.5-.2.7-.4.1-.1.2-.1.4-.2.1-.1.2-.1.3-.2 4.2 3.2 6.6 7.9 6.6 13.1zm-14.8-10.3c5.2.5 9.3 4.9 9.3 10.3s-4.1 9.8-9.3 10.3zm-2.1 20.6c-5.2-.5-9.3-4.9-9.3-10.3s4.1-9.8 9.3-10.3zm13.5-38.6c0-1 .8-1.7 1.7-1.7s1.7.8 1.7 1.7c0 5.4-2.7 10.3-7.2 13.3-2.6 1.7-5.6 2.6-8.7 2.6-6.8 0-12.4 5.6-12.4 12.4 0 .4 0 .8.1 1.1v.3c0 .3.1.6.1.9v.3c.1.4.2.7.3 1.1 0 .1.1.1.1.2.1.3.2.6.3.8 0 .1.1.2.1.3.1.3.3.6.4.9v.1l.6.9c.1.1.1.2.2.2.2.2.3.5.5.7.1.1.1.1.2.2.2.3.5.5.7.8 0 0 .1.1.2.1.2.2.4.4.6.6.1.1.2.1.2.2.2.2.5.4.8.6l.1.1.9.6c.1 0 .2.1.3.1.1.1.2.1.3.2-.3.1-.5.2-.8.3 0 0-.1 0-.1.1-.4.1-.7.3-1.1.5-.1 0-.2.1-.3.2-.3.1-.5.3-.8.4-.1.1-.2.1-.4.2-.1.1-.2.1-.3.2-4.2-3-6.6-7.8-6.6-12.9 0-5.4 2.7-10.3 7.2-13.3 2.6-1.7 5.6-2.6 8.7-2.6 6.8-.3 12.4-5.9 12.4-12.7z" fill="url(#a)"/></svg>