<svg viewBox="0 0 110 100" xmlns="http://www.w3.org/2000/svg"><path d="m108.9 75.9a17.53 17.53 0 0 0 -2.6-5.1v-16.6l-3.6-3.8h-13.6v3h12.3l1.9 2v12.5a14.92 14.92 0 0 0 -2.4-1.4v-9.7h-3v8.8a10.28 10.28 0 0 0 -1.7-.1c-5.7 0-10.8 4.1-12.8 10.2h-7.6c-2.2 0-2.6-1.1-2.7-1.4v-7.5h-17v-15.1h19.3v8.3c0 4.4-.3 7-.7 7.6l2.6 1.5c.6-1 .9-3 1-6h7.6v-22.8h-3v8.4h-5c-1.4-4.1-3.7-10.7-7.5-13.5-4-3.1-9.3-3.1-14.4-3.1v-8.3c0-4.2-2.1-7.9-5.8-10.7l-1.8 2.4a10.14 10.14 0 0 1 4.5 8.2v43h-2.6v-40.9c0-3.8-2.1-7.2-5.9-9.6l-1.6 2.5c1.7 1.1 4.5 3.4 4.5 7v2a41.92 41.92 0 0 0 -5.2-1.5c-1.4-.3-2.8-.7-4.7-1.2l-1.9-.6v14.5 13.1 14.9h-32.8l-2.5 8.6 2.9.8 1.9-6.4h65.1v4.6c.1 1.5 1.4 4.3 5.7 4.3h6.9a21.05 21.05 0 0 0 -.2 2.5h3a14.2 14.2 0 0 1 .4-3.6c1.3-5.4 5.5-9.1 10.2-9.1 4.4 0 8.4 3.3 10 8.2a13.27 13.27 0 0 1 .7 4.5h3a23.44 23.44 0 0 0 -.9-5.4zm-29.5-24.2h3.5v8.4h-4.6v-8.4a2.05 2.05 0 0 0 1.1 0zm-10.8-14.1a8 8 0 0 1 1.3 1.3h-10.5v3h12.5a40 40 0 0 1 2.8 6.9h-18.7v-13.7c4.9 0 9.4 0 12.6 2.5zm-30.1 4.2h8.9v7.1h-8.9zm0-13.4c1.1.3 2.1.5 2.9.7a42.94 42.94 0 0 1 5.9 1.8v7.9h-8.9zm0 23.5h8.9v14.9h-8.9zm57.6 19.1a7.9 7.9 0 1 0 7.9 7.9 7.92 7.92 0 0 0 -7.9-7.9zm0 12.7a4.9 4.9 0 1 1 4.9-4.9 5 5 0 0 1 -4.9 4.9zm-65.4-12.7a7.9 7.9 0 1 0 7.9 7.9 7.92 7.92 0 0 0 -7.9-7.9zm0 12.7a4.9 4.9 0 1 1 4.9-4.9 4.91 4.91 0 0 1 -4.9 4.9zm-17.8-12.7a7.9 7.9 0 1 0 7.9 7.9 7.92 7.92 0 0 0 -7.9-7.9zm0 12.7a4.9 4.9 0 1 1 4.9-4.9 4.84 4.84 0 0 1 -4.9 4.9zm51.6-11.6h-13a3.59 3.59 0 0 0 -3.6 3.6v3.1a3.59 3.59 0 0 0 3.6 3.6h13a3.59 3.59 0 0 0 3.6-3.6v-3.1a3.59 3.59 0 0 0 -3.6-3.6zm.6 6.7a.65.65 0 0 1 -.6.6h-13a.65.65 0 0 1 -.6-.6v-3.1a.65.65 0 0 1 .6-.6h13a.65.65 0 0 1 .6.6zm-6.8-16.8v-4.7h3v4.7z" fill="#fff"/></svg>