<svg enable-background="new 0 0 110 100" height="100" viewBox="0 0 110 100" width="110" xmlns="http://www.w3.org/2000/svg" xmlns:xlink="http://www.w3.org/1999/xlink"><linearGradient id="a" gradientUnits="userSpaceOnUse" x1="25.2554" x2="84.7554" y1="29.8446" y2="89.3446"><stop offset="0" stop-color="#109bfb"/><stop offset="1" stop-color="#1d3ec0"/></linearGradient><path d="m84.1 67.6c4.3-3.6 8.7-8.4 7.9-12.9-.4-2.2-2.1-5.1-8.2-6.1-.8-.1-1.6.4-1.7 1.2s.4 1.6 1.2 1.7c2.4.4 5.3 1.4 5.7 3.7.4 2.6-2.3 6.4-7.4 10.5-1.9-1.4-4-2.8-6.4-4.2-.7-.4-1.6-.2-2.1.5-.4.7-.2 1.6.5 2 2 1.1 3.8 2.3 5.4 3.5-5.6 4-13.3 8.1-22.5 11.3-.5.2-1.1.4-1.6.6-.5-.2-1.1-.4-1.6-.6-9.2-3.3-16.9-7.4-22.5-11.3 1.6-1.2 3.4-2.3 5.4-3.5.7-.4 1-1.3.5-2.1-.4-.7-1.3-1-2.1-.5-2.4 1.4-4.5 2.8-6.4 4.2-5.1-4.1-7.9-8-7.4-10.5.4-2.3 3.3-3.3 5.8-3.7.8-.1 1.4-.9 1.2-1.7-.1-.8-.9-1.4-1.7-1.2-6.1 1.1-7.9 3.9-8.2 6.2-.8 4.6 3.6 9.4 7.9 12.9-5.7 4.7-8.5 9.2-7.9 13 .3 1.8 1.4 3.4 3.3 4.5 2.4 1.4 5.9 2.1 10.2 2.1 6.4 0 14.7-1.5 23.5-4.5 8.9 2.9 17.1 4.5 23.5 4.5 4.3 0 7.8-.7 10.2-2.1 1.9-1.1 3-2.6 3.3-4.5.7-3.8-2.1-8.4-7.8-13zm-61.3 14.8c-1.1-.6-1.7-1.4-1.9-2.4-.4-2.6 2.4-6.5 7.4-10.6 5.9 4.3 13.5 8.3 21.9 11.5-12.1 3.5-22.9 4.2-27.4 1.5zm66.3-2.3c-.2 1-.8 1.8-1.9 2.4-4.5 2.7-15.3 2-27.5-1.5 8.4-3.2 16-7.2 21.9-11.5 5.1 3.9 7.9 7.9 7.5 10.6zm-34.3-12.7h.2.2c.5-.1 6.3-2.6 11.6-6.4 7.6-5.3 11.5-10.9 11.5-16.5 0-9.4 0-20.5 0-20.6 0-.8-.7-1.5-1.5-1.5-4.5 0-8.1-3.6-8.1-8.1 0-.8-.7-1.5-1.5-1.5h-24.4c-.8 0-1.5.7-1.5 1.5 0 4.5-3.6 8.1-8.1 8.1-.8 0-1.5.7-1.5 1.5v20.6c0 13.7 22.8 22.9 23.1 22.9zm-20.2-42c4.9-.7 8.9-4.6 9.5-9.5h21.6c.7 4.9 4.6 8.9 9.5 9.5v19.2c0 9.6-16 18-20.4 19.8-4.3-1.8-20.3-10.2-20.4-19.8.2-7.5.2-16 .2-19.2zm5.4 19.1c0-4 0-8.8 0-14.4 0-.6.3-1.1.8-1.3 3-1.6 5.4-4 7-7 .2-.5.7-.8 1.2-.8h12c.8 0 1.5.7 1.5 1.5s-.7 1.5-1.5 1.5h-11c-1.7 2.9-4.1 5.3-7 7v13.5c0 .7 1.1 3.3 6.2 7 .7.5.8 1.4.3 2.1-.3.4-.8.6-1.2.6-.3 0-.6-.1-.9-.3-4.8-3.4-7.4-6.8-7.4-9.4z" fill="url(#a)"/></svg>