<svg version="1.1" id="Layer_1" xmlns="http://www.w3.org/2000/svg" xmlns:xlink="http://www.w3.org/1999/xlink" x="0px" y="0px"
	 width="110px" height="100px" viewBox="0 0 110 100" style="enable-background:new 0 0 110 100;" xml:space="preserve">
<style type="text/css">
	.st0{fill:url(#SVGID_1_);}
	.st1{fill:url(#SVGID_2_);}
	.st2{fill:url(#SVGID_3_);}
	.st3{fill:url(#SVGID_4_);}
	.st4{fill:url(#SVGID_5_);}
	.st5{fill:url(#SVGID_6_);}
	.st6{fill:url(#SVGID_7_);}
	.st7{fill:url(#SVGID_8_);}
</style>
<linearGradient id="SVGID_1_" gradientUnits="userSpaceOnUse" x1="24.4717" y1="35.4901" x2="85.4783" y2="96.4967">
	<stop  offset="0" style="stop-color:#109BFB"/>
	<stop  offset="1" style="stop-color:#1D3EC0"/>
</linearGradient>
<path class="st0" d="M70.3,26.6c-0.4-0.2-0.8-0.2-1.2,0.1L55,36.2l-14.2-9.5c-0.2-0.1-0.4-0.2-0.7-0.2c-0.2,0-0.4,0-0.6,0.1
	c-0.4,0.2-0.6,0.6-0.6,1v30.7c0,8.1,6.1,15,14.1,15.9l0.7,0.1v17.6c0,0.7,0.5,1.2,1.2,1.2s1.2-0.5,1.2-1.2V74.3l0.7-0.1
	c8.1-1,14.1-7.8,14.1-15.9V27.7C71,27.2,70.8,26.8,70.3,26.6z M68.7,39.4l-7.9,5.3c-0.5,0.4-0.7,1.1-0.3,1.6
	c0.3,0.5,1.1,0.7,1.6,0.3l6.6-4.4v8.1l-7.9,5.3c-0.3,0.2-0.4,0.4-0.5,0.7s0,0.6,0.2,0.9c0.3,0.5,1.1,0.7,1.6,0.3l6.6-4.4v5.2
	C68.7,65.8,62.6,72,55,72s-13.7-6.1-13.7-13.7v-5.2l6.6,4.4c0.5,0.4,1.3,0.2,1.6-0.3c0.2-0.3,0.2-0.6,0.2-0.9
	c-0.1-0.3-0.2-0.6-0.5-0.7l-7.9-5.3v-8.1l6.6,4.4c0.5,0.4,1.3,0.2,1.6-0.3c0.4-0.5,0.2-1.3-0.3-1.6l-7.9-5.3v-9.5l13,8.7
	c0.4,0.3,0.9,0.3,1.3,0l13-8.7L68.7,39.4L68.7,39.4z M53.8,26.1v-18c0-0.7,0.5-1.2,1.2-1.2s1.2,0.5,1.2,1.2v18
	c0,0.7-0.5,1.2-1.2,1.2S53.8,26.8,53.8,26.1z M45.8,22.2v-7.6c0-0.6,0.5-1.2,1.2-1.2s1.2,0.5,1.2,1.2v7.6c0,0.7-0.5,1.2-1.2,1.2
	C46.5,23.4,45.8,22.8,45.8,22.2z M61.7,22.2v-7.6c0-0.6,0.5-1.2,1.2-1.2c0.6,0,1.2,0.5,1.2,1.2v7.6c0,0.7-0.5,1.2-1.2,1.2
	C62.2,23.4,61.7,22.8,61.7,22.2z M30.8,53.9c-0.4-0.2-0.9-0.2-1.2,0.1l-6.7,4.5v-9.2c0-0.7-0.5-1.2-1.2-1.2c-0.6,0-1.2,0.5-1.2,1.2
	v9.2L13.8,54c-0.2-0.1-0.4-0.2-0.7-0.2c-0.2,0-0.4,0-0.6,0.1c-0.4,0.2-0.6,0.6-0.6,1v17.7c0,4.7,3.3,8.7,7.9,9.6l0.7,0.1v9.6
	c0,0.7,0.5,1.2,1.2,1.2s1.2-0.5,1.2-1.2v-9.6l0.7-0.1c4.6-0.9,7.9-4.9,7.9-9.6V54.9C31.3,54.5,31.1,54.1,30.8,53.9z M29,65.8
	l-4.3,2.9c-0.3,0.2-0.4,0.4-0.5,0.7c-0.1,0.3,0,0.6,0.2,0.9c0.3,0.5,1.1,0.7,1.6,0.3l3-2v3.9c0,4.1-3.3,7.4-7.4,7.4
	s-7.4-3.3-7.4-7.4v-3.9l3,2c0.5,0.4,1.3,0.2,1.6-0.3c0.4-0.5,0.2-1.3-0.3-1.6l-4.3-2.9v-8.7l6.7,4.5c0.4,0.3,0.9,0.3,1.3,0l6.7-4.5
	L29,65.8L29,65.8z M97.5,53.9c-0.4-0.2-0.9-0.2-1.2,0.1l-6.7,4.5v-9.2c0-0.7-0.5-1.2-1.2-1.2c-0.6,0-1.2,0.5-1.2,1.2v9.2L80.5,54
	c-0.2-0.1-0.4-0.2-0.7-0.2c-0.2,0-0.4,0-0.6,0.1c-0.4,0.2-0.6,0.6-0.6,1v17.7c0,4.7,3.3,8.7,7.9,9.6l0.7,0.1v9.6
	c0,0.7,0.5,1.2,1.2,1.2s1.2-0.5,1.2-1.2v-9.6l0.7-0.1c4.6-0.9,7.9-4.9,7.9-9.6V54.9C98.1,54.5,97.8,54.1,97.5,53.9z M95.7,65.8
	l-4.3,2.9c-0.3,0.2-0.4,0.4-0.5,0.7c-0.1,0.3,0,0.6,0.2,0.9c0.3,0.5,1.1,0.7,1.6,0.3l3-2v3.9c0,4.1-3.3,7.4-7.4,7.4
	s-7.4-3.3-7.4-7.4v-3.9l3,2c0.5,0.4,1.3,0.2,1.6-0.3c0.4-0.5,0.2-1.3-0.3-1.6l-4.3-2.9v-8.7l6.7,4.5c0.4,0.3,0.9,0.3,1.3,0l6.7-4.5
	L95.7,65.8L95.7,65.8z"/>
</svg>
