<svg id="pa-08" xmlns="http://www.w3.org/2000/svg" viewBox="0 0 110 100">
  <defs>
    <style>
      .cls-1 {
        fill: #fffdfd;
      }
    </style>
  </defs>
  <title>pa-08-white</title>
  <path class="cls-1" d="M88.3,58.3h0a18.62,18.62,0,0,0-13.2-5.5,23.74,23.74,0,0,0-4.4.5c-.2,0-.6.1-.8-.3l-7.3-7.3a.86.86,0,0,1-.3-.6.71.71,0,0,1,.3-.6L78.9,28.2a1,1,0,0,1,1.3,0l.7.7a1.5,1.5,0,0,0,1.1.4h0a2.1,2.1,0,0,0,1.1-.4l9.8-9.8a1.57,1.57,0,0,0,0-2.2L88,12a1.57,1.57,0,0,0-2.2,0L76,21.8a1.59,1.59,0,0,0-.4,1.2,2.45,2.45,0,0,0,.4,1.2l.7.7a1,1,0,0,1,0,1.3L60.4,42.4a1,1,0,0,1-1.3,0l-7.3-7.3a1.33,1.33,0,0,1-.3-.8,18.58,18.58,0,0,0-4.9-17.6,18.22,18.22,0,0,0-12.9-5.1A21.54,21.54,0,0,0,26.3,13a1.32,1.32,0,0,0-.9,1.2,1.49,1.49,0,0,0,.4,1.4L35,24.8a.86.86,0,0,1,.3.6.71.71,0,0,1-.3.6l-4,4.2a1,1,0,0,1-1.3,0L20.5,21a2,2,0,0,0-1.4-.4h-.2a1.86,1.86,0,0,0-1.1.9c-2.9,7-1.4,15.2,3.7,20.2a18,18,0,0,0,12.8,5.4h.3a23.7,23.7,0,0,0,4.2-.5c.2,0,.6-.1.8.3L47,54.3a1,1,0,0,1,0,1.3L40.7,62a1,1,0,0,1-1.3,0l-5.6-5.6a1.57,1.57,0,0,0-2.2,0,1.59,1.59,0,0,0-.4,1.2,2.14,2.14,0,0,0,.4,1.2l1.6,1.6a.86.86,0,0,1,.3.6.71.71,0,0,1-.3.6L17.9,76.7a5,5,0,0,0-1.4,3.5A5.33,5.33,0,0,0,18,83.8l3.1,3.1a5.14,5.14,0,0,0,3.7,1.5A4.83,4.83,0,0,0,28.3,87L43.7,71.6a1,1,0,0,1,1.3,0l1.6,1.6a1.5,1.5,0,0,0,1.1.4h0a2.1,2.1,0,0,0,1.1-.4,1.59,1.59,0,0,0,.4-1.2,2.45,2.45,0,0,0-.4-1.2l-5.6-5.6a1,1,0,0,1,0-1.3l6.4-6.4a.86.86,0,0,1,.6-.3.6.6,0,0,1,.6.3l7.4,7.4a1.14,1.14,0,0,1,.3.8,15.5,15.5,0,0,0-.5,4.5A17.93,17.93,0,0,0,76.3,88a21.11,21.11,0,0,0,7.4-1.4,1.32,1.32,0,0,0,.9-1.2,1.49,1.49,0,0,0-.4-1.4l-9.3-9a1,1,0,0,1,0-1.3L79,69.6a1,1,0,0,1,1.3,0l9.2,9.2a1.39,1.39,0,0,0,1.5.4,2.1,2.1,0,0,0,1.1-.8v-.1A18.65,18.65,0,0,0,88.3,58.3ZM37.6,28.1a3.19,3.19,0,0,0,1-2.6A3.25,3.25,0,0,0,37.5,23L31,16.5a.76.76,0,0,1-.2-.9.75.75,0,0,1,.7-.6,14.08,14.08,0,0,1,2.1-.1,14.79,14.79,0,0,1,10.7,4.3,15.62,15.62,0,0,1,4.6,10.6,13.94,13.94,0,0,1-4.1,10.4,14.49,14.49,0,0,1-10,4h-.4a16,16,0,0,1-10.7-4.6,15.32,15.32,0,0,1-4.1-12.7c.1-.3.2-.7.6-.7h.2a1.07,1.07,0,0,1,.6.2l6.5,6.5a3.72,3.72,0,0,0,5.1.1ZM59.2,61.6h0c-.2.1-.3,0-.4-.1L43.5,46.2a.94.94,0,0,1-.3-.7c.1-.3.2-.6.5-.7a15.4,15.4,0,0,0,3.4-2.7,23.87,23.87,0,0,0,2.5-3.2.92.92,0,0,1,.6-.4h.1a.6.6,0,0,1,.6.3L66.1,54c.2.2.2.4.3.7-.1.3-.2.5-.5.6a15.36,15.36,0,0,0-3.2,2.5A26.76,26.76,0,0,0,60,61.2a.72.72,0,0,1-.7.4ZM72.3,72.2a3.54,3.54,0,0,0-1,2.6,4,4,0,0,0,1,2.6l6.5,6.5a.76.76,0,0,1,.2.9.75.75,0,0,1-.7.6,14.08,14.08,0,0,1-2.1.1,14.79,14.79,0,0,1-10.7-4.3,15.66,15.66,0,0,1-4.6-10.7,13.8,13.8,0,0,1,4.2-10.4,14.23,14.23,0,0,1,10.1-4.2,15.71,15.71,0,0,1,10.9,4.5,16.67,16.67,0,0,1,4.1,13c-.1.3-.2.6-.6.7a1,1,0,0,1-.9-.2l-6.5-6.5a3.54,3.54,0,0,0-2.6-1h-.1a4,4,0,0,0-2.5,1ZM41.7,68.9a.86.86,0,0,1-.3.6L26,84.9a1.66,1.66,0,0,1-1.2.5,1.75,1.75,0,0,1-1.4-.7l-3-3a2.73,2.73,0,0,1-.7-1.3,1.62,1.62,0,0,1,.5-1.4L35.6,63.6a.73.73,0,0,1,.6-.2,1.85,1.85,0,0,1,.7.2l4.7,4.7A.66.66,0,0,1,41.7,68.9ZM79.7,23a1.33,1.33,0,0,1,.3-.7l6.4-6.4a1,1,0,0,1,1.3,0l1.4,1.4a.86.86,0,0,1,.3.6.71.71,0,0,1-.3.6l-6.4,6.4a.86.86,0,0,1-.6.3.71.71,0,0,1-.6-.3l-1.4-1.4C79.7,23.5,79.7,23.3,79.7,23Z"/>
</svg>
