<?xml version="1.0" encoding="utf-8"?>
<!-- Generator: Adobe Illustrator 22.1.0, SVG Export Plug-In . SVG Version: 6.00 Build 0)  -->
<svg version="1.1" id="Layer_1" xmlns="http://www.w3.org/2000/svg" xmlns:xlink="http://www.w3.org/1999/xlink" x="0px" y="0px"
	 width="110px" height="100px" viewBox="0 0 110 100" style="enable-background:new 0 0 110 100;" xml:space="preserve">
<style type="text/css">
	.st0{fill:url(#SVGID_1_);}
	.st1{fill:url(#SVGID_2_);}
	.st2{fill:url(#SVGID_3_);}
	.st3{fill:url(#SVGID_4_);}
	.st4{fill:url(#SVGID_5_);}
	.st5{fill:url(#SVGID_6_);}
	.st6{fill:url(#SVGID_7_);}
	.st7{fill:url(#SVGID_8_);}
</style>
<linearGradient id="SVGID_1_" gradientUnits="userSpaceOnUse" x1="22.1667" y1="17.0315" x2="87.9035" y2="82.7682">
	<stop  offset="0" style="stop-color:#109BFB"/>
	<stop  offset="1" style="stop-color:#1D3EC0"/>
</linearGradient>
<path class="st0" d="M88.3,58.3L88.3,58.3c-3.5-3.5-8.2-5.5-13.2-5.5c-1.4,0-2.8,0.2-4.4,0.5c-0.2,0-0.6,0.1-0.8-0.3l-7.3-7.3
	c-0.2-0.2-0.3-0.4-0.3-0.6s0.1-0.5,0.3-0.6l16.3-16.3c0.3-0.3,0.9-0.3,1.3,0l0.7,0.7c0.3,0.3,0.7,0.4,1.1,0.4c0,0,0,0,0,0
	c0.4,0,0.8-0.2,1.1-0.4l9.8-9.8c0.6-0.6,0.6-1.6,0-2.2L88,12c-0.6-0.6-1.6-0.6-2.2,0L76,21.8c-0.3,0.3-0.4,0.7-0.4,1.2
	c0,0.4,0.2,0.9,0.4,1.2l0.7,0.7c0.3,0.3,0.3,0.9,0,1.3L60.4,42.4c-0.3,0.3-0.9,0.3-1.3,0l-7.3-7.3c-0.2-0.2-0.3-0.6-0.3-0.8
	c1.6-6.2-0.3-13-4.9-17.6c-3.3-3.3-8-5.1-12.9-5.1c-2.5,0-4.9,0.5-7.4,1.4c-0.4,0.1-0.9,0.6-0.9,1.2c-0.1,0.5,0,1,0.4,1.4l9.2,9.2
	c0.2,0.2,0.3,0.4,0.3,0.6s-0.1,0.5-0.3,0.6L31,30.2c-0.3,0.3-0.9,0.3-1.3,0L20.5,21c-0.4-0.4-1.1-0.4-1.4-0.4l-0.2,0
	c-0.4,0.1-0.8,0.4-1.1,0.9c-2.9,7-1.4,15.2,3.7,20.2c3.5,3.5,8,5.4,12.8,5.4h0.3c1.2,0,2.6-0.2,4.2-0.5c0.2,0,0.6-0.1,0.8,0.3
	l7.4,7.4c0.3,0.3,0.3,0.9,0,1.3L40.7,62c-0.3,0.3-0.9,0.3-1.3,0l-5.6-5.6c-0.6-0.6-1.6-0.6-2.2,0c-0.3,0.3-0.4,0.7-0.4,1.2
	c0,0.5,0.2,0.9,0.4,1.2l1.6,1.6c0.2,0.2,0.3,0.4,0.3,0.6s-0.1,0.5-0.3,0.6L17.9,76.7c-0.9,0.9-1.4,2.2-1.4,3.5
	c0,1.4,0.6,2.6,1.5,3.6l3.1,3.1c1,1,2.3,1.5,3.7,1.5c1.4,0,2.6-0.5,3.5-1.4l15.4-15.4c0.3-0.3,0.9-0.3,1.3,0l1.6,1.6
	c0.3,0.3,0.7,0.4,1.1,0.4c0,0,0,0,0,0c0.4,0,0.8-0.2,1.1-0.4c0.3-0.3,0.4-0.7,0.4-1.2c0-0.4-0.2-0.9-0.4-1.2l-5.6-5.6
	c-0.3-0.3-0.3-0.9,0-1.3l6.4-6.4c0.2-0.2,0.4-0.3,0.6-0.3c0.3,0,0.5,0.1,0.6,0.3l7.4,7.4c0.2,0.2,0.3,0.5,0.3,0.8
	c-0.4,1.3-0.5,2.8-0.5,4.5c0.1,4.8,2,9.3,5.4,12.7c3.3,3.3,8,5.1,12.9,5.1c2.5,0,5-0.5,7.4-1.4c0.4-0.1,0.9-0.6,0.9-1.2
	c0.1-0.5,0-1-0.4-1.4L74.9,75c-0.3-0.3-0.3-0.9,0-1.3l4.1-4.1c0.3-0.3,0.9-0.3,1.3,0l9.2,9.2c0.4,0.4,0.9,0.6,1.5,0.4
	c0.4-0.1,0.8-0.4,1.1-0.8l0-0.1C94.9,71.5,93.4,63.5,88.3,58.3z M37.6,28.1c0.7-0.7,1.1-1.6,1-2.6c0-1-0.4-1.9-1.1-2.5L31,16.5
	c-0.3-0.3-0.3-0.5-0.2-0.9c0.1-0.3,0.3-0.6,0.7-0.6c0.7-0.1,1.3-0.1,2.1-0.1c4.1,0,8,1.5,10.7,4.3c2.8,2.8,4.5,6.6,4.6,10.6
	c0.1,4-1.4,7.8-4.1,10.4c-2.6,2.5-6.2,4-10,4h-0.4c-3.9-0.1-7.7-1.7-10.7-4.6c-3.2-3.2-4.7-8-4.1-12.7c0.1-0.3,0.2-0.7,0.6-0.7
	c0.1,0,0.2,0,0.2,0c0.2,0,0.5,0.1,0.6,0.2l6.5,6.5c1.4,1.4,3.8,1.4,5.1,0.1L37.6,28.1z M59.2,61.6L59.2,61.6c-0.2,0.1-0.3,0-0.4-0.1
	L43.5,46.2c-0.3-0.3-0.3-0.6-0.3-0.7c0.1-0.3,0.2-0.6,0.5-0.7c1-0.6,2.3-1.5,3.4-2.7c0.8-0.8,1.6-1.9,2.5-3.2
	c0.1-0.2,0.3-0.3,0.6-0.4h0.1c0.3,0,0.5,0.1,0.6,0.3l15.2,15.2c0.2,0.2,0.2,0.4,0.3,0.7c-0.1,0.3-0.2,0.5-0.5,0.6
	c-1.2,0.7-2.2,1.5-3.2,2.5c-1.1,1.1-1.9,2.3-2.7,3.4c-0.1,0.2-0.3,0.4-0.7,0.4L59.2,61.6z M72.3,72.2c-0.7,0.7-1,1.6-1,2.6
	s0.4,1.9,1,2.6l6.5,6.5c0.3,0.3,0.3,0.5,0.2,0.9c-0.1,0.3-0.3,0.6-0.7,0.6c-0.7,0.1-1.3,0.1-2.1,0.1c-4.1,0-8-1.5-10.7-4.3
	c-2.8-2.8-4.5-6.6-4.6-10.7c-0.1-4,1.4-7.7,4.2-10.4c2.7-2.7,6.3-4.2,10.1-4.2c4,0,7.9,1.6,10.9,4.5c3.1,3.3,4.6,8.2,4.1,13
	c-0.1,0.3-0.2,0.6-0.6,0.7c-0.3,0.1-0.7,0-0.9-0.2l-6.5-6.5c-0.7-0.7-1.6-1-2.6-1h-0.1c-0.9,0-1.8,0.4-2.5,1L72.3,72.2z M41.7,68.9
	c0,0.2-0.1,0.4-0.3,0.6L26,84.9c-0.3,0.3-0.7,0.5-1.2,0.5c-0.5,0-1-0.2-1.4-0.7l-3-3c-0.3-0.3-0.6-0.8-0.7-1.3
	c-0.1-0.6,0.2-1.1,0.5-1.4l15.4-15.4c0.2-0.2,0.4-0.2,0.6-0.2c0.2,0,0.5,0.1,0.7,0.2l4.7,4.7C41.7,68.5,41.8,68.7,41.7,68.9z
	 M79.7,23c0-0.2,0.1-0.4,0.3-0.7l6.4-6.4c0.3-0.3,0.9-0.3,1.3,0l1.4,1.4c0.2,0.2,0.3,0.4,0.3,0.6s-0.1,0.5-0.3,0.6l-6.4,6.4
	c-0.2,0.2-0.4,0.3-0.6,0.3s-0.5-0.1-0.6-0.3l-1.4-1.4C79.7,23.5,79.7,23.3,79.7,23z"/>
</svg>
