<svg enable-background="new 0 0 110 100" height="100" viewBox="0 0 110 100" width="110" xmlns="http://www.w3.org/2000/svg" xmlns:xlink="http://www.w3.org/1999/xlink"><linearGradient id="a" gradientUnits="userSpaceOnUse" x1="22.1667" x2="87.9035" y1="17.0315" y2="82.7682"><stop offset="0" stop-color="#109bfb"/><stop offset="1" stop-color="#1d3ec0"/></linearGradient><path d="m88.3 58.3c-3.5-3.5-8.2-5.5-13.2-5.5-1.4 0-2.8.2-4.4.5-.2 0-.6.1-.8-.3l-7.3-7.3c-.2-.2-.3-.4-.3-.6s.1-.5.3-.6l16.3-16.3c.3-.3.9-.3 1.3 0l.7.7c.3.3.7.4 1.1.4.4 0 .8-.2 1.1-.4l9.8-9.8c.6-.6.6-1.6 0-2.2l-4.9-4.9c-.6-.6-1.6-.6-2.2 0l-9.8 9.8c-.3.3-.4.7-.4 1.2 0 .4.2.9.4 1.2l.7.7c.3.3.3.9 0 1.3l-16.3 16.2c-.3.3-.9.3-1.3 0l-7.3-7.3c-.2-.2-.3-.6-.3-.8 1.6-6.2-.3-13-4.9-17.6-3.3-3.3-8-5.1-12.9-5.1-2.5 0-4.9.5-7.4 1.4-.4.1-.9.6-.9 1.2-.1.5 0 1 .4 1.4l9.2 9.2c.2.2.3.4.3.6s-.1.5-.3.6l-4 4.2c-.3.3-.9.3-1.3 0l-9.2-9.2c-.4-.4-1.1-.4-1.4-.4h-.2c-.4.1-.8.4-1.1.9-2.9 7-1.4 15.2 3.7 20.2 3.5 3.5 8 5.4 12.8 5.4h.3c1.2 0 2.6-.2 4.2-.5.2 0 .6-.1.8.3l7.4 7.4c.3.3.3.9 0 1.3l-6.3 6.4c-.3.3-.9.3-1.3 0l-5.6-5.6c-.6-.6-1.6-.6-2.2 0-.3.3-.4.7-.4 1.2s.2.9.4 1.2l1.6 1.6c.2.2.3.4.3.6s-.1.5-.3.6l-15.3 15.1c-.9.9-1.4 2.2-1.4 3.5 0 1.4.6 2.6 1.5 3.6l3.1 3.1c1 1 2.3 1.5 3.7 1.5s2.6-.5 3.5-1.4l15.4-15.4c.3-.3.9-.3 1.3 0l1.6 1.6c.3.3.7.4 1.1.4.4 0 .8-.2 1.1-.4.3-.3.4-.7.4-1.2 0-.4-.2-.9-.4-1.2l-5.6-5.6c-.3-.3-.3-.9 0-1.3l6.4-6.4c.2-.2.4-.3.6-.3.3 0 .5.1.6.3l7.4 7.4c.2.2.3.5.3.8-.4 1.3-.5 2.8-.5 4.5.1 4.8 2 9.3 5.4 12.7 3.3 3.3 8 5.1 12.9 5.1 2.5 0 5-.5 7.4-1.4.4-.1.9-.6.9-1.2.1-.5 0-1-.4-1.4l-9.3-9c-.3-.3-.3-.9 0-1.3l4.1-4.1c.3-.3.9-.3 1.3 0l9.2 9.2c.4.4.9.6 1.5.4.4-.1.8-.4 1.1-.8v-.1c2.8-6.8 1.3-14.8-3.8-20zm-50.7-30.2c.7-.7 1.1-1.6 1-2.6 0-1-.4-1.9-1.1-2.5l-6.5-6.5c-.3-.3-.3-.5-.2-.9.1-.3.3-.6.7-.6.7-.1 1.3-.1 2.1-.1 4.1 0 8 1.5 10.7 4.3 2.8 2.8 4.5 6.6 4.6 10.6s-1.4 7.8-4.1 10.4c-2.6 2.5-6.2 4-10 4h-.4c-3.9-.1-7.7-1.7-10.7-4.6-3.2-3.2-4.7-8-4.1-12.7.1-.3.2-.7.6-.7h.2c.2 0 .5.1.6.2l6.5 6.5c1.4 1.4 3.8 1.4 5.1.1zm21.6 33.5c-.2.1-.3 0-.4-.1l-15.3-15.3c-.3-.3-.3-.6-.3-.7.1-.3.2-.6.5-.7 1-.6 2.3-1.5 3.4-2.7.8-.8 1.6-1.9 2.5-3.2.1-.2.3-.3.6-.4h.1c.3 0 .5.1.6.3l15.2 15.2c.2.2.2.4.3.7-.1.3-.2.5-.5.6-1.2.7-2.2 1.5-3.2 2.5-1.1 1.1-1.9 2.3-2.7 3.4-.1.2-.3.4-.7.4zm13.1 10.6c-.7.7-1 1.6-1 2.6s.4 1.9 1 2.6l6.5 6.5c.3.3.3.5.2.9-.1.3-.3.6-.7.6-.7.1-1.3.1-2.1.1-4.1 0-8-1.5-10.7-4.3-2.8-2.8-4.5-6.6-4.6-10.7-.1-4 1.4-7.7 4.2-10.4 2.7-2.7 6.3-4.2 10.1-4.2 4 0 7.9 1.6 10.9 4.5 3.1 3.3 4.6 8.2 4.1 13-.1.3-.2.6-.6.7-.3.1-.7 0-.9-.2l-6.5-6.5c-.7-.7-1.6-1-2.6-1h-.1c-.9 0-1.8.4-2.5 1zm-30.6-3.3c0 .2-.1.4-.3.6l-15.4 15.4c-.3.3-.7.5-1.2.5s-1-.2-1.4-.7l-3-3c-.3-.3-.6-.8-.7-1.3-.1-.6.2-1.1.5-1.4l15.4-15.4c.2-.2.4-.2.6-.2s.5.1.7.2l4.7 4.7c.1.2.2.4.1.6zm38-45.9c0-.2.1-.4.3-.7l6.4-6.4c.3-.3.9-.3 1.3 0l1.4 1.4c.2.2.3.4.3.6s-.1.5-.3.6l-6.4 6.4c-.2.2-.4.3-.6.3s-.5-.1-.6-.3l-1.4-1.4c-.4 0-.4-.2-.4-.5z" fill="url(#a)"/></svg>