<svg enable-background="new 0 0 110 100" height="100" viewBox="0 0 110 100" width="110" xmlns="http://www.w3.org/2000/svg" xmlns:xlink="http://www.w3.org/1999/xlink"><linearGradient id="a" gradientUnits="userSpaceOnUse" x1="24.4717" x2="85.4783" y1="35.4901" y2="96.4967"><stop offset="0" stop-color="#109bfb"/><stop offset="1" stop-color="#1d3ec0"/></linearGradient><path d="m70.3 26.6c-.4-.2-.8-.2-1.2.1l-14.1 9.5-14.2-9.5c-.2-.1-.4-.2-.7-.2-.2 0-.4 0-.6.1-.4.2-.6.6-.6 1v30.7c0 8.1 6.1 15 14.1 15.9l.7.1v17.6c0 .7.5 1.2 1.2 1.2s1.2-.5 1.2-1.2v-17.6l.7-.1c8.1-1 14.1-7.8 14.1-15.9v-30.6c.1-.5-.1-.9-.6-1.1zm-1.6 12.8-7.9 5.3c-.5.4-.7 1.1-.3 1.6.3.5 1.1.7 1.6.3l6.6-4.4v8.1l-7.9 5.3c-.3.2-.4.4-.5.7s0 .6.2.9c.3.5 1.1.7 1.6.3l6.6-4.4v5.2c0 7.5-6.1 13.7-13.7 13.7s-13.7-6.1-13.7-13.7v-5.2l6.6 4.4c.5.4 1.3.2 1.6-.3.2-.3.2-.6.2-.9-.1-.3-.2-.6-.5-.7l-7.9-5.3v-8.1l6.6 4.4c.5.4 1.3.2 1.6-.3.4-.5.2-1.3-.3-1.6l-7.9-5.3v-9.5l13 8.7c.4.3.9.3 1.3 0l13-8.7zm-14.9-13.3v-18c0-.7.5-1.2 1.2-1.2s1.2.5 1.2 1.2v18c0 .7-.5 1.2-1.2 1.2s-1.2-.5-1.2-1.2zm-8-3.9v-7.6c0-.6.5-1.2 1.2-1.2s1.2.5 1.2 1.2v7.6c0 .7-.5 1.2-1.2 1.2-.5 0-1.2-.6-1.2-1.2zm15.9 0v-7.6c0-.6.5-1.2 1.2-1.2.6 0 1.2.5 1.2 1.2v7.6c0 .7-.5 1.2-1.2 1.2s-1.2-.6-1.2-1.2zm-30.9 31.7c-.4-.2-.9-.2-1.2.1l-6.7 4.5v-9.2c0-.7-.5-1.2-1.2-1.2-.6 0-1.2.5-1.2 1.2v9.2l-6.7-4.5c-.2-.1-.4-.2-.7-.2-.2 0-.4 0-.6.1-.4.2-.6.6-.6 1v17.7c0 4.7 3.3 8.7 7.9 9.6l.7.1v9.6c0 .7.5 1.2 1.2 1.2s1.2-.5 1.2-1.2v-9.6l.7-.1c4.6-.9 7.9-4.9 7.9-9.6v-17.7c-.2-.4-.4-.8-.7-1zm-1.8 11.9-4.3 2.9c-.3.2-.4.4-.5.7s0 .6.2.9c.3.5 1.1.7 1.6.3l3-2v3.9c0 4.1-3.3 7.4-7.4 7.4s-7.4-3.3-7.4-7.4v-3.9l3 2c.5.4 1.3.2 1.6-.3.4-.5.2-1.3-.3-1.6l-4.3-2.9v-8.7l6.7 4.5c.4.3.9.3 1.3 0l6.7-4.5zm68.5-11.9c-.4-.2-.9-.2-1.2.1l-6.7 4.5v-9.2c0-.7-.5-1.2-1.2-1.2-.6 0-1.2.5-1.2 1.2v9.2l-6.7-4.5c-.2-.1-.4-.2-.7-.2-.2 0-.4 0-.6.1-.4.2-.6.6-.6 1v17.7c0 4.7 3.3 8.7 7.9 9.6l.7.1v9.6c0 .7.5 1.2 1.2 1.2s1.2-.5 1.2-1.2v-9.6l.7-.1c4.6-.9 7.9-4.9 7.9-9.6v-17.7c-.1-.4-.4-.8-.7-1zm-1.8 11.9-4.3 2.9c-.3.2-.4.4-.5.7s0 .6.2.9c.3.5 1.1.7 1.6.3l3-2v3.9c0 4.1-3.3 7.4-7.4 7.4s-7.4-3.3-7.4-7.4v-3.9l3 2c.5.4 1.3.2 1.6-.3.4-.5.2-1.3-.3-1.6l-4.3-2.9v-8.7l6.7 4.5c.4.3.9.3 1.3 0l6.7-4.5z" fill="url(#a)"/></svg>