<svg height="92.8" viewBox="0 0 92.6 92.8" width="92.6" xmlns="http://www.w3.org/2000/svg"><path d="m12.7 45.1-3.7-.4c-.1 1.2-.2 2.3-.3 3.5l3.8.1c0-1 .1-2.1.2-3.2zm6.4-18.1-3.2-2-1.8 3 3.3 1.8c.6-.9 1.2-1.9 1.7-2.8zm-6.6 24.6-3.8.1a20.68 20.68 0 0 0 .3 3.5l3.7-.4c-.1-1.1-.2-2.2-.2-3.2zm1.4-12.8-3.6-1c-.3 1.1-.6 2.3-.8 3.4l3.7.7c.2-1 .4-2.1.7-3.1zm.9 25.4-3.6 1.3c.4 1.1.8 2.2 1.3 3.3l3.4-1.5a28.27 28.27 0 0 0 -1.1-3.1zm-1.6-6.2-3.7.7c.2 1.1.5 2.3.8 3.4l3.6-1c-.3-1-.5-2.1-.7-3.1zm4.2 12.1-3.3 1.8a23.81 23.81 0 0 0 1.8 3l3.2-2c-.6-1-1.2-1.9-1.7-2.8zm3.5 5.4-3 2.3a28.77 28.77 0 0 0 2.2 2.7l2.8-2.5c-.7-.8-1.4-1.7-2-2.5zm2.1-53.6-2.8-2.5c-.8.9-1.5 1.8-2.2 2.7l3 2.3a24.33 24.33 0 0 1 2-2.5zm34.5-14.4.2-3.8c-1.2-.1-2.3-.1-3.5-.1l.1 3.8c1 0 2.1.1 3.2.1zm35.8 23.9 3.4-1.6c-.5-1-1.1-2.1-1.7-3.1l-3.3 1.9c.6.9 1.1 1.9 1.6 2.8zm-3.3-5.5 3.1-2.1c-.7-1-1.4-1.9-2.1-2.8l-2.9 2.4a16.41 16.41 0 0 1 1.9 2.5zm7.1 17.8 3.7-.6c-.2-1.2-.4-2.3-.6-3.4l-3.7.8c.2 1.1.4 2.1.6 3.2zm-11.1-22.8 2.7-2.6c-.8-.8-1.6-1.7-2.5-2.5l-2.5 2.8a25 25 0 0 1 2.3 2.3zm9.7 16.5 3.6-1.1a21.9 21.9 0 0 0 -1.2-3.3l-3.5 1.4c.4 1 .7 2 1.1 3zm-24.3-30.7c-1.1-.4-2.2-.8-3.3-1.1l-1.1 3.6c1 .3 2.1.6 3.1 1zm-26.7 2-.9-3.7c-1.1.3-2.3.6-3.4 1l1.2 3.6zm-22.2 74.3c.8.8 1.7 1.6 2.6 2.4l2.4-2.9c-.8-.7-1.6-1.4-2.4-2.2zm28.5-75.4-.3-3.8c-1.2.1-2.3.3-3.5.5l.6 3.7c1.1-.1 2.2-.3 3.2-.4zm13.7-2.9c-1.1-.2-2.3-.4-3.5-.6l-.5 3.7c1.1.1 2.1.3 3.2.5zm-48.6 28-3.4-1.5c-.5 1.1-.9 2.2-1.3 3.3l3.6 1.3a11.47 11.47 0 0 1 1.1-3.1zm67.5 48.8 2.5 2.8a29.49 29.49 0 0 0 2.5-2.5l-2.7-2.6a25 25 0 0 1 -2.3 2.3zm-5-66.9a24.76 24.76 0 0 1 2.6 1.9l2.3-3c-.9-.7-1.9-1.4-2.8-2.1zm9.4 62.2 2.9 2.4c.7-.9 1.4-1.8 2.1-2.8l-3.1-2.2a15.72 15.72 0 0 1 -1.9 2.6zm-15-65.4c1 .5 1.9 1 2.9 1.5l1.9-3.3c-1-.6-2.1-1.1-3.1-1.6zm-.1 77.2 1.6 3.4a30.13 30.13 0 0 0 3.1-1.6l-1.8-3.3a20 20 0 0 1 -2.9 1.5zm5.6-3.1 2.1 3.1a18.6 18.6 0 0 0 2.8-2.1l-2.3-3a25.6 25.6 0 0 1 -2.6 2zm18-25.9 3.7.8c.3-1.1.5-2.3.7-3.4l-3.7-.6c-.3 1.1-.5 2.1-.7 3.2zm4.7-13-3.8.3c.1 1 .1 2.1.1 3.1s0 2.2-.1 3.2l3.8.3c.1-1.2.1-2.3.1-3.5s0-2.3-.1-3.4zm-6.7 19.1 3.5 1.4 1.2-3.3-3.6-1.1c-.3 1-.7 2-1.1 3zm-71.9-48.8 2.6 2.7c.8-.7 1.6-1.5 2.4-2.2l-2.4-2.9c-.9.8-1.8 1.6-2.6 2.4zm69.1 54.6 3.3 1.9c.6-1 1.1-2 1.7-3.1l-3.4-1.7c-.5 1-1.1 2-1.6 2.9zm-57.7-62.8 1.7 3.4c1-.5 1.9-.9 2.9-1.4l-1.5-3.5c-1 .5-2.1 1-3.1 1.5zm-.2 82.5c1 .5 2.1 1 3.2 1.5l1.5-3.5a25.91 25.91 0 0 1 -2.9-1.4zm33.1-.3 1.1 3.6c1.1-.3 2.2-.7 3.3-1.1l-1.3-3.5c-1.1.3-2.1.7-3.1 1zm-39.1-3.3a29 29 0 0 0 2.9 1.9l2-3.2-2.7-1.8zm.2-75.2 2.2 3.1 2.7-1.8-2-3.2a18.08 18.08 0 0 0 -2.9 1.9zm19.1 83.3c1.1.2 2.3.4 3.5.5l.4-3.8c-1.1-.1-2.1-.2-3.2-.4zm7.9-3.1h-.9l-.1 3.8h.9a22.6 22.6 0 0 0 2.6-.1l-.2-3.8c-.7 0-1.5.1-2.3.1zm5.6-.4.5 3.7c1.2-.2 2.3-.3 3.5-.6l-.8-3.7a19.85 19.85 0 0 1 -3.2.6zm-20.3 1.8a33.74 33.74 0 0 0 3.4 1l.9-3.7-3.1-.9zm2.6-44.9h4.8l-.2.2 10.4 10.4-10.4 10.4 2.7 2.7 10.4-10.4 10.4 10.4 2.7-2.7-10.4-10.4 10.4-10.4-2.7-2.7-10.4 10.4-8-8h2a7.55 7.55 0 0 0 7.5-7.5v-5.6a7.55 7.55 0 0 0 -7.5-7.5h-15.3v1.9h-.3v31.4h3.8zm15.5-13.2v5.6a3.69 3.69 0 0 1 -3.7 3.7h-11.8v-13.1h11.8a3.92 3.92 0 0 1 3.7 3.8z" fill="#fff" transform="translate(-8.7 -3.6)"/></svg>