<?xml version="1.0" encoding="utf-8"?>
<!-- Generator: Adobe Illustrator 22.1.0, SVG Export Plug-In . SVG Version: 6.00 Build 0)  -->
<svg version="1.1" id="_x2014_ÎÓÈ_x5F_1" xmlns="http://www.w3.org/2000/svg" xmlns:xlink="http://www.w3.org/1999/xlink"
	 x="0px" y="0px" width="90px" height="90px" viewBox="0 0 90 90" style="enable-background:new 0 0 90 90;" xml:space="preserve">
<style type="text/css">
	.st0{fill:url(#SVGID_1_);}
	.st1{fill:url(#SVGID_2_);}
	.st2{fill:url(#XMLID_2_);}
	.st3{fill-rule:evenodd;clip-rule:evenodd;fill:url(#SVGID_3_);}
</style>
<linearGradient id="SVGID_1_" gradientUnits="userSpaceOnUse" x1="9.455" y1="14.196" x2="80.5449" y2="85.2858">
	<stop  offset="0" style="stop-color:#109BFB"/>
	<stop  offset="1" style="stop-color:#1D3EC0"/>
</linearGradient>
<path style="fill-rule:evenodd;clip-rule:evenodd;fill:url(#SVGID_1_);" d="M71.2,4.9v5H18.8v-5H71.2z M14.4,19.9
	c-1.3,0-2.3,1-2.3,2.3c0,1.3,1,2.3,2.3,2.3c1.3,0,2.3-1,2.3-2.3C16.7,21,15.7,19.9,14.4,19.9 M33.3,14.8v5v46.4h-5V19.8h-6.8
	c0.3,0.8,0.4,1.6,0.4,2.4c0,4.1-3.3,7.5-7.5,7.5c-4.1,0-7.5-3.3-7.5-7.5s3.3-7.5,7.5-7.5h13.9H33.3z M37.7,19.8v46.4h5V19.8v-5h-5
	V19.8z M47.2,14.8v5v46.4h5V19.8v-5H47.2z M73.3,22.3c0,1.3,1,2.3,2.3,2.3c1.3,0,2.3-1,2.3-2.3c0-1.3-1-2.3-2.3-2.3
	C74.3,19.9,73.3,21,73.3,22.3 M61.8,14.8h13.9c4.1,0,7.5,3.3,7.5,7.5s-3.3,7.5-7.5,7.5c-4.1,0-7.5-3.3-7.5-7.5
	c0-0.9,0.1-1.7,0.4-2.4h-6.8v46.4h-5V19.8v-5H61.8z M18.8,70.6v5h52.5v-5H18.8z M9.3,80.1v5h71.5v-5H9.3z"/>
</svg>
