<svg version="1.1" id="_x2014_ÎÓÈ_x5F_1" xmlns="http://www.w3.org/2000/svg" xmlns:xlink="http://www.w3.org/1999/xlink"
	 x="0px" y="0px" width="90px" height="90px" viewBox="0 0 90 90" style="enable-background:new 0 0 90 90;" xml:space="preserve">
<style type="text/css">
	.st0{fill:url(#SVGID_1_);}
	.st1{fill:url(#SVGID_2_);}
	.st2{fill:url(#XMLID_2_);}
	.st3{fill-rule:evenodd;clip-rule:evenodd;fill:url(#SVGID_3_);}
</style>
<linearGradient id="SVGID_1_" gradientUnits="userSpaceOnUse" x1="11.225" y1="-1.293647e-02" x2="78.775" y2="67.5371">
	<stop  offset="0" style="stop-color:#109BFB"/>
	<stop  offset="1" style="stop-color:#1D3EC0"/>
</linearGradient>
<path class="st0" d="M90,11.2c-9.1,0-18,1.8-26.3,5.3c-4,1.7-7.9,3.8-11.5,6.2c-2.5,1.7-5,3.6-7.2,5.6c-2.3-2-4.7-3.9-7.2-5.6
	c-3.6-2.4-7.5-4.5-11.5-6.2C18,13,9.1,11.2,0,11.2v7.5c15.2,0,29.1,5.7,39.7,15c-2,2.3-3.9,4.7-5.6,7.2c-0.4,0.6-0.8,1.2-1.1,1.8
	C28.8,39,24.1,36,19,33.9C13,31.3,6.6,30,0,30v7.5c11.3,0,21.6,4.6,29.1,12c-0.5,1-0.9,1.9-1.3,2.9c-1.3,3-2.3,6.1-3.1,9.2
	c-1-1.5-2.2-2.8-3.4-4.1c-2.7-2.7-6-4.9-9.5-6.4C8,49.6,4.1,48.8,0,48.8v7.5c12.4,0,22.4,10.1,22.4,22.4H30c0,0,0,0,0,0h0
	c0-8,1.6-15.7,4.4-22.7c4,6.1,6.5,13.3,6.8,21.1c0,0.5,0,1.1,0,1.6h0.1h7.5h0.1c0-0.5,0-1.1,0-1.6c0.3-7.8,2.8-15,6.8-21.1
	c2.9,7,4.4,14.6,4.4,22.7h0c0,0,0,0,0,0h7.5c0-12.4,10.1-22.4,22.4-22.4v-7.5c-4,0-8,0.8-11.7,2.4c-3.6,1.5-6.8,3.7-9.5,6.4
	c-1.3,1.3-2.4,2.6-3.4,4.1c-0.8-3.1-1.9-6.2-3.1-9.2c-0.4-1-0.8-1.9-1.3-2.9c7.5-7.4,17.7-12,29.1-12V30c-6.6,0-13,1.3-19,3.8
	c-5.1,2.2-9.8,5.1-13.8,8.9c-0.4-0.6-0.8-1.2-1.1-1.8c-1.7-2.5-3.6-5-5.6-7.2c10.6-9.3,24.5-15,39.7-15V11.2z M45,59.8
	c0,0,0,0.1,0,0.1C45,59.9,45,59.8,45,59.8c-1.8-4.1-4.1-7.9-6.8-11.4c2-3.3,4.2-6.5,6.8-9.4c2.6,2.9,4.8,6,6.8,9.4
	C49,51.9,46.8,55.7,45,59.8z"/>
</svg>
