<svg enable-background="new 0 0 90 90" height="90" viewBox="0 0 90 90" width="90" xmlns="http://www.w3.org/2000/svg" xmlns:xlink="http://www.w3.org/1999/xlink"><linearGradient id="a" gradientUnits="userSpaceOnUse" x1="12.4022" x2="77.598" y1="22.8823" y2="88.0781"><stop offset="0" stop-color="#109bfb"/><stop offset="1" stop-color="#1d3ec0"/></linearGradient><path d="m73.4 84.9v-44.1c0-15.7-12.8-28.4-28.4-28.4-15.7 0-28.4 12.8-28.4 28.4v36.8h8.9v-36.8c0-10.8 8.8-19.5 19.5-19.5s19.5 8.7 19.5 19.5v44.1h-23.1v-44.1c0-2 1.6-3.6 3.6-3.6s3.6 1.6 3.6 3.6v36.8h8.6v-36.8c0-6.7-5.5-12.2-12.2-12.2s-12.2 5.5-12.2 12.2v44.1h-23.5v-44.1c0-19.7 16-35.7 35.7-35.7s35.7 16 35.7 35.7v44.1z" fill="url(#a)"/></svg>