<svg enable-background="new 0 0 90 90" height="90" viewBox="0 0 90 90" width="90" xmlns="http://www.w3.org/2000/svg" xmlns:xlink="http://www.w3.org/1999/xlink"><linearGradient id="a" gradientUnits="userSpaceOnUse" x1="9.455" x2="80.5449" y1="14.196" y2="85.2858"><stop offset="0" stop-color="#109bfb"/><stop offset="1" stop-color="#1d3ec0"/></linearGradient><path clip-rule="evenodd" d="m71.2 4.9v5h-52.4v-5zm-56.8 15c-1.3 0-2.3 1-2.3 2.3s1 2.3 2.3 2.3 2.3-1 2.3-2.3c0-1.2-1-2.3-2.3-2.3m18.9-5.1v5 46.4h-5v-46.4h-6.8c.3.8.4 1.6.4 2.4 0 4.1-3.3 7.5-7.5 7.5-4.1 0-7.5-3.3-7.5-7.5s3.3-7.5 7.5-7.5h13.9 5zm4.4 5v46.4h5v-46.4-5h-5zm9.5-5v5 46.4h5v-46.4-5zm26.1 7.5c0 1.3 1 2.3 2.3 2.3s2.3-1 2.3-2.3-1-2.3-2.3-2.3c-1.3-.1-2.3 1-2.3 2.3m-11.5-7.5h13.9c4.1 0 7.5 3.3 7.5 7.5s-3.3 7.5-7.5 7.5c-4.1 0-7.5-3.3-7.5-7.5 0-.9.1-1.7.4-2.4h-6.8v46.4h-5v-46.5-5zm-43 55.8v5h52.5v-5zm-9.5 9.5v5h71.5v-5z" fill="url(#a)" fill-rule="evenodd"/></svg>