<svg enable-background="new 0 0 90 90" height="90" viewBox="0 0 90 90" width="90" xmlns="http://www.w3.org/2000/svg" xmlns:xlink="http://www.w3.org/1999/xlink"><linearGradient id="a" gradientUnits="userSpaceOnUse" x1="11.225" x2="78.775" y1="-.012936" y2="67.5371"><stop offset="0" stop-color="#109bfb"/><stop offset="1" stop-color="#1d3ec0"/></linearGradient><path d="m90 11.2c-9.1 0-18 1.8-26.3 5.3-4 1.7-7.9 3.8-11.5 6.2-2.5 1.7-5 3.6-7.2 5.6-2.3-2-4.7-3.9-7.2-5.6-3.6-2.4-7.5-4.5-11.5-6.2-8.3-3.5-17.2-5.3-26.3-5.3v7.5c15.2 0 29.1 5.7 39.7 15-2 2.3-3.9 4.7-5.6 7.2-.4.6-.8 1.2-1.1 1.8-4.2-3.7-8.9-6.7-14-8.8-6-2.6-12.4-3.9-19-3.9v7.5c11.3 0 21.6 4.6 29.1 12-.5 1-.9 1.9-1.3 2.9-1.3 3-2.3 6.1-3.1 9.2-1-1.5-2.2-2.8-3.4-4.1-2.7-2.7-6-4.9-9.5-6.4-3.8-1.5-7.7-2.3-11.8-2.3v7.5c12.4 0 22.4 10.1 22.4 22.4h7.6c0-8 1.6-15.7 4.4-22.7 4 6.1 6.5 13.3 6.8 21.1v1.6h.1 7.5.1c0-.5 0-1.1 0-1.6.3-7.8 2.8-15 6.8-21.1 2.9 7 4.4 14.6 4.4 22.7h7.5c0-12.4 10.1-22.4 22.4-22.4v-7.5c-4 0-8 .8-11.7 2.4-3.6 1.5-6.8 3.7-9.5 6.4-1.3 1.3-2.4 2.6-3.4 4.1-.8-3.1-1.9-6.2-3.1-9.2-.4-1-.8-1.9-1.3-2.9 7.5-7.4 17.7-12 29.1-12v-7.6c-6.6 0-13 1.3-19 3.8-5.1 2.2-9.8 5.1-13.8 8.9-.4-.6-.8-1.2-1.1-1.8-1.7-2.5-3.6-5-5.6-7.2 10.6-9.3 24.5-15 39.7-15v-7.5zm-45 48.6v.1-.1c-1.8-4.1-4.1-7.9-6.8-11.4 2-3.3 4.2-6.5 6.8-9.4 2.6 2.9 4.8 6 6.8 9.4-2.8 3.5-5 7.3-6.8 11.4z" fill="url(#a)"/></svg>