<svg enable-background="new 0 0 90 90" height="90" viewBox="0 0 90 90" width="90" xmlns="http://www.w3.org/2000/svg" xmlns:xlink="http://www.w3.org/1999/xlink"><linearGradient id="a" gradientUnits="userSpaceOnUse" x1="32.0716" x2="65.0374" y1="29.1039" y2="62.0697"><stop offset="0" stop-color="#109bfb"/><stop offset="1" stop-color="#1d3ec0"/></linearGradient><path d="m28.6 33.1 48.4-31.9s.1 9.7-6.1 18.7c-4.1 6-10.2 9.7-14.4 11.9l-20.7 10.9c-7.4 4.1-9 9.1-9.9 13l-3.1 12.3c-.6 2.8-3 8.5-9.8 8.2 0 0 6 0 6.1-9.8v-12.2c-.1-12 4.2-17.3 9.5-21.1zm2.8 17.9-1.3 2.1 27.6-5.5c4-.8 8.6-4.1 11.2-7.6 4-4.8 5.1-11.8 5.1-11.8l-36.6 17.6c-2.5 1.1-4.5 3-6 5.2zm-1 7-1.5 1.3 22.4 2c3.3.3 7.2-.9 10.2-2.4 5.1-2.6 6.7-8.8 6.7-8.8l-32 5.2c-2.2.4-4.2 1.3-5.8 2.7zm-2.1 5.8-1.4.7 16.7 6.5c2.4 1 4.9 1.5 8.4.9 5.8-1 7.8-5.6 7.8-5.6l-26.5-3.3c-1.7-.2-3.4 0-5 .8zm-2.4 4.3-1.3.1 11 9.3c1.6 1.4 4.1 2.3 6.6 2.7 4.6.7 6.9-2.3 6.9-2.3l-19.2-9.2c-1.2-.5-2.6-.8-4-.6zm-2.8 3.8-1-.2 6.2 9.7c.9 1.4 1.9 2.5 4 3.3 1.6.6 4.2.9 5.8.1l-12.1-11.4c-.8-.8-1.8-1.3-2.9-1.5zm-2.8 2.7-.7-.4 2.3 8.9c.3 1.3 1.1 2.3 2.2 3.2 1.8 1.5 4.4 1.8 4.4 1.8l-6.3-11.7c-.5-.7-1.1-1.4-1.9-1.8zm-3.5 1.9-.4-.5-.5 7.3c-.1 1.1.1 1.9 1 3.2.8 1.3 2.9 2.2 2.9 2.2l-2-10.4c-.2-.6-.5-1.3-1-1.8z" fill="url(#a)"/></svg>